<svg xmlns="http://www.w3.org/2000/svg" class="thumbnail-icon" viewBox="0 0 200 200"><g fill="currentColor" fill-rule="nonzero" stroke="none" stroke-width="1" stroke-linecap="butt" stroke-linejoin="miter" stroke-miterlimit="10" stroke-dasharray="" stroke-dashoffset="0" font-family="none" font-weight="none" font-size="none" text-anchor="none" style="mix-blend-mode: normal"><g data-paper-data="{&quot;fillRule&quot;:&quot;nonzero&quot;,&quot;isIcon&quot;:&quot;true&quot;,&quot;iconStyle&quot;:&quot;standalone&quot;,&quot;selectedEffects&quot;:{&quot;container&quot;:&quot;circle_simple_outline3&quot;,&quot;transformation&quot;:&quot;&quot;,&quot;pattern&quot;:&quot;&quot;},&quot;bounds&quot;:{&quot;x&quot;:-4.770069430594381e-15,&quot;y&quot;:0.00008743543986611257,&quot;width&quot;:200,&quot;height&quot;:199.99982512912027},&quot;iconType&quot;:&quot;initial&quot;,&quot;initialText&quot;:&quot;El&quot;,&quot;rawInitialId&quot;:&quot;467&quot;,&quot;blockLetter&quot;:&quot;O&quot;,&quot;blockLetterId&quot;:0,&quot;relativeBoundsIconToContainer&quot;:{&quot;top&quot;:-7.286293025388018e-7,&quot;left&quot;:-7.286286655828193e-7},&quot;widthRatioIconToContainer&quot;:0.5875004145701616,&quot;heightRatioIconToContainer&quot;:0.5962406228671847}" style="fill: rgb(0, 0, 0);"><path d="M41.24981,40.37584c5.30855,0 13.3361,0 24.08266,0c0,26.54272 0,66.29206 0,119.24801c-5.43802,0 -13.46558,0 -24.08266,0c0,-26.54272 0,-66.29206 0,-119.24801zM100.67961,135.5412c3.3664,0 6.15014,1.23003 8.35124,3.69009c2.33058,2.33058 3.49587,5.04959 3.49587,8.15703c0,3.3664 -1.23003,6.15014 -3.69009,8.35124c-2.33058,2.33058 -5.04959,3.49587 -8.15703,3.49587c-3.3664,0 -6.21488,-1.16529 -8.54546,-3.49587c-2.2011,-2.46006 -3.30166,-5.24381 -3.30166,-8.35124c0,-3.10744 1.16529,-5.82645 3.49587,-8.15703c2.33058,-2.46006 5.11433,-3.69009 8.35124,-3.69009zM88.83249,88.92959c3.3664,0 6.21488,1.16529 8.54546,3.49587c2.2011,2.33058 3.30166,5.04959 3.30166,8.15703c0,3.3664 -1.16529,6.21488 -3.49587,8.54546c-2.33058,2.2011 -5.11433,3.30166 -8.35124,3.30166c-3.3664,0 -6.15014,-1.16529 -8.35124,-3.49587c-2.33058,-2.33058 -3.49587,-5.11433 -3.49587,-8.35124c0,-3.10744 1.16529,-5.82645 3.49587,-8.15703c2.2011,-2.33058 4.98485,-3.49587 8.35124,-3.49587zM88.83249,52.22296c0,-3.23692 1.10055,-6.02067 3.30166,-8.35124c2.33058,-2.33058 5.17907,-3.49587 8.54546,-3.49587c3.3664,0 6.21488,1.23003 8.54546,3.69009c2.2011,2.07162 3.30166,4.66116 3.30166,7.7686c0,0.25895 0,0.51791 0,0.77686c0,3.10744 -1.16529,5.89119 -3.49587,8.35124c-2.2011,2.33058 -4.98485,3.49587 -8.35124,3.49587c-3.23692,0 -6.02067,-1.23003 -8.35124,-3.69009c-2.33058,-2.33058 -3.49587,-5.17907 -3.49587,-8.54546zM158.74989,159.62386c-6.60331,0 -12.23554,-2.33058 -16.8967,-6.99174c-4.66116,-4.66116 -6.99174,-10.29339 -6.99174,-16.8967c0,-21.23417 0,-53.0207 0,-95.35957c5.30855,0 13.27136,0 23.88845,0c0,26.54272 0,66.29206 0,119.24801zM29.28929,29.28939c9.22569,-9.22568 19.82067,-16.36875 31.78495,-21.4292c12.38886,-5.24006 25.36415,-7.8601 38.92585,-7.8601c13.56143,0 26.53666,2.62003 38.92567,7.8601c11.96428,5.06045 22.55912,12.20352 31.78453,21.4292c9.2258,9.22568 16.36889,19.82066 21.42926,31.78494c5.2403,12.38886 7.86045,25.36409 7.86045,38.92567c0,13.56182 -2.62015,26.53704 -7.86045,38.92567c-5.06037,11.96428 -12.20346,22.55931 -21.42926,31.78511c-9.22541,9.22541 -19.82025,16.3685 -31.78453,21.42926c-12.38902,5.23991 -25.36424,7.85986 -38.92567,7.85986c-13.56174,0 -26.53703,-2.61995 -38.92585,-7.85986c-11.96432,-5.06076 -22.5593,-12.20385 -31.78495,-21.42926c-9.22567,-9.2258 -16.36876,-19.82084 -21.42925,-31.78511c-5.24003,-12.38902 -7.86004,-25.36424 -7.86004,-38.92567c0,-13.56155 2.62001,-26.53677 7.86004,-38.92567c5.06045,-11.96428 12.20354,-22.55926 21.42925,-31.78494zM34.72856,165.27114c8.51841,8.51854 18.29917,15.11331 29.34226,19.78431c11.43104,4.8346 23.40746,7.2519 35.92926,7.2519c12.52153,0 24.49786,-2.4173 35.92897,-7.2519c11.0429,-4.671 20.82362,-11.26576 29.34217,-19.78431c8.51854,-8.51815 15.11312,-18.29888 19.78373,-29.34217c4.83499,-11.43112 7.25248,-23.40744 7.25248,-35.92897c0,-12.52169 -2.41749,-24.49805 -7.25248,-35.92909c-4.67061,-11.0431 -11.26518,-20.82385 -19.78373,-29.34225c-8.51854,-8.51841 -18.29927,-15.11304 -29.34217,-19.78388c-11.43112,-4.83495 -23.40744,-7.25242 -35.92897,-7.25242c-12.52177,0 -24.49819,2.41747 -35.92926,7.25242c-11.0431,4.67084 -20.82385,11.26547 -29.34226,19.78388c-8.5184,8.51844 -15.11303,18.29919 -19.78387,29.34225c-4.83495,11.43108 -7.25242,23.40744 -7.25242,35.92909c0,12.52153 2.41747,24.49786 7.25242,35.92897c4.67084,11.04329 11.26546,20.82401 19.78387,29.34217z" fill-rule="nonzero"/></g></g></svg>