<svg xmlns:mydata="http://www.w3.org/2000/svg" mydata:contrastcolor="ffffff" mydata:template="Contrast" mydata:presentation="2.5" mydata:layouttype="undefined" mydata:specialfontid="undefined" mydata:id1="015" mydata:id2="078" mydata:companyname="Elinca" mydata:companytagline="Mantenimiento Comercial" version="1.1" xmlns="http://www.w3.org/2000/svg" xmlns:xlink="http://www.w3.org/1999/xlink" viewBox="0 0 550 470"><g fill="none" fill-rule="none" stroke="none" stroke-width="1" stroke-linecap="butt" stroke-linejoin="miter" stroke-miterlimit="10" stroke-dasharray="" stroke-dashoffset="0" font-family="none" font-weight="none" font-size="none" text-anchor="none" style="mix-blend-mode: normal"><g data-paper-data="{&quot;isGlobalGroup&quot;:true,&quot;bounds&quot;:{&quot;x&quot;:64.99999999999997,&quot;y&quot;:183.80108902221482,&quot;width&quot;:419.9999999999999,&quot;height&quot;:102.39787289319926}}"><g data-paper-data="{&quot;isSecondaryText&quot;:true}" fill="#ce0037" fill-rule="nonzero"><path d="M219.85725,273.29254v-4.19092l-1.31166,3.44978h-1.65824l-1.31166,-3.44978v4.19092h-2.20743v-7.65669h2.67664l1.67423,3.99897l1.6689,-3.99897h2.67664v7.65669z" data-paper-data="{&quot;glyphName&quot;:&quot;M&quot;,&quot;glyphIndex&quot;:0,&quot;firstGlyphOfWord&quot;:true,&quot;word&quot;:1}" fill="#000000"/><path d="M230.71152,272.21016l-0.39456,1.08239h-2.59666l3.23117,-7.65669h2.59666l3.11386,7.65669h-2.69797l-0.3839,-1.08239zM232.17247,268.15787l-0.80513,2.23942h1.59426z" data-paper-data="{&quot;glyphName&quot;:&quot;A&quot;,&quot;glyphIndex&quot;:1,&quot;word&quot;:1}" fill="#000000"/><path d="M247.47159,273.29254l-3.01256,-3.90832v3.90832h-2.30874v-7.65669h2.12212l3.02322,3.93498v-3.93498h2.29274v7.65669z" data-paper-data="{&quot;glyphName&quot;:&quot;N&quot;,&quot;glyphIndex&quot;:2,&quot;word&quot;:1}" fill="#000000"/><path d="M259.73097,267.63534v5.65721h-2.53268v-5.65721h-2.17544v-1.99948h6.89422v1.99948z" data-paper-data="{&quot;glyphName&quot;:&quot;T&quot;,&quot;glyphIndex&quot;:3,&quot;word&quot;:1}" fill="#000000"/><path d="M269.77263,267.56069v0.93842h3.57774v1.9195h-3.57774v0.95442h4.03629v1.9195h-6.5743v-7.65669h6.47833v1.92484z" data-paper-data="{&quot;glyphName&quot;:&quot;E&quot;,&quot;glyphIndex&quot;:4,&quot;word&quot;:1}" fill="#000000"/><path d="M284.97899,273.29254l-3.01256,-3.90832v3.90832h-2.30874v-7.65669h2.12212l3.02322,3.93498v-3.93498h2.29274v7.65669z" data-paper-data="{&quot;glyphName&quot;:&quot;N&quot;,&quot;glyphIndex&quot;:5,&quot;word&quot;:1}" fill="#000000"/><path d="M292.59004,273.29254v-7.65669h2.53801v7.65669z" data-paper-data="{&quot;glyphName&quot;:&quot;I&quot;,&quot;glyphIndex&quot;:6,&quot;word&quot;:1}" fill="#000000"/><path d="M307.26521,273.29254v-4.19092l-1.31166,3.44978h-1.65824l-1.31166,-3.44978v4.19092h-2.20743v-7.65669h2.67664l1.67423,3.99897l1.6689,-3.99897h2.67664v7.65669z" data-paper-data="{&quot;glyphName&quot;:&quot;M&quot;,&quot;glyphIndex&quot;:7,&quot;word&quot;:1}" fill="#000000"/><path d="M315.1275,273.29254v-7.65669h2.53801v7.65669z" data-paper-data="{&quot;glyphName&quot;:&quot;I&quot;,&quot;glyphIndex&quot;:8,&quot;word&quot;:1}" fill="#000000"/><path d="M325.58084,267.56069v0.93842h3.57774v1.9195h-3.57774v0.95442h4.03629v1.9195h-6.5743v-7.65669h6.47833v1.92484z" data-paper-data="{&quot;glyphName&quot;:&quot;E&quot;,&quot;glyphIndex&quot;:9,&quot;word&quot;:1}" fill="#000000"/><path d="M340.7872,273.29254l-3.01256,-3.90832v3.90832h-2.30874v-7.65669h2.12212l3.02322,3.93498v-3.93498h2.29274v7.65669z" data-paper-data="{&quot;glyphName&quot;:&quot;N&quot;,&quot;glyphIndex&quot;:10,&quot;word&quot;:1}" fill="#000000"/><path d="M353.04659,267.63534v5.65721h-2.53268v-5.65721h-2.17544v-1.99948h6.89422v1.99948z" data-paper-data="{&quot;glyphName&quot;:&quot;T&quot;,&quot;glyphIndex&quot;:11,&quot;word&quot;:1}" fill="#000000"/><path d="M364.10244,265.56121c0.79979,0 1.5205,0.16707 2.16211,0.5012c0.64161,0.33414 1.14282,0.79802 1.50361,1.39164c0.3608,0.59362 0.54119,1.2619 0.54119,2.00482c0,0.75003 -0.1804,1.42363 -0.54119,2.02081c-0.3608,0.59718 -0.862,1.06639 -1.50361,1.40764c-0.64161,0.34125 -1.36231,0.51187 -2.16211,0.51187c-0.79979,0 -1.5205,-0.16885 -2.16211,-0.50654c-0.64161,-0.33769 -1.14193,-0.8069 -1.50095,-1.40764c-0.35902,-0.60073 -0.53853,-1.27611 -0.53853,-2.02614c0,-0.75003 0.17951,-1.42008 0.53853,-2.01015c0.35902,-0.59007 0.85933,-1.05217 1.50095,-1.38631c0.64161,-0.33414 1.36231,-0.5012 2.16211,-0.5012zM364.13443,267.66733c-0.29148,0 -0.56252,0.0782 -0.81312,0.23461c-0.2506,0.1564 -0.45055,0.37146 -0.59985,0.64517c-0.14929,0.27371 -0.22394,0.58118 -0.22394,0.92243c0,0.34125 0.07465,0.6505 0.22394,0.92776c0.14929,0.27726 0.34924,0.49587 0.59985,0.65583c0.2506,0.15996 0.52164,0.23994 0.81312,0.23994c0.29148,0 0.55719,-0.07998 0.79713,-0.23994c0.23994,-0.15996 0.42922,-0.37857 0.56785,-0.65583c0.13863,-0.27726 0.20795,-0.58652 0.20795,-0.92776c0,-0.34125 -0.06932,-0.64872 -0.20795,-0.92243c-0.13863,-0.27371 -0.32792,-0.48876 -0.56785,-0.64517c-0.23994,-0.1564 -0.50565,-0.23461 -0.79713,-0.23461z" data-paper-data="{&quot;glyphName&quot;:&quot;O&quot;,&quot;glyphIndex&quot;:12,&quot;lastGlyphOfWord&quot;:true,&quot;word&quot;:1}" fill="#000000"/><path d="M383.45679,265.56121c0.58296,0 1.16948,0.12708 1.75955,0.38123c0.59007,0.25416 1.08061,0.59274 1.47162,1.01574l-1.46096,1.73822c-0.22394,-0.31281 -0.49498,-0.56252 -0.81312,-0.74914c-0.31814,-0.18662 -0.6265,-0.27993 -0.92509,-0.27993c-0.45855,0 -0.83712,0.1644 -1.13571,0.49321c-0.29859,0.3288 -0.44788,0.74736 -0.44788,1.25568c0,0.33414 0.06754,0.63628 0.20261,0.90643c0.13508,0.27015 0.32436,0.48165 0.56785,0.6345c0.24349,0.15285 0.51453,0.22927 0.81312,0.22927c0.27726,0 0.57407,-0.0782 0.89044,-0.23461c0.31636,-0.1564 0.59896,-0.36968 0.84778,-0.63983l1.46096,1.56226c-0.43011,0.46566 -0.94553,0.83623 -1.54627,1.11171c-0.60073,0.27548 -1.19436,0.41323 -1.78087,0.41323c-0.77136,0 -1.4654,-0.17062 -2.08213,-0.51187c-0.61673,-0.34125 -1.09927,-0.81223 -1.44763,-1.41297c-0.34835,-0.60073 -0.52253,-1.27611 -0.52253,-2.02614c0,-0.74292 0.17773,-1.40941 0.5332,-1.99948c0.35546,-0.59007 0.84867,-1.05217 1.47962,-1.38631c0.63095,-0.33414 1.34276,-0.5012 2.13545,-0.5012z" data-paper-data="{&quot;glyphName&quot;:&quot;C&quot;,&quot;glyphIndex&quot;:13,&quot;firstGlyphOfWord&quot;:true,&quot;word&quot;:2}" fill="#000000"/><path d="M395.79365,265.56121c0.79979,0 1.5205,0.16707 2.16211,0.5012c0.64161,0.33414 1.14282,0.79802 1.50361,1.39164c0.3608,0.59362 0.54119,1.2619 0.54119,2.00482c0,0.75003 -0.1804,1.42363 -0.54119,2.02081c-0.3608,0.59718 -0.862,1.06639 -1.50361,1.40764c-0.64161,0.34125 -1.36231,0.51187 -2.16211,0.51187c-0.79979,0 -1.5205,-0.16885 -2.16211,-0.50654c-0.64161,-0.33769 -1.14193,-0.8069 -1.50095,-1.40764c-0.35902,-0.60073 -0.53853,-1.27611 -0.53853,-2.02614c0,-0.75003 0.17951,-1.42008 0.53853,-2.01015c0.35902,-0.59007 0.85933,-1.05217 1.50095,-1.38631c0.64161,-0.33414 1.36231,-0.5012 2.16211,-0.5012zM395.82564,267.66733c-0.29148,0 -0.56252,0.0782 -0.81312,0.23461c-0.2506,0.1564 -0.45055,0.37146 -0.59985,0.64517c-0.14929,0.27371 -0.22394,0.58118 -0.22394,0.92243c0,0.34125 0.07465,0.6505 0.22394,0.92776c0.14929,0.27726 0.34924,0.49587 0.59985,0.65583c0.2506,0.15996 0.52164,0.23994 0.81312,0.23994c0.29148,0 0.55719,-0.07998 0.79713,-0.23994c0.23994,-0.15996 0.42922,-0.37857 0.56785,-0.65583c0.13863,-0.27726 0.20795,-0.58652 0.20795,-0.92776c0,-0.34125 -0.06932,-0.64872 -0.20795,-0.92243c-0.13863,-0.27371 -0.32792,-0.48876 -0.56785,-0.64517c-0.23994,-0.1564 -0.50565,-0.23461 -0.79713,-0.23461z" data-paper-data="{&quot;glyphName&quot;:&quot;O&quot;,&quot;glyphIndex&quot;:14,&quot;word&quot;:2}" fill="#000000"/><path d="M412.41176,273.29254v-4.19092l-1.31166,3.44978h-1.65824l-1.31166,-3.44978v4.19092h-2.20743v-7.65669h2.67664l1.67423,3.99897l1.6689,-3.99897h2.67664v7.65669z" data-paper-data="{&quot;glyphName&quot;:&quot;M&quot;,&quot;glyphIndex&quot;:15,&quot;word&quot;:2}" fill="#000000"/><path d="M423.3272,267.56069v0.93842h3.57774v1.9195h-3.57774v0.95442h4.03629v1.9195h-6.5743v-7.65669h6.47833v1.92484z" data-paper-data="{&quot;glyphName&quot;:&quot;E&quot;,&quot;glyphIndex&quot;:16,&quot;word&quot;:2}" fill="#000000"/><path d="M436.67691,271.30372h-0.94909v1.98882h-2.53801v-7.65669h3.70571c1.04151,0 1.84575,0.23905 2.41271,0.71715c0.56696,0.4781 0.85045,1.15259 0.85045,2.02348c0,0.55452 -0.10397,1.03707 -0.31192,1.44763c-0.20795,0.41056 -0.50742,0.7367 -0.89843,0.97841l1.50361,2.49002h-2.85793zM436.89552,269.38422c0.27726,0 0.48965,-0.08176 0.63717,-0.24527c0.14752,-0.16351 0.22128,-0.39101 0.22128,-0.68249c0,-0.28437 -0.07465,-0.50476 -0.22394,-0.66116c-0.14929,-0.1564 -0.3608,-0.23461 -0.6345,-0.23461h-1.1677v1.82353z" data-paper-data="{&quot;glyphName&quot;:&quot;R&quot;,&quot;glyphIndex&quot;:17,&quot;word&quot;:2}" fill="#000000"/><path d="M449.66588,265.56121c0.58296,0 1.16948,0.12708 1.75955,0.38123c0.59007,0.25416 1.08061,0.59274 1.47162,1.01574l-1.46096,1.73822c-0.22394,-0.31281 -0.49498,-0.56252 -0.81312,-0.74914c-0.31814,-0.18662 -0.6265,-0.27993 -0.92509,-0.27993c-0.45855,0 -0.83712,0.1644 -1.13571,0.49321c-0.29859,0.3288 -0.44788,0.74736 -0.44788,1.25568c0,0.33414 0.06754,0.63628 0.20261,0.90643c0.13508,0.27015 0.32436,0.48165 0.56785,0.6345c0.24349,0.15285 0.51453,0.22927 0.81312,0.22927c0.27726,0 0.57407,-0.0782 0.89044,-0.23461c0.31636,-0.1564 0.59896,-0.36968 0.84778,-0.63983l1.46096,1.56226c-0.43011,0.46566 -0.94553,0.83623 -1.54627,1.11171c-0.60073,0.27548 -1.19436,0.41323 -1.78087,0.41323c-0.77136,0 -1.4654,-0.17062 -2.08213,-0.51187c-0.61673,-0.34125 -1.09927,-0.81223 -1.44763,-1.41297c-0.34835,-0.60073 -0.52253,-1.27611 -0.52253,-2.02614c0,-0.74292 0.17773,-1.40941 0.5332,-1.99948c0.35546,-0.59007 0.84867,-1.05217 1.47962,-1.38631c0.63095,-0.33414 1.34276,-0.5012 2.13545,-0.5012z" data-paper-data="{&quot;glyphName&quot;:&quot;C&quot;,&quot;glyphIndex&quot;:18,&quot;word&quot;:2}" fill="#000000"/><path d="M457.66098,273.29254v-7.65669h2.53801v7.65669z" data-paper-data="{&quot;glyphName&quot;:&quot;I&quot;,&quot;glyphIndex&quot;:19,&quot;word&quot;:2}"/><path d="M468.05314,272.21016l-0.39456,1.08239h-2.59666l3.23117,-7.65669h2.59666l3.11386,7.65669h-2.69797l-0.3839,-1.08239zM469.5141,268.15787l-0.80513,2.23942h1.59426z" data-paper-data="{&quot;glyphName&quot;:&quot;A&quot;,&quot;glyphIndex&quot;:20,&quot;word&quot;:2}" fill="#000000"/><path d="M485,271.18642v2.10612h-5.72652v-7.65669h2.53801v5.55057z" data-paper-data="{&quot;glyphName&quot;:&quot;L&quot;,&quot;glyphIndex&quot;:21,&quot;lastGlyphOfWord&quot;:true,&quot;word&quot;:2}" fill="#000000"/></g><g data-paper-data="{&quot;isPrimaryText&quot;:true}" fill="#ffc600" fill-rule="nonzero"><path d="M249.81899,197.22258v10.10361h-23.23831v13.21242h17.7979v9.71501h-17.7979v13.48444h23.23831v10.10361h-36.45073v-56.61909z" data-paper-data="{&quot;glyphName&quot;:&quot;E&quot;,&quot;glyphIndex&quot;:0,&quot;firstGlyphOfWord&quot;:true,&quot;word&quot;:1}" fill="#007398"/><path d="M270.41481,243.34946h20.98443v10.49221h-34.11912v-56.61909h13.1347z" data-paper-data="{&quot;glyphName&quot;:&quot;L&quot;,&quot;glyphIndex&quot;:1,&quot;word&quot;:1}" fill="#007398"/><path d="M311.99506,253.84167h-13.21242v-56.61909h13.21242z" data-paper-data="{&quot;glyphName&quot;:&quot;I&quot;,&quot;glyphIndex&quot;:2,&quot;word&quot;:1}" fill="#007398"/><path d="M329.40437,197.22258c0.56995,0 1.04922,0.02591 1.43782,0.07772c0.3886,0.05181 0.73834,0.14896 1.04922,0.29145c0.31088,0.14249 0.60881,0.34326 0.89378,0.60233c0.28497,0.25907 0.60881,0.60881 0.9715,1.04922l26.89115,34.00254c-0.10363,-1.08808 -0.18135,-2.14378 -0.23316,-3.16709c-0.05181,-1.02331 -0.07772,-1.98834 -0.07772,-2.89507v-29.9611h11.58029v56.61909h-6.83937c-1.01036,0 -1.86528,-0.15544 -2.56476,-0.46632c-0.69948,-0.31088 -1.37306,-0.88083 -2.02072,-1.70984l-26.69685,-33.73052c0.07772,0.98445 0.14249,1.94948 0.1943,2.89507c0.05181,0.94559 0.07772,1.8329 0.07772,2.66191v30.3497h-11.58029v-56.61909z" data-paper-data="{&quot;glyphName&quot;:&quot;N&quot;,&quot;glyphIndex&quot;:3,&quot;word&quot;:1}" fill="#007398"/><path d="M419.28766,239.19143c0.31088,0 0.62176,0.05829 0.93264,0.17487c0.31088,0.11658 0.60881,0.31736 0.89378,0.60233l5.20725,5.47927c-2.27979,2.97927 -5.136,5.22668 -8.56864,6.74222c-3.43264,1.51554 -7.49351,2.27331 -12.18263,2.27331c-4.30051,0 -8.15413,-0.73186 -11.56086,-2.19559c-3.40673,-1.46373 -6.29533,-3.48445 -8.66579,-6.06217c-2.37046,-2.57772 -4.19041,-5.63471 -5.45984,-9.17097c-1.26943,-3.53626 -1.90414,-7.37693 -1.90414,-11.522c0,-4.22279 0.72539,-8.10232 2.17616,-11.63858c1.45078,-3.53626 3.47797,-6.58678 6.0816,-9.15154c2.60362,-2.56476 5.7189,-4.55958 9.34584,-5.98445c3.62694,-1.42487 7.62952,-2.1373 12.00775,-2.1373c2.12435,0 4.12564,0.18782 6.00388,0.56347c1.87824,0.37565 3.63341,0.89378 5.26554,1.5544c1.63212,0.66062 3.13471,1.45078 4.50777,2.37046c1.37306,0.91969 2.59067,1.93653 3.65284,3.05051l-4.43005,5.94559c-0.28497,0.36269 -0.62176,0.693 -1.01036,0.99093c-0.3886,0.29793 -0.93264,0.44689 -1.63212,0.44689c-0.46632,0 -0.90673,-0.10363 -1.32124,-0.31088c-0.41451,-0.20725 -0.85492,-0.45984 -1.32124,-0.75777c-0.46632,-0.29793 -0.97798,-0.62176 -1.53497,-0.9715c-0.55699,-0.34974 -1.21761,-0.67357 -1.98186,-0.9715c-0.76425,-0.29793 -1.65803,-0.55052 -2.68134,-0.75777c-1.02331,-0.20725 -2.2215,-0.31088 -3.59455,-0.31088c-2.38342,0 -4.55958,0.42098 -6.52849,1.26295c-1.96891,0.84197 -3.65932,2.04663 -5.07124,3.61398c-1.41192,1.56736 -2.51295,3.46502 -3.3031,5.693c-0.79015,2.22798 -1.18523,4.72797 -1.18523,7.49999c0,2.90155 0.39508,5.47927 1.18523,7.73315c0.79015,2.25388 1.86528,4.15155 3.22538,5.693c1.3601,1.54145 2.94689,2.71373 4.76036,3.51683c1.81347,0.80311 3.75647,1.20466 5.82901,1.20466c1.19171,0 2.27979,-0.05829 3.26424,-0.17487c0.98445,-0.11658 1.89767,-0.31736 2.73963,-0.60233c0.84197,-0.28497 1.64508,-0.65414 2.40932,-1.10751c0.76425,-0.45337 1.53497,-1.01684 2.31217,-1.69041c0.31088,-0.25907 0.64767,-0.4728 1.01036,-0.64119c0.36269,-0.16839 0.73834,-0.25259 1.12694,-0.25259z" data-paper-data="{&quot;glyphName&quot;:&quot;C&quot;,&quot;glyphIndex&quot;:4,&quot;word&quot;:1}" fill="#007398"/><path d="M485,253.84167h-10.18133c-1.13989,0 -2.07901,-0.26554 -2.81735,-0.79663c-0.73834,-0.53109 -1.25,-1.21114 -1.53497,-2.04015l-3.34196,-9.87045h-21.52847l-3.34196,9.87045c-0.25907,0.72539 -0.76425,1.37953 -1.51554,1.96243c-0.75129,0.5829 -1.67098,0.87435 -2.75906,0.87435h-10.25905l21.91707,-56.61909h13.44558zM448.62699,232.19662h15.4663l-5.20725,-15.50516c-0.33679,-0.98445 -0.73186,-2.14378 -1.18523,-3.47797c-0.45337,-1.33419 -0.90026,-2.77849 -1.34067,-4.3329c-0.41451,1.58031 -0.84197,3.04404 -1.28238,4.39119c-0.44041,1.34715 -0.85492,2.51295 -1.24352,3.4974z" data-paper-data="{&quot;glyphName&quot;:&quot;A&quot;,&quot;glyphIndex&quot;:5,&quot;lastGlyphOfWord&quot;:true,&quot;word&quot;:1}" fill="#007398"/></g><g data-paper-data="{&quot;fillRule&quot;:&quot;nonzero&quot;,&quot;fillRuleOriginal&quot;:&quot;nonzero&quot;,&quot;isIcon&quot;:true,&quot;iconStyle&quot;:&quot;standalone&quot;,&quot;selectedEffects&quot;:{&quot;container&quot;:&quot;&quot;,&quot;transformation&quot;:&quot;&quot;,&quot;pattern&quot;:&quot;&quot;},&quot;bounds&quot;:{&quot;x&quot;:64.99999999999997,&quot;y&quot;:183.80108902221482,&quot;width&quot;:100.89687475639292,&quot;height&quot;:102.39787289319926},&quot;iconType&quot;:&quot;initial&quot;,&quot;initialText&quot;:&quot;El&quot;,&quot;rawInitialId&quot;:&quot;467&quot;,&quot;suitableAsStandaloneIcon&quot;:true}" fill-rule="evenodd"><g data-paper-data="{&quot;isPathIcon&quot;:true}"><path d="M85.67967,183.80109h-20.67967v102.39787h20.67967z" fill="#000000"/><path d="M108.69395,186.80309c-1.89,2.001 -2.835,4.39199 -2.835,7.17099c0,2.891 1.001,5.33699 3.002,7.33799c2.001,2.113 4.39199,3.169 7.17099,3.169c2.891,0 5.28099,-1.001 7.17099,-3.002c2.002,-2.113 3.002,-4.50299 3.002,-7.17099v-0.667c0,-2.669 -0.945,-4.89199 -2.835,-6.67099c-2.001,-2.113 -4.44699,-3.169 -7.33799,-3.169c-2.89066,0 -5.33666,1.00067 -7.33799,3.002z" fill="#ce0037"/><path d="M151.38789,280.19497c4.002,4.003 8.83899,6.00399 14.50898,6.00399v-102.39787h-20.51297v81.8849c0,5.66999 2.001,10.50699 6.00399,14.50898z" fill="#000000"/><path d="M113.19694,228.49603c-2.001,-2.001 -4.44699,-3.002 -7.33799,-3.002c-2.891,0 -5.28099,1.001 -7.17109,3.002c-2.0013,2.001 -3.0019,4.33599 -3.0019,7.00399c0,2.78 1.0006,5.16999 3.0019,7.17099c1.8901,2.002 4.28009,3.002 7.17109,3.002c2.78,0 5.16999,-0.945 7.17099,-2.835c2.002,-2.001 3.002,-4.44699 3.002,-7.33799c0,-2.668 -0.945,-5.00299 -2.835,-7.00399z" fill="#007398"/><path d="M116.03194,265.51899c2.89066,0 5.28099,1.05633 7.17099,3.169c2.002,2.001 3.002,4.33599 3.002,7.00399c0,2.891 -1.056,5.28099 -3.168,7.17099c-2.002,2.002 -4.33699,3.002 -7.00499,3.002c-2.891,0 -5.33699,-1 -7.33799,-3.002c-1.89,-2.112 -2.835,-4.50199 -2.835,-7.17099c0,-2.668 1.001,-5.00299 3.002,-7.00399c2.00133,-2.11266 4.39166,-3.169 7.17099,-3.169z" fill="#87be4b"/></g></g><path d="M184.88543,286.19891v-102.39782h2.74126v102.39782z" data-paper-data="{&quot;isShapeTextSeparator&quot;:true}" fill="#000000" fill-rule="nonzero"/></g></g><g class="watermark-group" style="opacity:0.040000010281801224"><path class="watermark-path" d="M129.52,370.3a11.88,11.88,0,0,1,2.58,5.58,12,12,0,0,1,.11,3,11.81,11.81,0,0,1-.64,2.93,12.34,12.34,0,0,1-1.41,2.72,11.65,11.65,0,0,1-2.13,2.32,12,12,0,0,1-2.64,1.69,13,13,0,0,1-2.91.9,12.47,12.47,0,0,1-3,.12,12.17,12.17,0,0,1-2.93-.64,11.8,11.8,0,0,1-2.72-1.38,12.19,12.19,0,0,1-4-4.79,11.85,11.85,0,0,1-.89-2.92,12.14,12.14,0,0,1-.13-3,11.54,11.54,0,0,1,.64-2.92,11.67,11.67,0,0,1,3.5-5,11.44,11.44,0,0,1,2.67-1.69,11.64,11.64,0,0,1,2.92-.91,10.71,10.71,0,0,1,3-.12,11.68,11.68,0,0,1,5.66,2,11.7,11.7,0,0,1,2.34,2.12m-1.4,8.76a13,13,0,0,1-1.22,2.32,9.68,9.68,0,0,1-1.81,2,7.44,7.44,0,0,1-2.38,1.37,6.17,6.17,0,0,1-5.11-.46,8.73,8.73,0,0,1-3.85-4.58,6.69,6.69,0,0,1-.34-2.66,6.09,6.09,0,0,1,.77-2.47,7.15,7.15,0,0,1,1.75-2.11,9.58,9.58,0,0,1,1.09-.81,8.23,8.23,0,0,1,1.12-.63,8.14,8.14,0,0,1,1.19-.46,12.71,12.71,0,0,1,1.32-.37l2,2.38a12.83,12.83,0,0,0-1.56.17,7.86,7.86,0,0,0-1.23.32,4.5,4.5,0,0,0-1,.49,6.41,6.41,0,0,0-.93.67,4.49,4.49,0,0,0-1.15,1.39,3.87,3.87,0,0,0-.45,1.58,4.12,4.12,0,0,0,.26,1.63,6.11,6.11,0,0,0,2.36,2.82,4.43,4.43,0,0,0,1.57.53,3.91,3.91,0,0,0,1.62-.17,4.71,4.71,0,0,0,1.57-.89,10.5,10.5,0,0,0,.83-.79,5.71,5.71,0,0,0,.65-.93,10.13,10.13,0,0,0,.54-1.14,12.24,12.24,0,0,0,.44-1.49l2,2.33m-14.46,4.55a8.86,8.86,0,0,0,2.78,2.22,9,9,0,0,0,3.29.94,9.15,9.15,0,0,0,3.39-.37,8.68,8.68,0,0,0,3.11-1.69,8.8,8.8,0,0,0,2.22-2.78,9.15,9.15,0,0,0,1-3.29,8.95,8.95,0,0,0-4.83-8.76,9,9,0,0,0-6.73-.57,9,9,0,0,0-5.33,4.47,8.94,8.94,0,0,0-.57,6.71,8.76,8.76,0,0,0,1.7,3.12"/><path class="watermark-path" d="M147,349c-.48.12-1.09.31-1.82.57a24.37,24.37,0,0,0-2.4,1A28.35,28.35,0,0,0,140,352a20.72,20.72,0,0,0-2.71,1.94c-.7.59-1.28,1.11-1.74,1.57a15.07,15.07,0,0,0-1.1,1.22,4.09,4.09,0,0,0-.59.92,2.32,2.32,0,0,0-.22.64,1.16,1.16,0,0,0,0,.47,1.83,1.83,0,0,0,.18.29,1.15,1.15,0,0,0,1,.37,5.54,5.54,0,0,0,1.51-.38q.87-.35,1.95-.9l2.26-1.18q1.2-.65,2.49-1.29c.87-.44,1.73-.83,2.59-1.17a18.94,18.94,0,0,1,2.6-.81,9.27,9.27,0,0,1,2.46-.29,6.25,6.25,0,0,1,2.24.49,5.12,5.12,0,0,1,1.89,1.47,6.35,6.35,0,0,1,1.41,2.61,6,6,0,0,1,.09,2.6,8.3,8.3,0,0,1-.9,2.52,17.79,17.79,0,0,1-1.62,2.37,23.92,23.92,0,0,1-2,2.15c-.72.67-1.41,1.29-2.09,1.87a33.79,33.79,0,0,1-5.33,3.7,32.29,32.29,0,0,1-4.91,2.28l-3.61-4.3a21.38,21.38,0,0,0,5.39-1.87,27.2,27.2,0,0,0,5.4-3.56,21.59,21.59,0,0,0,2.38-2.27,8.67,8.67,0,0,0,1.18-1.7,2.32,2.32,0,0,0,.27-1.19,1.34,1.34,0,0,0-.28-.74,1.21,1.21,0,0,0-1-.42,4.32,4.32,0,0,0-1.55.34,15.77,15.77,0,0,0-2,.88c-.72.37-1.48.77-2.27,1.21l-2.45,1.3c-.85.45-1.7.85-2.56,1.21a22.37,22.37,0,0,1-2.54.86,10,10,0,0,1-2.43.32,5.76,5.76,0,0,1-2.2-.45,5,5,0,0,1-1.89-1.45,6.12,6.12,0,0,1-1.31-2.41,6,6,0,0,1-.1-2.41,8.28,8.28,0,0,1,.81-2.38,14.06,14.06,0,0,1,1.49-2.24,22.37,22.37,0,0,1,1.85-2.05q1-1,2-1.77c.7-.59,1.44-1.15,2.23-1.7s1.62-1.06,2.44-1.53,1.63-.91,2.43-1.3,1.58-.75,2.3-1L147,349"/><path class="watermark-path" d="M186.76,337.57l-10.6-12.63,3.92,18.24-4.66,3.91-17.27-7,10.6,12.63-4.86,4.07-15.09-18,6.59-5.54,18.69,7.52-4.15-19.71,6.57-5.52,15.09,18-4.83,4.05"/><path class="watermark-path" d="M208.84,313.24l-10,8.42,1.16,4.82L194.56,331l-5.68-25.89,5.42-4.55,24.51,10.09-5.42,4.55-4.55-2m-11.23,3.45,6.57-5.52-8.83-3.87,2.26,9.39"/><path class="watermark-path" d="M227.49,281.38c-.48.12-1.09.31-1.82.57a24.37,24.37,0,0,0-2.4,1,26.11,26.11,0,0,0-2.7,1.47,20.72,20.72,0,0,0-2.71,1.94c-.7.59-1.28,1.11-1.74,1.57a13.39,13.39,0,0,0-1.1,1.22,4.29,4.29,0,0,0-.59.91,2.48,2.48,0,0,0-.22.65,1.16,1.16,0,0,0,0,.47,1.83,1.83,0,0,0,.18.29,1.15,1.15,0,0,0,1,.37,5.54,5.54,0,0,0,1.51-.38q.87-.34,2-.9l2.26-1.18q1.2-.64,2.49-1.29c.87-.44,1.73-.83,2.59-1.17a18.94,18.94,0,0,1,2.6-.81,9.27,9.27,0,0,1,2.46-.29,6.08,6.08,0,0,1,2.24.49,5.09,5.09,0,0,1,1.89,1.46,6.47,6.47,0,0,1,1.41,2.61,6.07,6.07,0,0,1,.09,2.61,8.3,8.3,0,0,1-.9,2.52,16.32,16.32,0,0,1-1.63,2.36,21.41,21.41,0,0,1-2,2.16c-.72.67-1.41,1.29-2.1,1.86a33.36,33.36,0,0,1-5.32,3.71,31.92,31.92,0,0,1-4.92,2.28l-3.6-4.3a21.38,21.38,0,0,0,5.39-1.87,27.2,27.2,0,0,0,5.4-3.56,21.59,21.59,0,0,0,2.38-2.27,8.67,8.67,0,0,0,1.18-1.7A2.32,2.32,0,0,0,231,293a1.34,1.34,0,0,0-.28-.74,1.21,1.21,0,0,0-1-.42,4.32,4.32,0,0,0-1.55.34,16.54,16.54,0,0,0-2,.88c-.71.37-1.47.77-2.26,1.21l-2.46,1.3c-.84.44-1.7.85-2.55,1.21a24.53,24.53,0,0,1-2.54.86A10,10,0,0,1,214,298a5.76,5.76,0,0,1-2.2-.45,5,5,0,0,1-1.89-1.45,6.12,6.12,0,0,1-1.31-2.41,5.78,5.78,0,0,1-.1-2.41,8,8,0,0,1,.81-2.38,14.61,14.61,0,0,1,1.49-2.25,22.26,22.26,0,0,1,1.85-2q1-1,2-1.77c.7-.59,1.44-1.15,2.23-1.7s1.62-1.06,2.44-1.53,1.63-.91,2.43-1.31,1.58-.74,2.3-1l3.5,4.16"/><path class="watermark-path" d="M261.64,274.74l-6.29-7.5L243,277.61l6.3,7.5-4.86,4.07-15.09-18,4.85-4.08,5.49,6.55L252,263.3l-5.49-6.55,4.86-4.07,15.09,18-4.86,4.08"/><path class="watermark-path" d="M272.18,265.9l-15.09-18,4.86-4.08,15.09,18-4.86,4.08"/><path class="watermark-path" d="M299.65,242.85l-22.51-2.18L287.51,253l-4.85,4.08-15.1-18,5.28-4.43,22.56,2.22L285,224.5l4.83-4.06,15.09,18-5.26,4.42"/><path class="watermark-path" d="M306.68,205.52a31.88,31.88,0,0,1,5.29-3.66,34.48,34.48,0,0,1,5.14-2.35l3.69,4.39a20.77,20.77,0,0,0-2.37.61,20.47,20.47,0,0,0-2.61,1,25.12,25.12,0,0,0-2.76,1.49,23.9,23.9,0,0,0-2.8,2,20.42,20.42,0,0,0-2.8,2.77,12.77,12.77,0,0,0-1.64,2.52,7,7,0,0,0-.68,2.24,6,6,0,0,0,.66,3.64,8.16,8.16,0,0,0,.94,1.38,9.12,9.12,0,0,0,1.08,1.07,6.39,6.39,0,0,0,1.47.91,6.73,6.73,0,0,0,1.88.48,6.54,6.54,0,0,0,2.28-.18,11.67,11.67,0,0,0,2.74-1.07,19.38,19.38,0,0,0,3.18-2.22c.57-.48,1.06-.92,1.46-1.31a14.57,14.57,0,0,0,1-1.13,11.46,11.46,0,0,0,.81-1.05l.74-1.09-1.82-2.17-5.45,4.57-3.31-3.94,10.31-8.65,7.71,9.19a29,29,0,0,1-1.67,2.43q-1,1.26-2.1,2.52c-.74.84-1.5,1.65-2.3,2.44s-1.58,1.5-2.33,2.14a31,31,0,0,1-3.59,2.61,22.55,22.55,0,0,1-3.64,1.83,15.64,15.64,0,0,1-3.63.89,10.72,10.72,0,0,1-3.49-.15,10.45,10.45,0,0,1-3.28-1.33,12.54,12.54,0,0,1-3-2.67,12,12,0,0,1-2.08-3.44,10.45,10.45,0,0,1-.71-3.5,11.14,11.14,0,0,1,.51-3.51,15.72,15.72,0,0,1,1.56-3.43,21.62,21.62,0,0,1,2.42-3.28,30.3,30.3,0,0,1,3.15-3"/><path class="watermark-path" d="M336.91,211.59l-15.1-18,4.86-4.08,11.79,14,13.13-11,3.31,3.94-18,15.1"/><path class="watermark-path" d="M374.54,164.71a12.28,12.28,0,0,1,2.59,4.81,10.44,10.44,0,0,1,0,5,14.62,14.62,0,0,1-2.33,5,25.55,25.55,0,0,1-4.56,4.85,26.07,26.07,0,0,1-5.6,3.67,14.79,14.79,0,0,1-5.38,1.43,10.43,10.43,0,0,1-4.94-.89,13.24,13.24,0,0,1-6.87-8.18,10.48,10.48,0,0,1,0-5,14.51,14.51,0,0,1,2.36-5,25.23,25.23,0,0,1,4.57-4.89,25,25,0,0,1,5.59-3.64,14.45,14.45,0,0,1,5.35-1.43,10.31,10.31,0,0,1,4.93.92,12.22,12.22,0,0,1,4.28,3.38m-4.91,4.11a8.36,8.36,0,0,0-2-1.72,5.5,5.5,0,0,0-2.65-.85,7.72,7.72,0,0,0-3.32.57,14.49,14.49,0,0,0-4,2.52,16.72,16.72,0,0,0-2.38,2.4,10.15,10.15,0,0,0-1.39,2.24,6.71,6.71,0,0,0-.56,2.1,5.69,5.69,0,0,0,.1,1.9,6.21,6.21,0,0,0,.61,1.69,9.85,9.85,0,0,0,1,1.44,10.48,10.48,0,0,0,1.26,1.23,6.67,6.67,0,0,0,1.57.92,6.1,6.1,0,0,0,1.85.41,6.8,6.8,0,0,0,2.15-.2,11.06,11.06,0,0,0,2.45-1,17.67,17.67,0,0,0,2.77-1.94,14.39,14.39,0,0,0,3.18-3.52,7.74,7.74,0,0,0,1.14-3.17,5.54,5.54,0,0,0-.37-2.74,8.52,8.52,0,0,0-1.36-2.3"/><path class="watermark-path" d="M382.66,141.76A32.3,32.3,0,0,1,388,138.1a34.12,34.12,0,0,1,5.15-2.35l3.69,4.4a19.62,19.62,0,0,0-2.37.6,22.08,22.08,0,0,0-2.61,1,26,26,0,0,0-2.77,1.49,23.9,23.9,0,0,0-2.8,2,21,21,0,0,0-2.8,2.78,13.19,13.19,0,0,0-1.64,2.51,7.29,7.29,0,0,0-.68,2.24,6.36,6.36,0,0,0,.06,2,5.8,5.8,0,0,0,.61,1.68,8.12,8.12,0,0,0,.93,1.38,9.16,9.16,0,0,0,1.08,1.08,6.56,6.56,0,0,0,1.48.9,6,6,0,0,0,1.87.48,6.76,6.76,0,0,0,2.28-.17,12,12,0,0,0,2.74-1.08,18.57,18.57,0,0,0,3.18-2.22c.58-.48,1.06-.92,1.46-1.31s.75-.77,1.05-1.12.57-.72.81-1.06l.73-1.09-1.82-2.17-5.45,4.57-3.3-3.94,10.3-8.65,7.71,9.19a29,29,0,0,1-1.67,2.43q-1,1.26-2.1,2.52c-.73.84-1.5,1.66-2.3,2.44s-1.57,1.5-2.33,2.14a31,31,0,0,1-3.59,2.61,22.15,22.15,0,0,1-3.64,1.83,15.56,15.56,0,0,1-3.62.89,11,11,0,0,1-3.49-.14,10.84,10.84,0,0,1-3.28-1.33,12.82,12.82,0,0,1-3-2.68,12.12,12.12,0,0,1-2.08-3.43A10.71,10.71,0,0,1,375,155a11.18,11.18,0,0,1,.51-3.51,15.51,15.51,0,0,1,1.57-3.43,21.44,21.44,0,0,1,2.42-3.28,30.19,30.19,0,0,1,3.14-3"/><path class="watermark-path" d="M428.63,119.31a12.26,12.26,0,0,1,2.59,4.82,10.44,10.44,0,0,1,0,5,14.53,14.53,0,0,1-2.34,5,25.29,25.29,0,0,1-4.56,4.86,26,26,0,0,1-5.59,3.67,14.84,14.84,0,0,1-5.38,1.43,10.61,10.61,0,0,1-4.95-.89,12.15,12.15,0,0,1-4.3-3.37,12,12,0,0,1-2.56-4.81,10.48,10.48,0,0,1,0-5,14.39,14.39,0,0,1,2.35-5,27.89,27.89,0,0,1,10.16-8.53,14.49,14.49,0,0,1,5.36-1.43,10.27,10.27,0,0,1,4.92.92,12.21,12.21,0,0,1,4.28,3.37m-4.91,4.12a8.17,8.17,0,0,0-2-1.72,5.58,5.58,0,0,0-2.65-.86,7.86,7.86,0,0,0-3.31.58,14.49,14.49,0,0,0-4,2.52,16.21,16.21,0,0,0-2.38,2.4,9.85,9.85,0,0,0-1.4,2.24,7,7,0,0,0-.56,2.1,6,6,0,0,0,.1,1.9,6.23,6.23,0,0,0,.62,1.69,8.49,8.49,0,0,0,1,1.44,9.18,9.18,0,0,0,1.26,1.23,6.67,6.67,0,0,0,1.57.92,6,6,0,0,0,1.84.41,6.86,6.86,0,0,0,2.16-.2,11.26,11.26,0,0,0,2.45-1,17.62,17.62,0,0,0,2.76-1.94,14.67,14.67,0,0,0,3.19-3.52,7.71,7.71,0,0,0,1.13-3.17,5.53,5.53,0,0,0-.36-2.74,8.55,8.55,0,0,0-1.37-2.3"/></g></svg>