<svg xmlns="http://www.w3.org/2000/svg" class="svg-bc-right-top" viewBox="188.3925659118625 152.0936509464984 173.214868176275 94.05447141369268" preserveAspectRatio="none" style="transform: translateZ(100px) translate(-50%, -50%); width: 52%; left: 50%; top: 50%;"><g data-paper-data="{&quot;fillRule&quot;:&quot;evenodd&quot;,&quot;isIcon&quot;:&quot;true&quot;,&quot;iconStyle&quot;:&quot;standalone&quot;,&quot;selectedEffects&quot;:{&quot;container&quot;:&quot;&quot;,&quot;transformation&quot;:&quot;&quot;,&quot;pattern&quot;:&quot;&quot;},&quot;bounds&quot;:{&quot;x&quot;:188.3925659118625,&quot;y&quot;:152.0936509464984,&quot;width&quot;:173.214868176275,&quot;height&quot;:94.05447141369268},&quot;iconType&quot;:&quot;initial&quot;,&quot;initialText&quot;:&quot;SEl&quot;,&quot;rawInitialId&quot;:&quot;796&quot;,&quot;suitableAsStandaloneIcon&quot;:true}" fill-rule="evenodd"><g data-paper-data="{&quot;isPathIcon&quot;:true}"><path d="M220.17373,152.09365c-2.42401,0 -4.57402,0.156 -6.45003,0.469c-6.41137,0.938 -11.78639,3.08802 -16.12508,6.45003c-4.34002,3.36202 -7.17404,7.58404 -8.50304,12.66606c-0.469,1.64101 -0.703,3.63502 -0.703,5.98103c0,3.20502 0.351,5.86303 1.05501,7.97404c1.95468,6.1767 6.1767,10.94605 12.66606,14.30807c4.37802,2.34501 10.98406,4.26102 19.8191,5.74603c6.80203,1.17301 11.74706,2.38501 14.83507,3.63602c3.08902,1.25101 5.45403,3.04902 7.09604,5.39403c1.09401,1.56401 1.64101,3.36202 1.64101,5.39503c0,4.06602 -1.68101,7.23204 -5.04203,9.49905c-1.64201,1.09501 -3.18602,1.83801 -4.63302,2.22901c-1.44601,0.39 -3.77202,0.664 -6.97803,0.82c-0.312,0 -0.742,0.02 -1.29001,0.059c-0.547,0.039 -0.938,0.059 -1.17201,0.059c-4.53502,0 -8.87404,-1.05601 -13.01807,-3.16702c-1.87601,-0.938 -3.92902,-2.44301 -6.15703,-4.51502c-2.22801,-2.07201 -3.73302,-3.88902 -4.51502,-5.45303c-0.86,-1.48601 -1.40701,-2.22801 -1.64201,-2.22801l-3.16602,1.87601c-2.11101,1.25101 -4.22202,2.60001 -6.33303,4.04602c-2.11101,1.44601 -3.16602,2.36501 -3.16602,2.75601c0,0.391 0.508,1.40701 1.52401,3.04902c1.01701,1.64201 2.03301,3.04902 3.04902,4.22202c2.73701,3.20602 6.25503,5.86403 10.55505,7.97504c1.01601,0.547 2.89301,1.27001 5.62903,2.16901c2.73701,0.899 4.76902,1.50501 6.09803,1.81801c2.81501,0.547 6.52903,0.821 11.14206,0.821c6.3327,0 11.21906,-0.469 14.65907,-1.40701c3.36202,-0.938 6.47003,-2.38501 9.32305,-4.33902c2.85401,-1.95468 5.02369,-4.10502 6.50903,-6.45103c2.50201,-3.83102 3.75302,-8.63904 3.75302,-14.42407c0,-8.05304 -2.69801,-14.54207 -8.09204,-19.4681c-5.31703,-4.84702 -14.03407,-8.17004 -26.15213,-9.96805c-7.74071,-1.09467 -13.37007,-2.71701 -16.88808,-4.86702c-3.51802,-2.15001 -5.27703,-5.06303 -5.27703,-8.73704c0,-2.81501 1.17201,-5.16003 3.51802,-7.03704c1.56334,-1.32867 3.26368,-2.22768 5.10103,-2.69701c1.83801,-0.469 4.59402,-0.704 8.26804,-0.704c4.22202,0 7.74004,0.469 10.55505,1.40801c4.92602,1.64101 9.26505,4.10402 13.01707,7.38804l2.58101,2.22801l1.52401,-1.29001c0.23467,-0.23467 0.645,-0.606 1.23101,-1.11401c0.587,-0.508 1.29001,-1.11401 2.11101,-1.81801l2.05301,-1.75901l3.75302,-3.40102l-1.87701,-1.99301c-3.98735,-4.06602 -9.28438,-7.35004 -15.89108,-9.85205c-6.60603,-2.50135 -13.27107,-3.75202 -19.9951,-3.75202z" fill="#e40046" style="fill: rgb(228, 0, 70);"/><path d="M303.55614,154.08666c-21.57811,0 -32.40716,0.118 -32.48516,0.352c-0.234,0.157 -0.352,2.18901 -0.352,6.09803v5.74703h64.97133v-12.19706z" fill="#4298b5" style="fill: rgb(228, 0, 70);"/><path d="M347.76936,246.03112h13.83807v-91.94446h-13.83807z" fill="#4298b5" style="fill: rgb(228, 0, 70);"/><path d="M271.07098,194.78186c0.15667,-0.15667 6.33337,-0.235 18.53009,-0.235h12.78306l30.96016,0.117v5.51203c0,3.67502 -0.078,5.59003 -0.234,5.74703c-0.079,0.078 -7.93604,0.195 -23.57312,0.352l-23.45512,0.117v26.85613l25.68413,0.117l25.68313,0.235l0.117,6.21503l0.235,6.21603h-67.08234v-25.44913c0,-16.96609 0.118,0 0.352,1z" fill="#4298b5" style="fill: rgb(228, 0, 70);"/></g></g></svg>