<svg xmlns:mydata="http://www.w3.org/2000/svg" mydata:contrastcolor="ecf5f8" mydata:template="Contrast" mydata:presentation="2.5" mydata:layouttype="undefined" mydata:specialfontid="undefined" mydata:id1="575" mydata:id2="125" mydata:companyname="Servicios Elinca" mydata:companytagline="Mantenimiento Integral - Sector Gastronomico" version="1.1" xmlns="http://www.w3.org/2000/svg" xmlns:xlink="http://www.w3.org/1999/xlink" viewBox="0 0 550 470"><g fill="currentColor" fill-rule="none" stroke="none" stroke-width="1" stroke-linecap="butt" stroke-linejoin="miter" stroke-miterlimit="10" stroke-dasharray="" stroke-dashoffset="0" font-family="none" font-weight="none" font-size="none" text-anchor="none" style="mix-blend-mode: normal"><g data-paper-data="{&quot;isGlobalGroup&quot;:true,&quot;bounds&quot;:{&quot;x&quot;:65,&quot;y&quot;:152.0936509464984,&quot;width&quot;:420,&quot;height&quot;:165.81269810700317}}"><g data-paper-data="{&quot;isSecondaryText&quot;:true}" fill="currentColor" fill-rule="nonzero"><path d="M69.76362,317.69319v-4.21682l-1.1492,4.21682h-1.27895l-1.13993,-4.19829v4.19829h-1.19554v-6.15378h1.89062l1.11213,4.51339l1.11213,-4.51339h1.85355v6.15378z" data-paper-data="{&quot;glyphName&quot;:&quot;M&quot;,&quot;glyphIndex&quot;:0,&quot;firstGlyphOfWord&quot;:true,&quot;word&quot;:1}"/><path d="M79.56083,312.92031h-0.00927l-0.78776,2.44668h1.56625zM81.09001,317.69319l-0.38925,-1.26968h-2.2706l-0.43558,1.26968h-1.36236l2.19645,-6.15378h1.49211l2.16865,6.15378z" data-paper-data="{&quot;glyphName&quot;:&quot;A&quot;,&quot;glyphIndex&quot;:1,&quot;word&quot;:1}"/><path d="M91.77465,317.69319l-2.63204,-4.13341v4.13341h-1.19554v-6.15378h1.36236l2.44668,3.95732v-3.95732h1.20481v6.15378z" data-paper-data="{&quot;glyphName&quot;:&quot;N&quot;,&quot;glyphIndex&quot;:2,&quot;word&quot;:1}"/><path d="M100.08796,317.69319v-5.07872h-1.85355v-1.07506h5.00458v1.07506h-1.86282v5.07872z" data-paper-data="{&quot;glyphName&quot;:&quot;T&quot;,&quot;glyphIndex&quot;:3,&quot;word&quot;:1}"/><path d="M108.46497,317.69319v-6.15378h4.52266v1.07506h-3.27151v1.31602h3.01202v1.08433h-3.01202v1.58478h3.4198v1.09359z" data-paper-data="{&quot;glyphName&quot;:&quot;E&quot;,&quot;glyphIndex&quot;:4,&quot;word&quot;:1}"/><path d="M122.12511,317.69319l-2.63204,-4.13341v4.13341h-1.19554v-6.15378h1.36236l2.44668,3.95732v-3.95732h1.20481v6.15378z" data-paper-data="{&quot;glyphName&quot;:&quot;N&quot;,&quot;glyphIndex&quot;:5,&quot;word&quot;:1}"/><path d="M128.0344,317.69319v-6.15378h1.28822v6.15378z" data-paper-data="{&quot;glyphName&quot;:&quot;I&quot;,&quot;glyphIndex&quot;:6,&quot;word&quot;:1}"/><path d="M139.01541,317.69319v-4.21682l-1.1492,4.21682h-1.27895l-1.13993,-4.19829v4.19829h-1.19554v-6.15378h1.89062l1.11213,4.51339l1.11213,-4.51339h1.85355v6.15378z" data-paper-data="{&quot;glyphName&quot;:&quot;M&quot;,&quot;glyphIndex&quot;:7,&quot;word&quot;:1}"/><path d="M145.16266,317.69319v-6.15378h1.28822v6.15378z" data-paper-data="{&quot;glyphName&quot;:&quot;I&quot;,&quot;glyphIndex&quot;:8,&quot;word&quot;:1}"/><path d="M151.09983,317.69319v-6.15378h4.52266v1.07506h-3.27151v1.31602h3.01202v1.08433h-3.01202v1.58478h3.4198v1.09359z" data-paper-data="{&quot;glyphName&quot;:&quot;E&quot;,&quot;glyphIndex&quot;:9,&quot;word&quot;:1}"/><path d="M164.75998,317.69319l-2.63204,-4.13341v4.13341h-1.19554v-6.15378h1.36236l2.44668,3.95732v-3.95732h1.20481v6.15378z" data-paper-data="{&quot;glyphName&quot;:&quot;N&quot;,&quot;glyphIndex&quot;:10,&quot;word&quot;:1}"/><path d="M173.07329,317.69319v-5.07872h-1.85355v-1.07506h5.00458v1.07506h-1.86282v5.07872z" data-paper-data="{&quot;glyphName&quot;:&quot;T&quot;,&quot;glyphIndex&quot;:11,&quot;word&quot;:1}"/><path d="M184.15335,316.80349c0.2286,0 0.44485,-0.0417 0.64874,-0.12511c0.20389,-0.08341 0.38152,-0.21007 0.53289,-0.37998c0.15137,-0.16991 0.27031,-0.3877 0.35681,-0.65338c0.0865,-0.26568 0.12975,-0.58078 0.12975,-0.94531c0,-0.72906 -0.14211,-1.28204 -0.42632,-1.65893c-0.28421,-0.37689 -0.69817,-0.56533 -1.24188,-0.56533c-0.54371,0 -0.96076,0.18844 -1.25114,0.56533c-0.29039,0.37689 -0.43558,0.92986 -0.43558,1.65893c0,0.72906 0.14674,1.26196 0.44022,1.59868c0.29348,0.33673 0.70898,0.50509 1.24651,0.50509zM184.15335,317.90635c-0.95149,0 -1.68209,-0.27803 -2.19182,-0.8341c-0.50973,-0.55606 -0.76459,-1.35618 -0.76459,-2.40034c0,-0.51899 0.06487,-0.98547 0.19462,-1.39943c0.12975,-0.41396 0.32128,-0.76459 0.5746,-1.05189c0.25332,-0.2873 0.56224,-0.50664 0.92677,-0.65801c0.36453,-0.15137 0.78467,-0.22706 1.26041,-0.22706c0.46957,0 0.88816,0.07569 1.25578,0.22706c0.36762,0.15137 0.675,0.37225 0.92214,0.66264c0.24714,0.29039 0.43558,0.64411 0.56533,1.06116c0.12975,0.41705 0.19462,0.88816 0.19462,1.41333c0,1.0627 -0.25177,1.86282 -0.75532,2.40034c-0.50355,0.53753 -1.23106,0.80629 -2.18255,0.80629z" data-paper-data="{&quot;glyphName&quot;:&quot;O&quot;,&quot;glyphIndex&quot;:12,&quot;lastGlyphOfWord&quot;:true,&quot;word&quot;:1}"/><path d="M197.95416,317.69319v-6.15378h1.28822v6.15378z" data-paper-data="{&quot;glyphName&quot;:&quot;I&quot;,&quot;glyphIndex&quot;:13,&quot;firstGlyphOfWord&quot;:true,&quot;word&quot;:2}"/><path d="M207.79296,317.69319l-2.63204,-4.13341v4.13341h-1.19554v-6.15378h1.36236l2.44668,3.95732v-3.95732h1.20481v6.15378z" data-paper-data="{&quot;glyphName&quot;:&quot;N&quot;,&quot;glyphIndex&quot;:14,&quot;word&quot;:2}"/><path d="M216.10628,317.69319v-5.07872h-1.85355v-1.07506h5.00458v1.07506h-1.86282v5.07872z" data-paper-data="{&quot;glyphName&quot;:&quot;T&quot;,&quot;glyphIndex&quot;:15,&quot;word&quot;:2}"/><path d="M224.48329,317.69319v-6.15378h4.52266v1.07506h-3.27151v1.31602h3.01202v1.08433h-3.01202v1.58478h3.4198v1.09359z" data-paper-data="{&quot;glyphName&quot;:&quot;E&quot;,&quot;glyphIndex&quot;:16,&quot;word&quot;:2}"/><path d="M239.02548,317.69319l-0.0278,-0.61167c-0.14828,0.2595 -0.38616,0.46184 -0.71362,0.60704c-0.32746,0.14519 -0.70435,0.21779 -1.13066,0.21779c-0.42632,0 -0.81093,-0.09113 -1.15383,-0.2734c-0.34291,-0.18227 -0.63638,-0.42632 -0.88044,-0.73215c-0.24405,-0.30584 -0.43095,-0.65801 -0.5607,-1.05652c-0.12975,-0.39851 -0.19462,-0.81093 -0.19462,-1.23724c0,-0.45103 0.06487,-0.8758 0.19462,-1.27431c0.12975,-0.39851 0.32128,-0.74605 0.5746,-1.04262c0.25332,-0.29657 0.56842,-0.52981 0.94531,-0.69971c0.37689,-0.16991 0.81556,-0.25486 1.31602,-0.25486c0.36453,0 0.70589,0.05252 1.02409,0.15755c0.31819,0.10503 0.59622,0.25023 0.8341,0.43558c0.23787,0.18535 0.42941,0.40624 0.5746,0.66264c0.14519,0.25641 0.23015,0.53907 0.25486,0.848h-1.29748c-0.01854,-0.14211 -0.06796,-0.27649 -0.14828,-0.40315c-0.08032,-0.12666 -0.18227,-0.23633 -0.30584,-0.329c-0.12357,-0.09268 -0.26722,-0.16682 -0.43095,-0.22243c-0.16373,-0.05561 -0.33209,-0.08341 -0.50509,-0.08341c-0.51899,0 -0.9345,0.19308 -1.24651,0.57923c-0.31201,0.38616 -0.46802,0.94685 -0.46802,1.68209c0,0.25332 0.03244,0.50818 0.09731,0.76459c0.06487,0.25641 0.16682,0.4881 0.30584,0.69508c0.13902,0.20698 0.31665,0.37534 0.53289,0.50509c0.21625,0.12975 0.47265,0.19462 0.76922,0.19462c0.21007,0 0.40624,-0.03707 0.5885,-0.11121c0.18227,-0.07414 0.34136,-0.17609 0.47729,-0.30584c0.13593,-0.12975 0.24251,-0.27958 0.31974,-0.44949c0.07723,-0.16991 0.11585,-0.35063 0.11585,-0.54216h-1.36236v-1.02872h2.56716v3.30858z" data-paper-data="{&quot;glyphName&quot;:&quot;G&quot;,&quot;glyphIndex&quot;:17,&quot;word&quot;:2}"/><path d="M248.09912,312.6052v1.64039h1.61259c0.346,0 0.59005,-0.07723 0.73215,-0.23169c0.14211,-0.15446 0.21316,-0.34908 0.21316,-0.58387c0,-0.24096 -0.06951,-0.43867 -0.20852,-0.59314c-0.13902,-0.15446 -0.36916,-0.23169 -0.69045,-0.23169zM250.43459,317.69319v-1.58478c0,-0.29657 -0.06796,-0.50818 -0.20389,-0.63484c-0.13593,-0.12666 -0.38925,-0.18999 -0.75995,-0.18999h-1.37163v2.40961h-1.25114v-6.15378h3.12323c0.28421,0 0.54216,0.04479 0.77386,0.13438c0.23169,0.08959 0.43095,0.21316 0.59777,0.37071c0.16682,0.15755 0.29502,0.346 0.38461,0.56533c0.08959,0.21934 0.13438,0.45566 0.13438,0.70898c0,0.33364 -0.07878,0.62866 -0.23633,0.88507c-0.15755,0.25641 -0.38461,0.43713 -0.68118,0.54216c0.27185,0.0865 0.46493,0.21934 0.57923,0.39851c0.1143,0.17918 0.17145,0.44794 0.17145,0.80629v1.74233z" data-paper-data="{&quot;glyphName&quot;:&quot;R&quot;,&quot;glyphIndex&quot;:18,&quot;word&quot;:2}"/><path d="M260.06227,312.92031h-0.00927l-0.78776,2.44668h1.56625zM261.59145,317.69319l-0.38925,-1.26968h-2.2706l-0.43558,1.26968h-1.36236l2.19645,-6.15378h1.49211l2.16865,6.15378z" data-paper-data="{&quot;glyphName&quot;:&quot;A&quot;,&quot;glyphIndex&quot;:19,&quot;word&quot;:2}"/><path d="M268.3024,317.69319v-6.15378h1.28822v5.03238h3.04909v1.1214z" data-paper-data="{&quot;glyphName&quot;:&quot;L&quot;,&quot;glyphIndex&quot;:20,&quot;lastGlyphOfWord&quot;:true,&quot;word&quot;:2}"/><path d="M283.11913,315.31138v-0.93604h2.2984v0.93604z" data-paper-data="{&quot;glyphName&quot;:&quot;-&quot;,&quot;glyphIndex&quot;:21,&quot;firstGlyphOfWord&quot;:true,&quot;lastGlyphOfWord&quot;:true,&quot;word&quot;:3}"/><path d="M299.70857,313.35589c-0.03089,-0.3151 -0.14519,-0.54989 -0.34291,-0.70435c-0.19771,-0.15446 -0.49428,-0.23169 -0.8897,-0.23169c-0.72906,0 -1.09359,0.25023 -1.09359,0.75069c0,0.17918 0.07569,0.329 0.22706,0.44949c0.15137,0.12048 0.39388,0.22088 0.72752,0.3012c0.39542,0.09268 0.73833,0.17918 1.02872,0.2595c0.29039,0.08032 0.55606,0.173 0.79703,0.27803c0.13593,0.05561 0.26413,0.12511 0.38461,0.20852c0.12048,0.08341 0.22243,0.1869 0.30584,0.31047c0.08341,0.12357 0.14983,0.27185 0.19926,0.44485c0.04943,0.173 0.07414,0.38307 0.07414,0.63021c0,0.29657 -0.06178,0.55915 -0.18535,0.78776c-0.12357,0.2286 -0.29039,0.42168 -0.50046,0.57923c-0.21007,0.15755 -0.45721,0.27803 -0.74142,0.36144c-0.28421,0.08341 -0.58387,0.12511 -0.89897,0.12511c-0.89588,0 -1.56934,-0.173 -2.02037,-0.51899c-0.45103,-0.346 -0.6889,-0.85881 -0.71362,-1.53844h1.24188c0.00618,0.3151 0.13438,0.56379 0.38461,0.74605c0.25023,0.18227 0.56379,0.2734 0.94068,0.2734c0.40778,0 0.71671,-0.07414 0.92677,-0.22243c0.21007,-0.14828 0.3151,-0.34908 0.3151,-0.6024c0,-0.09886 -0.01236,-0.18999 -0.03707,-0.2734c-0.02471,-0.08341 -0.0726,-0.1591 -0.14365,-0.22706c-0.07105,-0.06796 -0.16836,-0.1282 -0.29193,-0.18072c-0.12357,-0.05252 -0.28421,-0.1004 -0.48192,-0.14365c-0.46957,-0.09886 -0.8758,-0.19926 -1.21871,-0.3012c-0.34291,-0.10195 -0.62557,-0.2286 -0.848,-0.37998c-0.22243,-0.15137 -0.38616,-0.33518 -0.49119,-0.55143c-0.10503,-0.21625 -0.15755,-0.49119 -0.15755,-0.82483c0,-0.25332 0.04634,-0.49119 0.13902,-0.71362c0.09268,-0.22243 0.23478,-0.4155 0.42632,-0.57923c0.19153,-0.16373 0.42786,-0.29348 0.70898,-0.38925c0.28112,-0.09577 0.61322,-0.14365 0.99628,-0.14365c0.37071,0 0.70435,0.04788 1.00092,0.14365c0.29657,0.09577 0.55143,0.23169 0.76459,0.40778c0.21316,0.17609 0.37843,0.38925 0.49582,0.63947c0.11739,0.25023 0.18227,0.52672 0.19462,0.82946z" data-paper-data="{&quot;glyphName&quot;:&quot;S&quot;,&quot;glyphIndex&quot;:22,&quot;firstGlyphOfWord&quot;:true,&quot;word&quot;:4}"/><path d="M306.37779,317.69319v-6.15378h4.52266v1.07506h-3.27151v1.31602h3.01202v1.08433h-3.01202v1.58478h3.4198v1.09359z" data-paper-data="{&quot;glyphName&quot;:&quot;E&quot;,&quot;glyphIndex&quot;:23,&quot;word&quot;:4}"/><path d="M321.70404,315.58015c-0.06796,0.35217 -0.17609,0.67037 -0.32437,0.95458c-0.14828,0.28421 -0.33518,0.52826 -0.5607,0.73215c-0.22551,0.20389 -0.48656,0.36144 -0.78312,0.47265c-0.29657,0.11121 -0.62403,0.16682 -0.98238,0.16682c-0.4016,0 -0.77695,-0.06796 -1.12603,-0.20389c-0.34908,-0.13593 -0.65029,-0.33982 -0.9036,-0.61167c-0.25332,-0.27185 -0.45257,-0.60704 -0.59777,-1.00555c-0.14519,-0.39851 -0.21779,-0.86344 -0.21779,-1.39479c0,-0.51899 0.06642,-0.98701 0.19926,-1.40406c0.13284,-0.41705 0.32283,-0.76922 0.56997,-1.05652c0.24714,-0.2873 0.54834,-0.50818 0.9036,-0.66264c0.35526,-0.15446 0.75223,-0.23169 1.1909,-0.23169c0.38307,0 0.73061,0.05715 1.04262,0.17145c0.31201,0.1143 0.58078,0.27185 0.80629,0.47265c0.22551,0.2008 0.40469,0.43713 0.53753,0.70898c0.13284,0.27185 0.2147,0.56224 0.2456,0.87117h-1.28822c-0.0865,-0.35217 -0.25332,-0.62557 -0.50046,-0.82019c-0.24714,-0.19462 -0.52517,-0.29193 -0.8341,-0.29193c-0.53753,0 -0.93295,0.19308 -1.18627,0.57923c-0.25332,0.38616 -0.37998,0.91596 -0.37998,1.58942c0,0.68581 0.12511,1.21871 0.37534,1.59868c0.25023,0.37998 0.62557,0.56997 1.12603,0.56997c0.38307,0 0.69045,-0.10349 0.92214,-0.31047c0.23169,-0.20698 0.39079,-0.50509 0.47729,-0.89434z" data-paper-data="{&quot;glyphName&quot;:&quot;C&quot;,&quot;glyphIndex&quot;:24,&quot;word&quot;:4}"/><path d="M328.44414,317.69319v-5.07872h-1.85355v-1.07506h5.00458v1.07506h-1.86282v5.07872z" data-paper-data="{&quot;glyphName&quot;:&quot;T&quot;,&quot;glyphIndex&quot;:25,&quot;word&quot;:4}"/><path d="M339.5242,316.80349c0.2286,0 0.44485,-0.0417 0.64874,-0.12511c0.20389,-0.08341 0.38152,-0.21007 0.53289,-0.37998c0.15137,-0.16991 0.27031,-0.3877 0.35681,-0.65338c0.0865,-0.26568 0.12975,-0.58078 0.12975,-0.94531c0,-0.72906 -0.14211,-1.28204 -0.42632,-1.65893c-0.28421,-0.37689 -0.69817,-0.56533 -1.24188,-0.56533c-0.54371,0 -0.96076,0.18844 -1.25114,0.56533c-0.29039,0.37689 -0.43558,0.92986 -0.43558,1.65893c0,0.72906 0.14674,1.26196 0.44022,1.59868c0.29348,0.33673 0.70898,0.50509 1.24651,0.50509zM339.5242,317.90635c-0.95149,0 -1.68209,-0.27803 -2.19182,-0.8341c-0.50973,-0.55606 -0.76459,-1.35618 -0.76459,-2.40034c0,-0.51899 0.06487,-0.98547 0.19462,-1.39943c0.12975,-0.41396 0.32128,-0.76459 0.5746,-1.05189c0.25332,-0.2873 0.56224,-0.50664 0.92677,-0.65801c0.36453,-0.15137 0.78467,-0.22706 1.26041,-0.22706c0.46957,0 0.88816,0.07569 1.25578,0.22706c0.36762,0.15137 0.675,0.37225 0.92214,0.66264c0.24714,0.29039 0.43558,0.64411 0.56533,1.06116c0.12975,0.41705 0.19462,0.88816 0.19462,1.41333c0,1.0627 -0.25177,1.86282 -0.75532,2.40034c-0.50355,0.53753 -1.23106,0.80629 -2.18255,0.80629z" data-paper-data="{&quot;glyphName&quot;:&quot;O&quot;,&quot;glyphIndex&quot;:26,&quot;word&quot;:4}"/><path d="M349.33811,312.6052v1.64039h1.61259c0.346,0 0.59005,-0.07723 0.73215,-0.23169c0.14211,-0.15446 0.21316,-0.34908 0.21316,-0.58387c0,-0.24096 -0.06951,-0.43867 -0.20852,-0.59314c-0.13902,-0.15446 -0.36916,-0.23169 -0.69045,-0.23169zM351.67358,317.69319v-1.58478c0,-0.29657 -0.06796,-0.50818 -0.20389,-0.63484c-0.13593,-0.12666 -0.38925,-0.18999 -0.75995,-0.18999h-1.37163v2.40961h-1.25114v-6.15378h3.12323c0.28421,0 0.54216,0.04479 0.77386,0.13438c0.23169,0.08959 0.43095,0.21316 0.59777,0.37071c0.16682,0.15755 0.29502,0.346 0.38461,0.56533c0.08959,0.21934 0.13438,0.45566 0.13438,0.70898c0,0.33364 -0.07878,0.62866 -0.23633,0.88507c-0.15755,0.25641 -0.38461,0.43713 -0.68118,0.54216c0.27185,0.0865 0.46493,0.21934 0.57923,0.39851c0.1143,0.17918 0.17145,0.44794 0.17145,0.80629v1.74233z" data-paper-data="{&quot;glyphName&quot;:&quot;R&quot;,&quot;glyphIndex&quot;:27,&quot;lastGlyphOfWord&quot;:true,&quot;word&quot;:4}"/><path d="M369.20823,317.69319l-0.0278,-0.61167c-0.14828,0.2595 -0.38616,0.46184 -0.71362,0.60704c-0.32746,0.14519 -0.70435,0.21779 -1.13066,0.21779c-0.42632,0 -0.81093,-0.09113 -1.15383,-0.2734c-0.34291,-0.18227 -0.63638,-0.42632 -0.88044,-0.73215c-0.24405,-0.30584 -0.43095,-0.65801 -0.5607,-1.05652c-0.12975,-0.39851 -0.19462,-0.81093 -0.19462,-1.23724c0,-0.45103 0.06487,-0.8758 0.19462,-1.27431c0.12975,-0.39851 0.32128,-0.74605 0.5746,-1.04262c0.25332,-0.29657 0.56842,-0.52981 0.94531,-0.69971c0.37689,-0.16991 0.81556,-0.25486 1.31602,-0.25486c0.36453,0 0.70589,0.05252 1.02409,0.15755c0.31819,0.10503 0.59622,0.25023 0.8341,0.43558c0.23787,0.18535 0.42941,0.40624 0.5746,0.66264c0.14519,0.25641 0.23015,0.53907 0.25486,0.848h-1.29748c-0.01854,-0.14211 -0.06796,-0.27649 -0.14828,-0.40315c-0.08032,-0.12666 -0.18227,-0.23633 -0.30584,-0.329c-0.12357,-0.09268 -0.26722,-0.16682 -0.43095,-0.22243c-0.16373,-0.05561 -0.33209,-0.08341 -0.50509,-0.08341c-0.51899,0 -0.9345,0.19308 -1.24651,0.57923c-0.31201,0.38616 -0.46802,0.94685 -0.46802,1.68209c0,0.25332 0.03244,0.50818 0.09731,0.76459c0.06487,0.25641 0.16682,0.4881 0.30584,0.69508c0.13902,0.20698 0.31665,0.37534 0.53289,0.50509c0.21625,0.12975 0.47265,0.19462 0.76922,0.19462c0.21007,0 0.40624,-0.03707 0.5885,-0.11121c0.18227,-0.07414 0.34136,-0.17609 0.47729,-0.30584c0.13593,-0.12975 0.24251,-0.27958 0.31974,-0.44949c0.07723,-0.16991 0.11585,-0.35063 0.11585,-0.54216h-1.36236v-1.02872h2.56716v3.30858z" data-paper-data="{&quot;glyphName&quot;:&quot;G&quot;,&quot;glyphIndex&quot;:28,&quot;firstGlyphOfWord&quot;:true,&quot;word&quot;:5}"/><path d="M379.15943,312.92031h-0.00927l-0.78776,2.44668h1.56625zM380.6886,317.69319l-0.38925,-1.26968h-2.2706l-0.43558,1.26968h-1.36236l2.19645,-6.15378h1.49211l2.16865,6.15378z" data-paper-data="{&quot;glyphName&quot;:&quot;A&quot;,&quot;glyphIndex&quot;:29,&quot;word&quot;:5}"/><path d="M390.5609,313.35589c-0.03089,-0.3151 -0.14519,-0.54989 -0.34291,-0.70435c-0.19771,-0.15446 -0.49428,-0.23169 -0.8897,-0.23169c-0.72906,0 -1.09359,0.25023 -1.09359,0.75069c0,0.17918 0.07569,0.329 0.22706,0.44949c0.15137,0.12048 0.39388,0.22088 0.72752,0.3012c0.39542,0.09268 0.73833,0.17918 1.02872,0.2595c0.29039,0.08032 0.55606,0.173 0.79703,0.27803c0.13593,0.05561 0.26413,0.12511 0.38461,0.20852c0.12048,0.08341 0.22243,0.1869 0.30584,0.31047c0.08341,0.12357 0.14983,0.27185 0.19926,0.44485c0.04943,0.173 0.07414,0.38307 0.07414,0.63021c0,0.29657 -0.06178,0.55915 -0.18535,0.78776c-0.12357,0.2286 -0.29039,0.42168 -0.50046,0.57923c-0.21007,0.15755 -0.45721,0.27803 -0.74142,0.36144c-0.28421,0.08341 -0.58387,0.12511 -0.89897,0.12511c-0.89588,0 -1.56934,-0.173 -2.02037,-0.51899c-0.45103,-0.346 -0.6889,-0.85881 -0.71362,-1.53844h1.24188c0.00618,0.3151 0.13438,0.56379 0.38461,0.74605c0.25023,0.18227 0.56379,0.2734 0.94068,0.2734c0.40778,0 0.71671,-0.07414 0.92677,-0.22243c0.21007,-0.14828 0.3151,-0.34908 0.3151,-0.6024c0,-0.09886 -0.01236,-0.18999 -0.03707,-0.2734c-0.02471,-0.08341 -0.0726,-0.1591 -0.14365,-0.22706c-0.07105,-0.06796 -0.16836,-0.1282 -0.29193,-0.18072c-0.12357,-0.05252 -0.28421,-0.1004 -0.48192,-0.14365c-0.46957,-0.09886 -0.8758,-0.19926 -1.21871,-0.3012c-0.34291,-0.10195 -0.62557,-0.2286 -0.848,-0.37998c-0.22243,-0.15137 -0.38616,-0.33518 -0.49119,-0.55143c-0.10503,-0.21625 -0.15755,-0.49119 -0.15755,-0.82483c0,-0.25332 0.04634,-0.49119 0.13902,-0.71362c0.09268,-0.22243 0.23478,-0.4155 0.42632,-0.57923c0.19153,-0.16373 0.42786,-0.29348 0.70898,-0.38925c0.28112,-0.09577 0.61322,-0.14365 0.99628,-0.14365c0.37071,0 0.70435,0.04788 1.00092,0.14365c0.29657,0.09577 0.55143,0.23169 0.76459,0.40778c0.21316,0.17609 0.37843,0.38925 0.49582,0.63947c0.11739,0.25023 0.18227,0.52672 0.19462,0.82946z" data-paper-data="{&quot;glyphName&quot;:&quot;S&quot;,&quot;glyphIndex&quot;:30,&quot;word&quot;:5}"/><path d="M398.49218,317.69319v-5.07872h-1.85355v-1.07506h5.00458v1.07506h-1.86282v5.07872z" data-paper-data="{&quot;glyphName&quot;:&quot;T&quot;,&quot;glyphIndex&quot;:31,&quot;word&quot;:5}"/><path d="M408.1944,312.6052v1.64039h1.61259c0.346,0 0.59005,-0.07723 0.73215,-0.23169c0.14211,-0.15446 0.21316,-0.34908 0.21316,-0.58387c0,-0.24096 -0.06951,-0.43867 -0.20852,-0.59314c-0.13902,-0.15446 -0.36916,-0.23169 -0.69045,-0.23169zM410.52987,317.69319v-1.58478c0,-0.29657 -0.06796,-0.50818 -0.20389,-0.63484c-0.13593,-0.12666 -0.38925,-0.18999 -0.75995,-0.18999h-1.37163v2.40961h-1.25114v-6.15378h3.12323c0.28421,0 0.54216,0.04479 0.77386,0.13438c0.23169,0.08959 0.43095,0.21316 0.59777,0.37071c0.16682,0.15755 0.29502,0.346 0.38461,0.56533c0.08959,0.21934 0.13438,0.45566 0.13438,0.70898c0,0.33364 -0.07878,0.62866 -0.23633,0.88507c-0.15755,0.25641 -0.38461,0.43713 -0.68118,0.54216c0.27185,0.0865 0.46493,0.21934 0.57923,0.39851c0.1143,0.17918 0.17145,0.44794 0.17145,0.80629v1.74233z" data-paper-data="{&quot;glyphName&quot;:&quot;R&quot;,&quot;glyphIndex&quot;:32,&quot;word&quot;:5}"/><path d="M420.35261,316.80349c0.2286,0 0.44485,-0.0417 0.64874,-0.12511c0.20389,-0.08341 0.38152,-0.21007 0.53289,-0.37998c0.15137,-0.16991 0.27031,-0.3877 0.35681,-0.65338c0.0865,-0.26568 0.12975,-0.58078 0.12975,-0.94531c0,-0.72906 -0.14211,-1.28204 -0.42632,-1.65893c-0.28421,-0.37689 -0.69817,-0.56533 -1.24188,-0.56533c-0.54371,0 -0.96076,0.18844 -1.25114,0.56533c-0.29039,0.37689 -0.43558,0.92986 -0.43558,1.65893c0,0.72906 0.14674,1.26196 0.44022,1.59868c0.29348,0.33673 0.70898,0.50509 1.24651,0.50509zM420.35261,317.90635c-0.95149,0 -1.68209,-0.27803 -2.19182,-0.8341c-0.50973,-0.55606 -0.76459,-1.35618 -0.76459,-2.40034c0,-0.51899 0.06487,-0.98547 0.19462,-1.39943c0.12975,-0.41396 0.32128,-0.76459 0.5746,-1.05189c0.25332,-0.2873 0.56224,-0.50664 0.92677,-0.65801c0.36453,-0.15137 0.78467,-0.22706 1.26041,-0.22706c0.46957,0 0.88816,0.07569 1.25578,0.22706c0.36762,0.15137 0.675,0.37225 0.92214,0.66264c0.24714,0.29039 0.43558,0.64411 0.56533,1.06116c0.12975,0.41705 0.19462,0.88816 0.19462,1.41333c0,1.0627 -0.25177,1.86282 -0.75532,2.40034c-0.50355,0.53753 -1.23106,0.80629 -2.18255,0.80629z" data-paper-data="{&quot;glyphName&quot;:&quot;O&quot;,&quot;glyphIndex&quot;:33,&quot;word&quot;:5}"/><path d="M432.74295,317.69319l-2.63204,-4.13341v4.13341h-1.19554v-6.15378h1.36236l2.44668,3.95732v-3.95732h1.20481v6.15378z" data-paper-data="{&quot;glyphName&quot;:&quot;N&quot;,&quot;glyphIndex&quot;:34,&quot;word&quot;:5}"/><path d="M442.49726,316.80349c0.2286,0 0.44485,-0.0417 0.64874,-0.12511c0.20389,-0.08341 0.38152,-0.21007 0.53289,-0.37998c0.15137,-0.16991 0.27031,-0.3877 0.35681,-0.65338c0.0865,-0.26568 0.12975,-0.58078 0.12975,-0.94531c0,-0.72906 -0.14211,-1.28204 -0.42632,-1.65893c-0.28421,-0.37689 -0.69817,-0.56533 -1.24188,-0.56533c-0.54371,0 -0.96076,0.18844 -1.25114,0.56533c-0.29039,0.37689 -0.43558,0.92986 -0.43558,1.65893c0,0.72906 0.14674,1.26196 0.44022,1.59868c0.29348,0.33673 0.70898,0.50509 1.24651,0.50509zM442.49726,317.90635c-0.95149,0 -1.68209,-0.27803 -2.19182,-0.8341c-0.50973,-0.55606 -0.76459,-1.35618 -0.76459,-2.40034c0,-0.51899 0.06487,-0.98547 0.19462,-1.39943c0.12975,-0.41396 0.32128,-0.76459 0.5746,-1.05189c0.25332,-0.2873 0.56224,-0.50664 0.92677,-0.65801c0.36453,-0.15137 0.78467,-0.22706 1.26041,-0.22706c0.46957,0 0.88816,0.07569 1.25578,0.22706c0.36762,0.15137 0.675,0.37225 0.92214,0.66264c0.24714,0.29039 0.43558,0.64411 0.56533,1.06116c0.12975,0.41705 0.19462,0.88816 0.19462,1.41333c0,1.0627 -0.25177,1.86282 -0.75532,2.40034c-0.50355,0.53753 -1.23106,0.80629 -2.18255,0.80629z" data-paper-data="{&quot;glyphName&quot;:&quot;O&quot;,&quot;glyphIndex&quot;:35,&quot;word&quot;:5}"/><path d="M456.02981,317.69319v-4.21682l-1.1492,4.21682h-1.27895l-1.13993,-4.19829v4.19829h-1.19554v-6.15378h1.89062l1.11213,4.51339l1.11213,-4.51339h1.85355v6.15378z" data-paper-data="{&quot;glyphName&quot;:&quot;M&quot;,&quot;glyphIndex&quot;:36,&quot;word&quot;:5}"/><path d="M462.17706,317.69319v-6.15378h1.28822v6.15378z" data-paper-data="{&quot;glyphName&quot;:&quot;I&quot;,&quot;glyphIndex&quot;:37,&quot;word&quot;:5}"/><path d="M473.68197,315.58015c-0.06796,0.35217 -0.17609,0.67037 -0.32437,0.95458c-0.14828,0.28421 -0.33518,0.52826 -0.5607,0.73215c-0.22551,0.20389 -0.48656,0.36144 -0.78312,0.47265c-0.29657,0.11121 -0.62403,0.16682 -0.98238,0.16682c-0.4016,0 -0.77695,-0.06796 -1.12603,-0.20389c-0.34908,-0.13593 -0.65029,-0.33982 -0.9036,-0.61167c-0.25332,-0.27185 -0.45257,-0.60704 -0.59777,-1.00555c-0.14519,-0.39851 -0.21779,-0.86344 -0.21779,-1.39479c0,-0.51899 0.06642,-0.98701 0.19926,-1.40406c0.13284,-0.41705 0.32283,-0.76922 0.56997,-1.05652c0.24714,-0.2873 0.54834,-0.50818 0.9036,-0.66264c0.35526,-0.15446 0.75223,-0.23169 1.1909,-0.23169c0.38307,0 0.73061,0.05715 1.04262,0.17145c0.31201,0.1143 0.58078,0.27185 0.80629,0.47265c0.22551,0.2008 0.40469,0.43713 0.53753,0.70898c0.13284,0.27185 0.2147,0.56224 0.2456,0.87117h-1.28822c-0.0865,-0.35217 -0.25332,-0.62557 -0.50046,-0.82019c-0.24714,-0.19462 -0.52517,-0.29193 -0.8341,-0.29193c-0.53753,0 -0.93295,0.19308 -1.18627,0.57923c-0.25332,0.38616 -0.37998,0.91596 -0.37998,1.58942c0,0.68581 0.12511,1.21871 0.37534,1.59868c0.25023,0.37998 0.62557,0.56997 1.12603,0.56997c0.38307,0 0.69045,-0.10349 0.92214,-0.31047c0.23169,-0.20698 0.39079,-0.50509 0.47729,-0.89434z" data-paper-data="{&quot;glyphName&quot;:&quot;C&quot;,&quot;glyphIndex&quot;:38,&quot;word&quot;:5}"/><path d="M482.06213,316.80349c0.2286,0 0.44485,-0.0417 0.64874,-0.12511c0.20389,-0.08341 0.38152,-0.21007 0.53289,-0.37998c0.15137,-0.16991 0.27031,-0.3877 0.35681,-0.65338c0.0865,-0.26568 0.12975,-0.58078 0.12975,-0.94531c0,-0.72906 -0.14211,-1.28204 -0.42632,-1.65893c-0.28421,-0.37689 -0.69817,-0.56533 -1.24188,-0.56533c-0.54371,0 -0.96076,0.18844 -1.25114,0.56533c-0.29039,0.37689 -0.43558,0.92986 -0.43558,1.65893c0,0.72906 0.14674,1.26196 0.44022,1.59868c0.29348,0.33673 0.70898,0.50509 1.24651,0.50509zM482.06213,317.90635c-0.95149,0 -1.68209,-0.27803 -2.19182,-0.8341c-0.50973,-0.55606 -0.76459,-1.35618 -0.76459,-2.40034c0,-0.51899 0.06487,-0.98547 0.19462,-1.39943c0.12975,-0.41396 0.32128,-0.76459 0.5746,-1.05189c0.25332,-0.2873 0.56224,-0.50664 0.92677,-0.65801c0.36453,-0.15137 0.78467,-0.22706 1.26041,-0.22706c0.46957,0 0.88816,0.07569 1.25578,0.22706c0.36762,0.15137 0.675,0.37225 0.92214,0.66264c0.24714,0.29039 0.43558,0.64411 0.56533,1.06116c0.12975,0.41705 0.19462,0.88816 0.19462,1.41333c0,1.0627 -0.25177,1.86282 -0.75532,2.40034c-0.50355,0.53753 -1.23106,0.80629 -2.18255,0.80629z" data-paper-data="{&quot;glyphName&quot;:&quot;O&quot;,&quot;glyphIndex&quot;:39,&quot;lastGlyphOfWord&quot;:true,&quot;word&quot;:5}"/></g><g data-paper-data="{&quot;isPrimaryText&quot;:true}" fill="currentColor" fill-rule="nonzero"><path d="M71.64947,292.82539c1.36552,0 2.3946,-0.26222 3.08725,-0.78666c0.69265,-0.52444 1.05877,-1.2913 1.09835,-2.3006c0.01979,-0.05937 0.03958,-0.14348 0.05937,-0.25232c0.01979,-0.10885 0.02969,-0.23253 0.02969,-0.37106c0,-0.21769 -0.06432,-0.47991 -0.19295,-0.78666c-0.12864,-0.30675 -0.38096,-0.62339 -0.75697,-0.94992c-0.37601,-0.32654 -0.9054,-0.63823 -1.58815,-0.93508c-0.68276,-0.29685 -1.56836,-0.55412 -2.65682,-0.77181c-0.7916,-0.1979 -1.53373,-0.4997 -2.22638,-0.9054c-0.69265,-0.4057 -1.3012,-0.8955 -1.82564,-1.46941c-0.52444,-0.57391 -0.93508,-1.22204 -1.23193,-1.94438c-0.29685,-0.72234 -0.44528,-1.4991 -0.44528,-2.33028c0,-1.06866 0.20285,-2.00375 0.60855,-2.80524c0.4057,-0.8015 0.95487,-1.47436 1.64752,-2.01859c0.69265,-0.54423 1.49415,-0.94992 2.4045,-1.21709c0.91034,-0.26717 1.86027,-0.40075 2.84977,-0.40075c0.81139,0 1.51889,0.03463 2.12249,0.1039c0.6036,0.06927 1.14288,0.16327 1.61784,0.28201c0.47496,0.11874 0.91034,0.26222 1.30615,0.43043c0.3958,0.16822 0.8015,0.36117 1.21709,0.57886c-0.1979,0.55412 -0.3958,1.08351 -0.5937,1.58815c-0.1979,0.50465 -0.38591,0.99445 -0.56402,1.46941c-0.89055,-0.41559 -1.73658,-0.73223 -2.53808,-0.94992c-0.8015,-0.21769 -1.64752,-0.32654 -2.53808,-0.32654c-1.36552,0 -2.46881,0.28696 -3.30989,0.86087c-0.84108,0.57391 -1.26162,1.37541 -1.26162,2.4045c0.09895,0.73223 0.22759,1.30615 0.38591,1.72174c0.15832,0.41559 0.37601,0.74213 0.65307,0.97961c0.27706,0.23748 0.63328,0.42549 1.06866,0.56402c0.43538,0.13853 0.9994,0.30675 1.69205,0.50465c0.67286,0.17811 1.44468,0.41559 2.31544,0.71244c0.87076,0.29685 1.69205,0.6976 2.46387,1.20225c0.77181,0.50465 1.41994,1.14782 1.94438,1.92953c0.52444,0.78171 0.78666,1.76626 0.78666,2.95367c0,1.04887 -0.21274,1.97406 -0.63823,2.77556c-0.42549,0.8015 -0.9895,1.46941 -1.69205,2.00375c-0.70255,0.53433 -1.50899,0.94003 -2.41934,1.21709c-0.91034,0.27706 -1.86027,0.41559 -2.84977,0.41559c-0.81139,0 -1.51889,-0.02969 -2.12249,-0.08906c-0.6036,-0.05937 -1.14288,-0.14843 -1.61784,-0.26717c-0.47496,-0.11874 -0.91034,-0.26222 -1.30615,-0.43043c-0.3958,-0.16822 -0.8015,-0.36117 -1.21709,-0.57886c0.17811,-0.55412 0.37106,-1.08351 0.57886,-1.58815c0.2078,-0.50465 0.40075,-1.00435 0.57886,-1.4991c0.85097,0.3958 1.69205,0.7075 2.52324,0.93508c0.83118,0.22759 1.68216,0.34138 2.55292,0.34138zM75.83507,289.58971v0.14843c-0.03958,0.07916 -0.05937,0.11874 -0.05937,0.11874z" data-paper-data="{&quot;glyphName&quot;:&quot;S&quot;,&quot;glyphIndex&quot;:0,&quot;firstGlyphOfWord&quot;:true,&quot;word&quot;:1}"/><path d="M96.12485,285.34474v6.976h9.94452v3.17631h-13.32862v-22.32321h13.09114v3.17631h-9.70704v5.81828h9.3805v3.17631z" data-paper-data="{&quot;glyphName&quot;:&quot;E&quot;,&quot;glyphIndex&quot;:1,&quot;word&quot;:1}"/><path d="M128.43711,273.17384c1.36552,0 2.53808,0.1979 3.51769,0.5937c0.97961,0.3958 1.78111,0.92024 2.4045,1.57331c0.62339,0.65307 1.08351,1.41004 1.38036,2.27091c0.29685,0.86087 0.44528,1.75637 0.44528,2.6865c0,1.46447 -0.36117,2.79535 -1.08351,3.99265c-0.72234,1.1973 -1.76626,2.14228 -3.13178,2.83493c0.94992,1.30615 1.96911,2.6865 3.05757,4.14108c1.08845,1.45457 2.13733,2.86461 3.14662,4.23013h-4.03718l-5.69954,-7.92593h-4.15592v7.92593h-3.3841v-22.32321zM124.2812,276.35015v8.04467h4.36371c0.7916,0 1.45457,-0.10885 1.9889,-0.32654c0.53433,-0.21769 0.95982,-0.51454 1.27646,-0.89055c0.31664,-0.37601 0.54423,-0.81139 0.68276,-1.30615c0.13853,-0.49475 0.2078,-1.01919 0.2078,-1.57331c0,-1.26657 -0.33643,-2.24123 -1.00929,-2.92398c-0.67286,-0.68276 -1.64258,-1.02414 -2.90914,-1.02414z" data-paper-data="{&quot;glyphName&quot;:&quot;R&quot;,&quot;glyphIndex&quot;:2,&quot;word&quot;:1}"/><path d="M148.90501,273.17384h3.56222l6.14482,17.33611l6.14482,-17.33611h3.56222l-8.01498,22.32321h-3.35442z" data-paper-data="{&quot;glyphName&quot;:&quot;V&quot;,&quot;glyphIndex&quot;:3,&quot;word&quot;:1}"/><path d="M182.25625,273.17384h3.3841v22.32321h-3.3841z" data-paper-data="{&quot;glyphName&quot;:&quot;I&quot;,&quot;glyphIndex&quot;:4,&quot;word&quot;:1}"/><path d="M204.23808,284.39482c-0.01979,0.05937 -0.02474,0.11874 -0.01484,0.17811c0.0099,0.05937 0.01484,0.12864 0.01484,0.2078c0,0.27706 0.01484,0.6036 0.04453,0.97961c0.02969,0.37601 0.07421,0.64318 0.13358,0.8015c-0.03958,-0.03958 -0.05937,-0.07916 -0.05937,-0.11874c0.13853,0.83118 0.37106,1.62279 0.6976,2.37481c0.32654,0.75202 0.75202,1.41499 1.27646,1.9889c0.52444,0.57391 1.14288,1.02908 1.85532,1.36552c0.71244,0.33643 1.54363,0.50465 2.49355,0.50465c1.00929,0 1.92953,-0.16822 2.76072,-0.50465c0.83118,-0.33643 1.62279,-0.73223 2.37481,-1.18741c0.31664,0.57391 0.57391,1.07856 0.77181,1.51394c0.1979,0.43538 0.43538,0.90045 0.71244,1.3952c-0.93013,0.57391 -1.94438,1.04393 -3.04273,1.41004c-1.09835,0.36612 -2.33028,0.54917 -3.6958,0.54917c-1.54363,0 -2.91409,-0.29685 -4.11139,-0.89055c-1.1973,-0.5937 -2.20659,-1.40015 -3.02788,-2.41934c-0.82129,-1.01919 -1.44962,-2.21649 -1.88501,-3.5919c-0.43538,-1.37541 -0.65307,-2.84482 -0.65307,-4.40824c0,-0.31664 0.00495,-0.58875 0.01484,-0.81634c0.0099,-0.22759 0.02474,-0.42054 0.04453,-0.57886c0.13853,-1.28636 0.43043,-2.54797 0.87571,-3.78485c0.44528,-1.23688 1.04887,-2.34018 1.81079,-3.30989c0.76192,-0.96971 1.697,-1.75142 2.80524,-2.34512c1.10824,-0.5937 2.3946,-0.89055 3.85907,-0.89055c1.34573,0 2.52324,0.16327 3.53253,0.4898c1.00929,0.32654 1.97901,0.80645 2.90914,1.43973l-1.57331,2.84977c-0.71244,-0.47496 -1.42489,-0.86087 -2.13733,-1.15772c-0.71244,-0.29685 -1.5931,-0.44528 -2.64198,-0.44528c-0.9895,0 -1.86522,0.23253 -2.62713,0.6976c-0.76192,0.46507 -1.4051,1.07856 -1.92953,1.84048c-0.52444,0.76192 -0.92024,1.62773 -1.18741,2.59745c-0.26717,0.96971 -0.40075,1.95922 -0.40075,2.96851zM204.44588,286.59152c-0.01979,0 -0.02969,-0.0099 -0.02969,-0.02969c0.01979,0.01979 0.02969,0.02969 0.02969,0.02969z" data-paper-data="{&quot;glyphName&quot;:&quot;C&quot;,&quot;glyphIndex&quot;:5,&quot;word&quot;:1}"/><path d="M231.68198,273.17384h3.3841v22.32321h-3.3841z" data-paper-data="{&quot;glyphName&quot;:&quot;I&quot;,&quot;glyphIndex&quot;:6,&quot;word&quot;:1}"/><path d="M260.2836,272.81762c0.07916,0 0.14843,0.00495 0.2078,0.01484c0.05937,0.0099 0.12864,0.01484 0.2078,0.01484h0.11874c0.09895,0 0.23253,0.01484 0.40075,0.04453c0.16822,0.02969 0.33643,0.05937 0.50465,0.08906c0.16822,0.02969 0.33148,0.06432 0.4898,0.1039c0.15832,0.03958 0.26717,0.06927 0.32654,0.08906c1.14782,0.29685 2.17196,0.79655 3.07241,1.4991c0.90045,0.70255 1.65247,1.54363 2.25607,2.52324c0.6036,0.97961 1.06372,2.07796 1.38036,3.29505c0.31664,1.21709 0.47496,2.4886 0.47496,3.81454c0,1.58321 -0.21769,3.07241 -0.65307,4.46761c-0.43538,1.3952 -1.06866,2.61724 -1.89985,3.66611c-0.83118,1.04887 -1.85037,1.88006 -3.05757,2.49355c-1.2072,0.61349 -2.58261,0.92024 -4.12623,0.92024c-1.54363,0 -2.91904,-0.30675 -4.12623,-0.92024c-1.2072,-0.61349 -2.22638,-1.44468 -3.05757,-2.49355c-0.83118,-1.04887 -1.46447,-2.27091 -1.89985,-3.66611c-0.43538,-1.3952 -0.65307,-2.8844 -0.65307,-4.46761c0,-1.56342 0.21769,-3.04273 0.65307,-4.43793c0.43538,-1.3952 1.06866,-2.61229 1.89985,-3.65127c0.83118,-1.03898 1.85037,-1.86522 3.05757,-2.47871c1.2072,-0.61349 2.58261,-0.92024 4.12623,-0.92024zM259.98675,275.99393c-1.08845,0 -2.03343,0.25232 -2.83493,0.75697c-0.8015,0.50465 -1.45952,1.15277 -1.97406,1.94438c-0.51454,0.7916 -0.90045,1.68216 -1.15772,2.67166c-0.25727,0.9895 -0.38591,1.96911 -0.38591,2.93883c0,0.89055 0.11379,1.83058 0.34138,2.82009c0.22759,0.9895 0.5937,1.8949 1.09835,2.71619c0.50465,0.82129 1.15772,1.4991 1.95922,2.03343c0.8015,0.53433 1.78606,0.8015 2.95367,0.8015c1.16761,0 2.15712,-0.26717 2.96851,-0.8015c0.81139,-0.53433 1.46941,-1.21214 1.97406,-2.03343c0.50465,-0.82129 0.86582,-1.72668 1.08351,-2.71619c0.21769,-0.9895 0.32654,-1.92953 0.32654,-2.82009c0,-0.89055 -0.11379,-1.82564 -0.34138,-2.80524c-0.22759,-0.97961 -0.5937,-1.87511 -1.09835,-2.6865c-0.50465,-0.81139 -1.15772,-1.48426 -1.95922,-2.01859c-0.8015,-0.53433 -1.78606,-0.8015 -2.95367,-0.8015z" data-paper-data="{&quot;glyphName&quot;:&quot;O&quot;,&quot;glyphIndex&quot;:7,&quot;word&quot;:1}"/><path d="M288.73679,292.82539c1.36552,0 2.3946,-0.26222 3.08725,-0.78666c0.69265,-0.52444 1.05877,-1.2913 1.09835,-2.3006c0.01979,-0.05937 0.03958,-0.14348 0.05937,-0.25232c0.01979,-0.10885 0.02969,-0.23253 0.02969,-0.37106c0,-0.21769 -0.06432,-0.47991 -0.19295,-0.78666c-0.12864,-0.30675 -0.38096,-0.62339 -0.75697,-0.94992c-0.37601,-0.32654 -0.9054,-0.63823 -1.58815,-0.93508c-0.68276,-0.29685 -1.56836,-0.55412 -2.65682,-0.77181c-0.7916,-0.1979 -1.53373,-0.4997 -2.22638,-0.9054c-0.69265,-0.4057 -1.3012,-0.8955 -1.82564,-1.46941c-0.52444,-0.57391 -0.93508,-1.22204 -1.23193,-1.94438c-0.29685,-0.72234 -0.44528,-1.4991 -0.44528,-2.33028c0,-1.06866 0.20285,-2.00375 0.60855,-2.80524c0.4057,-0.8015 0.95487,-1.47436 1.64752,-2.01859c0.69265,-0.54423 1.49415,-0.94992 2.4045,-1.21709c0.91034,-0.26717 1.86027,-0.40075 2.84977,-0.40075c0.81139,0 1.51889,0.03463 2.12249,0.1039c0.6036,0.06927 1.14288,0.16327 1.61784,0.28201c0.47496,0.11874 0.91034,0.26222 1.30615,0.43043c0.3958,0.16822 0.8015,0.36117 1.21709,0.57886c-0.1979,0.55412 -0.3958,1.08351 -0.5937,1.58815c-0.1979,0.50465 -0.38591,0.99445 -0.56402,1.46941c-0.89055,-0.41559 -1.73658,-0.73223 -2.53808,-0.94992c-0.8015,-0.21769 -1.64752,-0.32654 -2.53808,-0.32654c-1.36552,0 -2.46881,0.28696 -3.30989,0.86087c-0.84108,0.57391 -1.26162,1.37541 -1.26162,2.4045c0.09895,0.73223 0.22759,1.30615 0.38591,1.72174c0.15832,0.41559 0.37601,0.74213 0.65307,0.97961c0.27706,0.23748 0.63328,0.42549 1.06866,0.56402c0.43538,0.13853 0.9994,0.30675 1.69205,0.50465c0.67286,0.17811 1.44468,0.41559 2.31544,0.71244c0.87076,0.29685 1.69205,0.6976 2.46387,1.20225c0.77181,0.50465 1.41994,1.14782 1.94438,1.92953c0.52444,0.78171 0.78666,1.76626 0.78666,2.95367c0,1.04887 -0.21274,1.97406 -0.63823,2.77556c-0.42549,0.8015 -0.9895,1.46941 -1.69205,2.00375c-0.70255,0.53433 -1.50899,0.94003 -2.41934,1.21709c-0.91034,0.27706 -1.86027,0.41559 -2.84977,0.41559c-0.81139,0 -1.51889,-0.02969 -2.12249,-0.08906c-0.6036,-0.05937 -1.14288,-0.14843 -1.61784,-0.26717c-0.47496,-0.11874 -0.91034,-0.26222 -1.30615,-0.43043c-0.3958,-0.16822 -0.8015,-0.36117 -1.21709,-0.57886c0.17811,-0.55412 0.37106,-1.08351 0.57886,-1.58815c0.2078,-0.50465 0.40075,-1.00435 0.57886,-1.4991c0.85097,0.3958 1.69205,0.7075 2.52324,0.93508c0.83118,0.22759 1.68216,0.34138 2.55292,0.34138zM292.92239,289.58971v0.14843c-0.03958,0.07916 -0.05937,0.11874 -0.05937,0.11874z" data-paper-data="{&quot;glyphName&quot;:&quot;S&quot;,&quot;glyphIndex&quot;:8,&quot;lastGlyphOfWord&quot;:true,&quot;word&quot;:1}"/><path d="M334.33314,285.34474v6.976h9.94452v3.17631h-13.32862v-22.32321h13.09114v3.17631h-9.70704v5.81828h9.3805v3.17631z" data-paper-data="{&quot;glyphName&quot;:&quot;E&quot;,&quot;glyphIndex&quot;:9,&quot;firstGlyphOfWord&quot;:true,&quot;word&quot;:2}"/><path d="M359.19444,273.17384h3.35442v19.14691h8.43058v3.17631h-11.78499z" data-paper-data="{&quot;glyphName&quot;:&quot;L&quot;,&quot;glyphIndex&quot;:10,&quot;word&quot;:2}"/><path d="M385.30251,273.17384h3.3841v22.32321h-3.3841z" data-paper-data="{&quot;glyphName&quot;:&quot;I&quot;,&quot;glyphIndex&quot;:11,&quot;word&quot;:2}"/><path d="M405.02827,273.20353c0.77181,0 1.46941,-0.00495 2.0928,-0.01484c0.62339,-0.0099 1.3012,-0.01484 2.03343,-0.01484l10.06326,16.97989v-16.97989h3.3841v22.32321h-4.15592l-9.9742,-16.92052c0,1.22699 0,2.56282 0,4.00749c0,1.44468 -0.00495,2.91409 -0.01484,4.40824c-0.0099,1.49415 -0.01484,2.96851 -0.01484,4.42308c0,1.45457 0,2.81514 0,4.0817h-3.3841z" data-paper-data="{&quot;glyphName&quot;:&quot;N&quot;,&quot;glyphIndex&quot;:12,&quot;word&quot;:2}"/><path d="M440.21999,284.39482c-0.01979,0.05937 -0.02474,0.11874 -0.01484,0.17811c0.0099,0.05937 0.01484,0.12864 0.01484,0.2078c0,0.27706 0.01484,0.6036 0.04453,0.97961c0.02969,0.37601 0.07421,0.64318 0.13358,0.8015c-0.03958,-0.03958 -0.05937,-0.07916 -0.05937,-0.11874c0.13853,0.83118 0.37106,1.62279 0.6976,2.37481c0.32654,0.75202 0.75202,1.41499 1.27646,1.9889c0.52444,0.57391 1.14288,1.02908 1.85532,1.36552c0.71244,0.33643 1.54363,0.50465 2.49355,0.50465c1.00929,0 1.92953,-0.16822 2.76072,-0.50465c0.83118,-0.33643 1.62279,-0.73223 2.37481,-1.18741c0.31664,0.57391 0.57391,1.07856 0.77181,1.51394c0.1979,0.43538 0.43538,0.90045 0.71244,1.3952c-0.93013,0.57391 -1.94438,1.04393 -3.04273,1.41004c-1.09835,0.36612 -2.33028,0.54917 -3.6958,0.54917c-1.54363,0 -2.91409,-0.29685 -4.11139,-0.89055c-1.1973,-0.5937 -2.20659,-1.40015 -3.02788,-2.41934c-0.82129,-1.01919 -1.44962,-2.21649 -1.88501,-3.5919c-0.43538,-1.37541 -0.65307,-2.84482 -0.65307,-4.40824c0,-0.31664 0.00495,-0.58875 0.01484,-0.81634c0.0099,-0.22759 0.02474,-0.42054 0.04453,-0.57886c0.13853,-1.28636 0.43043,-2.54797 0.87571,-3.78485c0.44528,-1.23688 1.04887,-2.34018 1.81079,-3.30989c0.76192,-0.96971 1.697,-1.75142 2.80524,-2.34512c1.10824,-0.5937 2.3946,-0.89055 3.85907,-0.89055c1.34573,0 2.52324,0.16327 3.53253,0.4898c1.00929,0.32654 1.97901,0.80645 2.90914,1.43973l-1.57331,2.84977c-0.71244,-0.47496 -1.42489,-0.86087 -2.13733,-1.15772c-0.71244,-0.29685 -1.5931,-0.44528 -2.64198,-0.44528c-0.9895,0 -1.86522,0.23253 -2.62713,0.6976c-0.76192,0.46507 -1.4051,1.07856 -1.92953,1.84048c-0.52444,0.76192 -0.92024,1.62773 -1.18741,2.59745c-0.26717,0.96971 -0.40075,1.95922 -0.40075,2.96851zM440.42778,286.59152c-0.01979,0 -0.02969,-0.0099 -0.02969,-0.02969c0.01979,0.01979 0.02969,0.02969 0.02969,0.02969z" data-paper-data="{&quot;glyphName&quot;:&quot;C&quot;,&quot;glyphIndex&quot;:13,&quot;word&quot;:2}"/><path d="M485,295.49705h-3.44347l-2.13733,-5.84797h-8.72743l-2.1967,5.84797h-3.44347l0.17811,-0.50465c0.37601,-1.04887 0.72729,-2.00375 1.05382,-2.86461c0.32654,-0.86087 0.64813,-1.73163 0.96477,-2.61229c0.31664,-0.88066 0.65802,-1.81079 1.02414,-2.7904c0.36612,-0.97961 0.77676,-2.1027 1.23193,-3.36926c0.45517,-1.26657 0.97961,-2.72608 1.57331,-4.37856c0.5937,-1.65247 1.29625,-3.58695 2.10764,-5.80344h3.71064zM471.8198,286.47278h6.44167l-3.23568,-8.99459z" data-paper-data="{&quot;glyphName&quot;:&quot;A&quot;,&quot;glyphIndex&quot;:14,&quot;lastGlyphOfWord&quot;:true,&quot;word&quot;:2}"/></g><g data-paper-data="{&quot;fillRule&quot;:&quot;evenodd&quot;,&quot;isIcon&quot;:&quot;true&quot;,&quot;iconStyle&quot;:&quot;standalone&quot;,&quot;selectedEffects&quot;:{&quot;container&quot;:&quot;&quot;,&quot;transformation&quot;:&quot;&quot;,&quot;pattern&quot;:&quot;&quot;},&quot;bounds&quot;:{&quot;x&quot;:188.3925659118625,&quot;y&quot;:152.0936509464984,&quot;width&quot;:173.214868176275,&quot;height&quot;:94.05447141369268},&quot;iconType&quot;:&quot;initial&quot;,&quot;initialText&quot;:&quot;SEl&quot;,&quot;rawInitialId&quot;:&quot;796&quot;,&quot;suitableAsStandaloneIcon&quot;:true}" fill-rule="evenodd"><g data-paper-data="{&quot;isPathIcon&quot;:true}"><path d="M220.17373,152.09365c-2.42401,0 -4.57402,0.156 -6.45003,0.469c-6.41137,0.938 -11.78639,3.08802 -16.12508,6.45003c-4.34002,3.36202 -7.17404,7.58404 -8.50304,12.66606c-0.469,1.64101 -0.703,3.63502 -0.703,5.98103c0,3.20502 0.351,5.86303 1.05501,7.97404c1.95468,6.1767 6.1767,10.94605 12.66606,14.30807c4.37802,2.34501 10.98406,4.26102 19.8191,5.74603c6.80203,1.17301 11.74706,2.38501 14.83507,3.63602c3.08902,1.25101 5.45403,3.04902 7.09604,5.39403c1.09401,1.56401 1.64101,3.36202 1.64101,5.39503c0,4.06602 -1.68101,7.23204 -5.04203,9.49905c-1.64201,1.09501 -3.18602,1.83801 -4.63302,2.22901c-1.44601,0.39 -3.77202,0.664 -6.97803,0.82c-0.312,0 -0.742,0.02 -1.29001,0.059c-0.547,0.039 -0.938,0.059 -1.17201,0.059c-4.53502,0 -8.87404,-1.05601 -13.01807,-3.16702c-1.87601,-0.938 -3.92902,-2.44301 -6.15703,-4.51502c-2.22801,-2.07201 -3.73302,-3.88902 -4.51502,-5.45303c-0.86,-1.48601 -1.40701,-2.22801 -1.64201,-2.22801l-3.16602,1.87601c-2.11101,1.25101 -4.22202,2.60001 -6.33303,4.04602c-2.11101,1.44601 -3.16602,2.36501 -3.16602,2.75601c0,0.391 0.508,1.40701 1.52401,3.04902c1.01701,1.64201 2.03301,3.04902 3.04902,4.22202c2.73701,3.20602 6.25503,5.86403 10.55505,7.97504c1.01601,0.547 2.89301,1.27001 5.62903,2.16901c2.73701,0.899 4.76902,1.50501 6.09803,1.81801c2.81501,0.547 6.52903,0.821 11.14206,0.821c6.3327,0 11.21906,-0.469 14.65907,-1.40701c3.36202,-0.938 6.47003,-2.38501 9.32305,-4.33902c2.85401,-1.95468 5.02369,-4.10502 6.50903,-6.45103c2.50201,-3.83102 3.75302,-8.63904 3.75302,-14.42407c0,-8.05304 -2.69801,-14.54207 -8.09204,-19.4681c-5.31703,-4.84702 -14.03407,-8.17004 -26.15213,-9.96805c-7.74071,-1.09467 -13.37007,-2.71701 -16.88808,-4.86702c-3.51802,-2.15001 -5.27703,-5.06303 -5.27703,-8.73704c0,-2.81501 1.17201,-5.16003 3.51802,-7.03704c1.56334,-1.32867 3.26368,-2.22768 5.10103,-2.69701c1.83801,-0.469 4.59402,-0.704 8.26804,-0.704c4.22202,0 7.74004,0.469 10.55505,1.40801c4.92602,1.64101 9.26505,4.10402 13.01707,7.38804l2.58101,2.22801l1.52401,-1.29001c0.23467,-0.23467 0.645,-0.606 1.23101,-1.11401c0.587,-0.508 1.29001,-1.11401 2.11101,-1.81801l2.05301,-1.75901l3.75302,-3.40102l-1.87701,-1.99301c-3.98735,-4.06602 -9.28438,-7.35004 -15.89108,-9.85205c-6.60603,-2.50135 -13.27107,-3.75202 -19.9951,-3.75202z" fill="currentColor"/><path d="M303.55614,154.08666c-21.57811,0 -32.40716,0.118 -32.48516,0.352c-0.234,0.157 -0.352,2.18901 -0.352,6.09803v5.74703h64.97133v-12.19706z" fill="currentColor"/><path d="M347.76936,246.03112h13.83807v-91.94446h-13.83807z" fill="currentColor"/><path d="M271.07098,194.78186c0.15667,-0.15667 6.33337,-0.235 18.53009,-0.235h12.78306l30.96016,0.117v5.51203c0,3.67502 -0.078,5.59003 -0.234,5.74703c-0.079,0.078 -7.93604,0.195 -23.57312,0.352l-23.45512,0.117v26.85613l25.68413,0.117l25.68313,0.235l0.117,6.21503l0.235,6.21603h-67.08234v-25.44913c0,-16.96609 0.118,-25.56613 0.352,-25.80013z" fill="currentColor"/></g></g></g></g></svg>