<svg xmlns:mydata="http://www.w3.org/2000/svg" mydata:contrastcolor="ecf5f8" mydata:template="Contrast" mydata:presentation="2.5" mydata:layouttype="undefined" mydata:specialfontid="undefined" mydata:id1="575" mydata:id2="125" mydata:companyname="Servicios Elinca" mydata:companytagline="Mantenimiento Integral - Sector Gastronomico" version="1.1" xmlns="http://www.w3.org/2000/svg" xmlns:xlink="http://www.w3.org/1999/xlink" viewBox="0 0 550 470"><g fill="none" fill-rule="none" stroke="none" stroke-width="1" stroke-linecap="butt" stroke-linejoin="miter" stroke-miterlimit="10" stroke-dasharray="" stroke-dashoffset="0" font-family="none" font-weight="none" font-size="none" text-anchor="none" style="mix-blend-mode: normal"><g data-paper-data="{&quot;isGlobalGroup&quot;:true,&quot;bounds&quot;:{&quot;x&quot;:108.8857586295913,&quot;y&quot;:115,&quot;width&quot;:332.22848274081747,&quot;height&quot;:240}}"><g data-paper-data="{&quot;isSecondaryText&quot;:true}" fill="#4298b5" fill-rule="nonzero"><path d="M167.73377,354.85063v-2.9549l-0.80529,2.9549h-0.89621l-0.7988,-2.94191v2.94191h-0.83776v-4.31221h1.32484l0.77932,3.16272l0.77932,-3.16272h1.29886v4.31221z" data-paper-data="{&quot;glyphName&quot;:&quot;M&quot;,&quot;glyphIndex&quot;:0,&quot;firstGlyphOfWord&quot;:true,&quot;word&quot;:1}"/><path d="M172.55526,351.50607h-0.00649l-0.55201,1.71449h1.09754zM173.62682,354.85063l-0.27276,-0.88972h-1.5911l-0.30523,0.88972h-0.95466l1.53915,-4.31221h1.04558l1.51966,4.31221z" data-paper-data="{&quot;glyphName&quot;:&quot;A&quot;,&quot;glyphIndex&quot;:1,&quot;word&quot;:1}"/><path d="M179.19083,354.85063l-1.84438,-2.89645v2.89645h-0.83776v-4.31221h0.95466l1.71449,2.77306v-2.77306h0.84426v4.31221z" data-paper-data="{&quot;glyphName&quot;:&quot;N&quot;,&quot;glyphIndex&quot;:2,&quot;word&quot;:1}"/><path d="M183.20092,354.85063v-3.55887h-1.29886v-0.75334h3.50692v0.75334h-1.30535v3.55887z" data-paper-data="{&quot;glyphName&quot;:&quot;T&quot;,&quot;glyphIndex&quot;:3,&quot;word&quot;:1}"/><path d="M187.29431,354.85063v-4.31221h3.16922v0.75334h-2.29249v0.92219h2.11065v0.75983h-2.11065v1.11052h2.39639v0.76633z" data-paper-data="{&quot;glyphName&quot;:&quot;E&quot;,&quot;glyphIndex&quot;:4,&quot;word&quot;:1}"/><path d="M195.10036,354.85063l-1.84438,-2.89645v2.89645h-0.83776v-4.31221h0.95466l1.71449,2.77306v-2.77306h0.84426v4.31221z" data-paper-data="{&quot;glyphName&quot;:&quot;N&quot;,&quot;glyphIndex&quot;:5,&quot;word&quot;:1}"/><path d="M197.85109,354.85063v-4.31221h0.90271v4.31221z" data-paper-data="{&quot;glyphName&quot;:&quot;I&quot;,&quot;glyphIndex&quot;:6,&quot;word&quot;:1}"/><path d="M204.03514,354.85063v-2.9549l-0.80529,2.9549h-0.89621l-0.7988,-2.94191v2.94191h-0.83776v-4.31221h1.32484l0.77932,3.16272l0.77932,-3.16272h1.29886v4.31221z" data-paper-data="{&quot;glyphName&quot;:&quot;M&quot;,&quot;glyphIndex&quot;:7,&quot;word&quot;:1}"/><path d="M206.82962,354.85063v-4.31221h0.90271v4.31221z" data-paper-data="{&quot;glyphName&quot;:&quot;I&quot;,&quot;glyphIndex&quot;:8,&quot;word&quot;:1}"/><path d="M209.64324,354.85063v-4.31221h3.16922v0.75334h-2.29249v0.92219h2.11065v0.75983h-2.11065v1.11052h2.39639v0.76633z" data-paper-data="{&quot;glyphName&quot;:&quot;E&quot;,&quot;glyphIndex&quot;:9,&quot;word&quot;:1}"/><path d="M217.44929,354.85063l-1.84438,-2.89645v2.89645h-0.83776v-4.31221h0.95466l1.71449,2.77306v-2.77306h0.84426v4.31221z" data-paper-data="{&quot;glyphName&quot;:&quot;N&quot;,&quot;glyphIndex&quot;:10,&quot;word&quot;:1}"/><path d="M221.45938,354.85063v-3.55887h-1.29886v-0.75334h3.50692v0.75334h-1.30535v3.55887z" data-paper-data="{&quot;glyphName&quot;:&quot;T&quot;,&quot;glyphIndex&quot;:11,&quot;word&quot;:1}"/><path d="M227.38365,354.22718c0.16019,0 0.31173,-0.02922 0.4546,-0.08767c0.14287,-0.05845 0.26735,-0.1472 0.37342,-0.26627c0.10607,-0.11906 0.18942,-0.27168 0.25003,-0.45785c0.06061,-0.18617 0.09092,-0.40698 0.09092,-0.66242c0,-0.51088 -0.09958,-0.89838 -0.29874,-1.16248c-0.19916,-0.2641 -0.48924,-0.39615 -0.87024,-0.39615c-0.381,0 -0.67324,0.13205 -0.87673,0.39615c-0.20349,0.2641 -0.30523,0.65159 -0.30523,1.16248c0,0.51088 0.10283,0.88431 0.30848,1.12027c0.20565,0.23596 0.49681,0.35394 0.87348,0.35394zM227.38365,355c-0.66675,0 -1.17871,-0.19483 -1.5359,-0.58449c-0.35719,-0.38966 -0.53578,-0.95033 -0.53578,-1.68202c0,-0.36368 0.04546,-0.69056 0.13638,-0.98064c0.09092,-0.29008 0.22514,-0.53578 0.40265,-0.7371c0.17751,-0.20132 0.39399,-0.35502 0.64943,-0.46109c0.25544,-0.10607 0.54985,-0.15911 0.88322,-0.15911c0.32904,0 0.62237,0.05304 0.87998,0.15911c0.25761,0.10607 0.473,0.26085 0.64618,0.46434c0.17318,0.20349 0.30523,0.45135 0.39615,0.7436c0.09092,0.29224 0.13638,0.62237 0.13638,0.99038c0,0.74468 -0.17643,1.30535 -0.52928,1.68202c-0.35286,0.37667 -0.86266,0.565 -1.52941,0.565z" data-paper-data="{&quot;glyphName&quot;:&quot;O&quot;,&quot;glyphIndex&quot;:12,&quot;lastGlyphOfWord&quot;:true,&quot;word&quot;:1}"/><path d="M234.5026,354.85063v-4.31221h0.90271v4.31221z" data-paper-data="{&quot;glyphName&quot;:&quot;I&quot;,&quot;glyphIndex&quot;:13,&quot;firstGlyphOfWord&quot;:true,&quot;word&quot;:2}"/><path d="M240.00692,354.85063l-1.84438,-2.89645v2.89645h-0.83776v-4.31221h0.95466l1.71449,2.77306v-2.77306h0.84426v4.31221z" data-paper-data="{&quot;glyphName&quot;:&quot;N&quot;,&quot;glyphIndex&quot;:14,&quot;word&quot;:2}"/><path d="M244.01701,354.85063v-3.55887h-1.29886v-0.75334h3.50692v0.75334h-1.30535v3.55887z" data-paper-data="{&quot;glyphName&quot;:&quot;T&quot;,&quot;glyphIndex&quot;:15,&quot;word&quot;:2}"/><path d="M248.1104,354.85063v-4.31221h3.16922v0.75334h-2.29249v0.92219h2.11065v0.75983h-2.11065v1.11052h2.39639v0.76633z" data-paper-data="{&quot;glyphName&quot;:&quot;E&quot;,&quot;glyphIndex&quot;:16,&quot;word&quot;:2}"/><path d="M256.46307,354.85063l-0.01948,-0.42862c-0.10391,0.18184 -0.2706,0.32363 -0.50006,0.42538c-0.22947,0.10174 -0.49357,0.15262 -0.7923,0.15262c-0.29874,0 -0.56825,-0.06386 -0.80854,-0.19158c-0.24029,-0.12772 -0.44594,-0.29874 -0.61696,-0.51305c-0.17102,-0.21431 -0.30198,-0.46109 -0.3929,-0.74035c-0.09092,-0.27925 -0.13638,-0.56825 -0.13638,-0.86699c0,-0.31606 0.04546,-0.61371 0.13638,-0.89297c0.09092,-0.27925 0.22514,-0.52279 0.40265,-0.73061c0.17751,-0.20782 0.39832,-0.37126 0.66242,-0.49032c0.2641,-0.11906 0.5715,-0.17859 0.92219,-0.17859c0.25544,0 0.49465,0.0368 0.71762,0.1104c0.22297,0.0736 0.4178,0.17535 0.58449,0.30523c0.16669,0.12989 0.3009,0.28467 0.40265,0.46434c0.10174,0.17968 0.16127,0.37775 0.17859,0.59423h-0.9092c-0.01299,-0.09958 -0.04762,-0.19375 -0.10391,-0.2825c-0.05628,-0.08876 -0.12772,-0.1656 -0.21431,-0.23055c-0.08659,-0.06494 -0.18725,-0.1169 -0.30198,-0.15586c-0.11473,-0.03897 -0.23271,-0.05845 -0.35394,-0.05845c-0.36368,0 -0.65484,0.1353 -0.87348,0.40589c-0.21864,0.2706 -0.32796,0.6635 -0.32796,1.17871c0,0.17751 0.02273,0.3561 0.06819,0.53578c0.04546,0.17968 0.1169,0.34203 0.21431,0.48707c0.09741,0.14504 0.22189,0.26302 0.37342,0.35394c0.15153,0.09092 0.33121,0.13638 0.53903,0.13638c0.1472,0 0.28467,-0.02598 0.41239,-0.07793c0.12772,-0.05195 0.23921,-0.12339 0.33446,-0.21431c0.09525,-0.09092 0.16993,-0.19591 0.22405,-0.31497c0.05412,-0.11906 0.08118,-0.2457 0.08118,-0.37992h-0.95466v-0.72087h1.79892v2.31846z" data-paper-data="{&quot;glyphName&quot;:&quot;G&quot;,&quot;glyphIndex&quot;:17,&quot;word&quot;:2}"/><path d="M260.68029,351.28526v1.14949h1.13001c0.24245,0 0.41347,-0.05412 0.51305,-0.16236c0.09958,-0.10824 0.14937,-0.24462 0.14937,-0.40914c0,-0.16885 -0.04871,-0.3074 -0.14612,-0.41563c-0.09741,-0.10824 -0.25869,-0.16236 -0.48382,-0.16236zM262.31685,354.85063v-1.11052c0,-0.20782 -0.04762,-0.3561 -0.14287,-0.44486c-0.09525,-0.08876 -0.27276,-0.13313 -0.53253,-0.13313h-0.96116v1.68852h-0.87673v-4.31221h2.18858c0.19916,0 0.37992,0.03139 0.54227,0.09417c0.16236,0.06278 0.30198,0.14937 0.41888,0.25977c0.1169,0.1104 0.20674,0.24245 0.26951,0.39615c0.06278,0.1537 0.09417,0.3193 0.09417,0.49681c0,0.23379 -0.0552,0.44053 -0.1656,0.62021c-0.1104,0.17968 -0.26951,0.30631 -0.47733,0.37992c0.1905,0.06061 0.3258,0.1537 0.40589,0.27925c0.0801,0.12556 0.12014,0.31389 0.12014,0.565v1.22093z" data-paper-data="{&quot;glyphName&quot;:&quot;R&quot;,&quot;glyphIndex&quot;:18,&quot;word&quot;:2}"/><path d="M267.17301,351.50607h-0.00649l-0.55201,1.71449h1.09754zM268.24457,354.85063l-0.27276,-0.88972h-1.5911l-0.30523,0.88972h-0.95466l1.53915,-4.31221h1.04558l1.51966,4.31221z" data-paper-data="{&quot;glyphName&quot;:&quot;A&quot;,&quot;glyphIndex&quot;:19,&quot;word&quot;:2}"/><path d="M271.10956,354.85063v-4.31221h0.90271v3.5264h2.13662v0.78581z" data-paper-data="{&quot;glyphName&quot;:&quot;L&quot;,&quot;glyphIndex&quot;:20,&quot;lastGlyphOfWord&quot;:true,&quot;word&quot;:2}"/><path d="M279.05638,353.1816v-0.65592h1.61058v0.65592z" data-paper-data="{&quot;glyphName&quot;:&quot;-&quot;,&quot;glyphIndex&quot;:21,&quot;firstGlyphOfWord&quot;:true,&quot;lastGlyphOfWord&quot;:true,&quot;word&quot;:3}"/><path d="M288.15169,351.8113c-0.02165,-0.22081 -0.10174,-0.38533 -0.24029,-0.49357c-0.13854,-0.10824 -0.34636,-0.16236 -0.62345,-0.16236c-0.51088,0 -0.76633,0.17535 -0.76633,0.52604c0,0.12556 0.05304,0.23055 0.15911,0.31497c0.10607,0.08443 0.27601,0.15478 0.5098,0.21106c0.27709,0.06494 0.51738,0.12556 0.72087,0.18184c0.20349,0.05628 0.38966,0.12123 0.55851,0.19483c0.09525,0.03897 0.18509,0.08767 0.26951,0.14612c0.08443,0.05845 0.15586,0.13097 0.21431,0.21756c0.05845,0.08659 0.10499,0.1905 0.13963,0.31173c0.03464,0.12123 0.05195,0.26843 0.05195,0.44161c0,0.20782 -0.0433,0.39182 -0.12989,0.55201c-0.08659,0.16019 -0.20349,0.29549 -0.35069,0.40589c-0.1472,0.1104 -0.32039,0.19483 -0.51954,0.25328c-0.19916,0.05845 -0.40914,0.08767 -0.62995,0.08767c-0.62778,0 -1.0997,-0.12123 -1.41576,-0.36368c-0.31606,-0.24245 -0.48274,-0.6018 -0.50006,-1.07805h0.87024c0.00433,0.22081 0.09417,0.39507 0.26951,0.52279c0.17535,0.12772 0.39507,0.19158 0.65917,0.19158c0.28575,0 0.50223,-0.05195 0.64943,-0.15586c0.1472,-0.10391 0.22081,-0.24462 0.22081,-0.42213c0,-0.06927 -0.00866,-0.13313 -0.02598,-0.19158c-0.01732,-0.05845 -0.05087,-0.11149 -0.10066,-0.15911c-0.04979,-0.04762 -0.11798,-0.08984 -0.20457,-0.12664c-0.08659,-0.0368 -0.19916,-0.07035 -0.3377,-0.10066c-0.32904,-0.06927 -0.61371,-0.13963 -0.854,-0.21106c-0.24029,-0.07144 -0.43836,-0.16019 -0.59423,-0.26627c-0.15586,-0.10607 -0.2706,-0.23488 -0.3442,-0.38641c-0.0736,-0.15153 -0.1104,-0.3442 -0.1104,-0.57799c0,-0.17751 0.03247,-0.3442 0.09741,-0.50006c0.06494,-0.15586 0.16452,-0.29116 0.29874,-0.40589c0.13422,-0.11473 0.29982,-0.20565 0.49681,-0.27276c0.19699,-0.06711 0.42971,-0.10066 0.69814,-0.10066c0.25977,0 0.49357,0.03355 0.70138,0.10066c0.20782,0.06711 0.38641,0.16236 0.53578,0.28575c0.14937,0.12339 0.26518,0.27276 0.34744,0.44811c0.08226,0.17535 0.12772,0.36909 0.13638,0.58124z" data-paper-data="{&quot;glyphName&quot;:&quot;S&quot;,&quot;glyphIndex&quot;:22,&quot;firstGlyphOfWord&quot;:true,&quot;word&quot;:4}"/><path d="M291.03899,354.85063v-4.31221h3.16922v0.75334h-2.29249v0.92219h2.11065v0.75983h-2.11065v1.11052h2.39639v0.76633z" data-paper-data="{&quot;glyphName&quot;:&quot;E&quot;,&quot;glyphIndex&quot;:23,&quot;word&quot;:4}"/><path d="M299.97038,353.36993c-0.04762,0.24678 -0.12339,0.46975 -0.2273,0.66891c-0.10391,0.19916 -0.23488,0.37017 -0.3929,0.51305c-0.15803,0.14287 -0.34095,0.25328 -0.54877,0.33121c-0.20782,0.07793 -0.43728,0.1169 -0.6884,0.1169c-0.28142,0 -0.54444,-0.04762 -0.78906,-0.14287c-0.24462,-0.09525 -0.45568,-0.23812 -0.63319,-0.42862c-0.17751,-0.1905 -0.31714,-0.42538 -0.41888,-0.70463c-0.10174,-0.27925 -0.15262,-0.60505 -0.15262,-0.97739c0,-0.36368 0.04654,-0.69164 0.13963,-0.98389c0.09308,-0.29224 0.22622,-0.53903 0.3994,-0.74035c0.17318,-0.20132 0.38425,-0.3561 0.63319,-0.46434c0.24895,-0.10824 0.52712,-0.16236 0.83452,-0.16236c0.26843,0 0.51197,0.04005 0.73061,0.12014c0.21864,0.0801 0.40698,0.1905 0.565,0.33121c0.15803,0.14071 0.28358,0.30631 0.37667,0.49681c0.09308,0.1905 0.15045,0.39399 0.1721,0.61046h-0.90271c-0.06061,-0.24678 -0.17751,-0.43836 -0.35069,-0.57474c-0.17318,-0.13638 -0.36801,-0.20457 -0.58449,-0.20457c-0.37667,0 -0.65376,0.1353 -0.83127,0.40589c-0.17751,0.2706 -0.26627,0.64185 -0.26627,1.11377c0,0.48058 0.08767,0.854 0.26302,1.12027c0.17535,0.26627 0.43836,0.3994 0.78906,0.3994c0.26843,0 0.48382,-0.07252 0.64618,-0.21756c0.16236,-0.14504 0.27384,-0.35394 0.33446,-0.6267z" data-paper-data="{&quot;glyphName&quot;:&quot;C&quot;,&quot;glyphIndex&quot;:24,&quot;word&quot;:4}"/><path d="M302.90383,354.85063v-3.55887h-1.29886v-0.75334h3.50692v0.75334h-1.30535v3.55887z" data-paper-data="{&quot;glyphName&quot;:&quot;T&quot;,&quot;glyphIndex&quot;:25,&quot;word&quot;:4}"/><path d="M308.8281,354.22718c0.16019,0 0.31173,-0.02922 0.4546,-0.08767c0.14287,-0.05845 0.26735,-0.1472 0.37342,-0.26627c0.10607,-0.11906 0.18942,-0.27168 0.25003,-0.45785c0.06061,-0.18617 0.09092,-0.40698 0.09092,-0.66242c0,-0.51088 -0.09958,-0.89838 -0.29874,-1.16248c-0.19916,-0.2641 -0.48924,-0.39615 -0.87024,-0.39615c-0.381,0 -0.67324,0.13205 -0.87673,0.39615c-0.20349,0.2641 -0.30523,0.65159 -0.30523,1.16248c0,0.51088 0.10283,0.88431 0.30848,1.12027c0.20565,0.23596 0.49681,0.35394 0.87348,0.35394zM308.8281,355c-0.66675,0 -1.17871,-0.19483 -1.5359,-0.58449c-0.35719,-0.38966 -0.53578,-0.95033 -0.53578,-1.68202c0,-0.36368 0.04546,-0.69056 0.13638,-0.98064c0.09092,-0.29008 0.22514,-0.53578 0.40265,-0.7371c0.17751,-0.20132 0.39399,-0.35502 0.64943,-0.46109c0.25544,-0.10607 0.54985,-0.15911 0.88322,-0.15911c0.32904,0 0.62237,0.05304 0.87998,0.15911c0.25761,0.10607 0.473,0.26085 0.64618,0.46434c0.17318,0.20349 0.30523,0.45135 0.39615,0.7436c0.09092,0.29224 0.13638,0.62237 0.13638,0.99038c0,0.74468 -0.17643,1.30535 -0.52928,1.68202c-0.35286,0.37667 -0.86266,0.565 -1.52941,0.565z" data-paper-data="{&quot;glyphName&quot;:&quot;O&quot;,&quot;glyphIndex&quot;:26,&quot;word&quot;:4}"/><path d="M313.74915,351.28526v1.14949h1.13001c0.24245,0 0.41347,-0.05412 0.51305,-0.16236c0.09958,-0.10824 0.14937,-0.24462 0.14937,-0.40914c0,-0.16885 -0.04871,-0.3074 -0.14612,-0.41563c-0.09741,-0.10824 -0.25869,-0.16236 -0.48382,-0.16236zM315.38571,354.85063v-1.11052c0,-0.20782 -0.04762,-0.3561 -0.14287,-0.44486c-0.09525,-0.08876 -0.27276,-0.13313 -0.53253,-0.13313h-0.96116v1.68852h-0.87673v-4.31221h2.18858c0.19916,0 0.37992,0.03139 0.54227,0.09417c0.16236,0.06278 0.30198,0.14937 0.41888,0.25977c0.1169,0.1104 0.20674,0.24245 0.26951,0.39615c0.06278,0.1537 0.09417,0.3193 0.09417,0.49681c0,0.23379 -0.0552,0.44053 -0.1656,0.62021c-0.1104,0.17968 -0.26951,0.30631 -0.47733,0.37992c0.1905,0.06061 0.3258,0.1537 0.40589,0.27925c0.0801,0.12556 0.12014,0.31389 0.12014,0.565v1.22093z" data-paper-data="{&quot;glyphName&quot;:&quot;R&quot;,&quot;glyphIndex&quot;:27,&quot;lastGlyphOfWord&quot;:true,&quot;word&quot;:4}"/><path d="M324.70407,354.85063l-0.01948,-0.42862c-0.10391,0.18184 -0.2706,0.32363 -0.50006,0.42538c-0.22947,0.10174 -0.49357,0.15262 -0.7923,0.15262c-0.29874,0 -0.56825,-0.06386 -0.80854,-0.19158c-0.24029,-0.12772 -0.44594,-0.29874 -0.61696,-0.51305c-0.17102,-0.21431 -0.30198,-0.46109 -0.3929,-0.74035c-0.09092,-0.27925 -0.13638,-0.56825 -0.13638,-0.86699c0,-0.31606 0.04546,-0.61371 0.13638,-0.89297c0.09092,-0.27925 0.22514,-0.52279 0.40265,-0.73061c0.17751,-0.20782 0.39832,-0.37126 0.66242,-0.49032c0.2641,-0.11906 0.5715,-0.17859 0.92219,-0.17859c0.25544,0 0.49465,0.0368 0.71762,0.1104c0.22297,0.0736 0.4178,0.17535 0.58449,0.30523c0.16669,0.12989 0.3009,0.28467 0.40265,0.46434c0.10174,0.17968 0.16127,0.37775 0.17859,0.59423h-0.9092c-0.01299,-0.09958 -0.04762,-0.19375 -0.10391,-0.2825c-0.05628,-0.08876 -0.12772,-0.1656 -0.21431,-0.23055c-0.08659,-0.06494 -0.18725,-0.1169 -0.30198,-0.15586c-0.11473,-0.03897 -0.23271,-0.05845 -0.35394,-0.05845c-0.36368,0 -0.65484,0.1353 -0.87348,0.40589c-0.21864,0.2706 -0.32796,0.6635 -0.32796,1.17871c0,0.17751 0.02273,0.3561 0.06819,0.53578c0.04546,0.17968 0.1169,0.34203 0.21431,0.48707c0.09741,0.14504 0.22189,0.26302 0.37342,0.35394c0.15153,0.09092 0.33121,0.13638 0.53903,0.13638c0.1472,0 0.28467,-0.02598 0.41239,-0.07793c0.12772,-0.05195 0.23921,-0.12339 0.33446,-0.21431c0.09525,-0.09092 0.16993,-0.19591 0.22405,-0.31497c0.05412,-0.11906 0.08118,-0.2457 0.08118,-0.37992h-0.95466v-0.72087h1.79892v2.31846z" data-paper-data="{&quot;glyphName&quot;:&quot;G&quot;,&quot;glyphIndex&quot;:28,&quot;firstGlyphOfWord&quot;:true,&quot;word&quot;:5}"/><path d="M329.603,351.50607h-0.00649l-0.55201,1.71449h1.09754zM330.67456,354.85063l-0.27276,-0.88972h-1.5911l-0.30523,0.88972h-0.95466l1.53915,-4.31221h1.04558l1.51966,4.31221z" data-paper-data="{&quot;glyphName&quot;:&quot;A&quot;,&quot;glyphIndex&quot;:29,&quot;word&quot;:5}"/><path d="M335.77593,351.8113c-0.02165,-0.22081 -0.10174,-0.38533 -0.24029,-0.49357c-0.13854,-0.10824 -0.34636,-0.16236 -0.62345,-0.16236c-0.51088,0 -0.76633,0.17535 -0.76633,0.52604c0,0.12556 0.05304,0.23055 0.15911,0.31497c0.10607,0.08443 0.27601,0.15478 0.5098,0.21106c0.27709,0.06494 0.51738,0.12556 0.72087,0.18184c0.20349,0.05628 0.38966,0.12123 0.55851,0.19483c0.09525,0.03897 0.18509,0.08767 0.26951,0.14612c0.08443,0.05845 0.15586,0.13097 0.21431,0.21756c0.05845,0.08659 0.10499,0.1905 0.13963,0.31173c0.03464,0.12123 0.05195,0.26843 0.05195,0.44161c0,0.20782 -0.0433,0.39182 -0.12989,0.55201c-0.08659,0.16019 -0.20349,0.29549 -0.35069,0.40589c-0.1472,0.1104 -0.32039,0.19483 -0.51954,0.25328c-0.19916,0.05845 -0.40914,0.08767 -0.62995,0.08767c-0.62778,0 -1.0997,-0.12123 -1.41576,-0.36368c-0.31606,-0.24245 -0.48274,-0.6018 -0.50006,-1.07805h0.87024c0.00433,0.22081 0.09417,0.39507 0.26951,0.52279c0.17535,0.12772 0.39507,0.19158 0.65917,0.19158c0.28575,0 0.50223,-0.05195 0.64943,-0.15586c0.1472,-0.10391 0.22081,-0.24462 0.22081,-0.42213c0,-0.06927 -0.00866,-0.13313 -0.02598,-0.19158c-0.01732,-0.05845 -0.05087,-0.11149 -0.10066,-0.15911c-0.04979,-0.04762 -0.11798,-0.08984 -0.20457,-0.12664c-0.08659,-0.0368 -0.19916,-0.07035 -0.3377,-0.10066c-0.32904,-0.06927 -0.61371,-0.13963 -0.854,-0.21106c-0.24029,-0.07144 -0.43836,-0.16019 -0.59423,-0.26627c-0.15586,-0.10607 -0.2706,-0.23488 -0.3442,-0.38641c-0.0736,-0.15153 -0.1104,-0.3442 -0.1104,-0.57799c0,-0.17751 0.03247,-0.3442 0.09741,-0.50006c0.06494,-0.15586 0.16452,-0.29116 0.29874,-0.40589c0.13422,-0.11473 0.29982,-0.20565 0.49681,-0.27276c0.19699,-0.06711 0.42971,-0.10066 0.69814,-0.10066c0.25977,0 0.49357,0.03355 0.70138,0.10066c0.20782,0.06711 0.38641,0.16236 0.53578,0.28575c0.14937,0.12339 0.26518,0.27276 0.34744,0.44811c0.08226,0.17535 0.12772,0.36909 0.13638,0.58124z" data-paper-data="{&quot;glyphName&quot;:&quot;S&quot;,&quot;glyphIndex&quot;:30,&quot;word&quot;:5}"/><path d="M339.62258,354.85063v-3.55887h-1.29886v-0.75334h3.50692v0.75334h-1.30535v3.55887z" data-paper-data="{&quot;glyphName&quot;:&quot;T&quot;,&quot;glyphIndex&quot;:31,&quot;word&quot;:5}"/><path d="M344.60125,351.28526v1.14949h1.13001c0.24245,0 0.41347,-0.05412 0.51305,-0.16236c0.09958,-0.10824 0.14937,-0.24462 0.14937,-0.40914c0,-0.16885 -0.04871,-0.3074 -0.14612,-0.41563c-0.09741,-0.10824 -0.25869,-0.16236 -0.48382,-0.16236zM346.23781,354.85063v-1.11052c0,-0.20782 -0.04762,-0.3561 -0.14287,-0.44486c-0.09525,-0.08876 -0.27276,-0.13313 -0.53253,-0.13313h-0.96116v1.68852h-0.87673v-4.31221h2.18858c0.19916,0 0.37992,0.03139 0.54227,0.09417c0.16236,0.06278 0.30198,0.14937 0.41888,0.25977c0.1169,0.1104 0.20674,0.24245 0.26951,0.39615c0.06278,0.1537 0.09417,0.3193 0.09417,0.49681c0,0.23379 -0.0552,0.44053 -0.1656,0.62021c-0.1104,0.17968 -0.26951,0.30631 -0.47733,0.37992c0.1905,0.06061 0.3258,0.1537 0.40589,0.27925c0.0801,0.12556 0.12014,0.31389 0.12014,0.565v1.22093z" data-paper-data="{&quot;glyphName&quot;:&quot;R&quot;,&quot;glyphIndex&quot;:32,&quot;word&quot;:5}"/><path d="M351.19785,354.22718c0.16019,0 0.31173,-0.02922 0.4546,-0.08767c0.14287,-0.05845 0.26735,-0.1472 0.37342,-0.26627c0.10607,-0.11906 0.18942,-0.27168 0.25003,-0.45785c0.06061,-0.18617 0.09092,-0.40698 0.09092,-0.66242c0,-0.51088 -0.09958,-0.89838 -0.29874,-1.16248c-0.19916,-0.2641 -0.48924,-0.39615 -0.87024,-0.39615c-0.381,0 -0.67324,0.13205 -0.87673,0.39615c-0.20349,0.2641 -0.30523,0.65159 -0.30523,1.16248c0,0.51088 0.10283,0.88431 0.30848,1.12027c0.20565,0.23596 0.49681,0.35394 0.87348,0.35394zM351.19785,355c-0.66675,0 -1.17871,-0.19483 -1.5359,-0.58449c-0.35719,-0.38966 -0.53578,-0.95033 -0.53578,-1.68202c0,-0.36368 0.04546,-0.69056 0.13638,-0.98064c0.09092,-0.29008 0.22514,-0.53578 0.40265,-0.7371c0.17751,-0.20132 0.39399,-0.35502 0.64943,-0.46109c0.25544,-0.10607 0.54985,-0.15911 0.88322,-0.15911c0.32904,0 0.62237,0.05304 0.87998,0.15911c0.25761,0.10607 0.473,0.26085 0.64618,0.46434c0.17318,0.20349 0.30523,0.45135 0.39615,0.7436c0.09092,0.29224 0.13638,0.62237 0.13638,0.99038c0,0.74468 -0.17643,1.30535 -0.52928,1.68202c-0.35286,0.37667 -0.86266,0.565 -1.52941,0.565z" data-paper-data="{&quot;glyphName&quot;:&quot;O&quot;,&quot;glyphIndex&quot;:33,&quot;word&quot;:5}"/><path d="M357.92432,354.85063l-1.84438,-2.89645v2.89645h-0.83776v-4.31221h0.95466l1.71449,2.77306v-2.77306h0.84426v4.31221z" data-paper-data="{&quot;glyphName&quot;:&quot;N&quot;,&quot;glyphIndex&quot;:34,&quot;word&quot;:5}"/><path d="M362.80594,354.22718c0.16019,0 0.31173,-0.02922 0.4546,-0.08767c0.14287,-0.05845 0.26735,-0.1472 0.37342,-0.26627c0.10607,-0.11906 0.18942,-0.27168 0.25003,-0.45785c0.06061,-0.18617 0.09092,-0.40698 0.09092,-0.66242c0,-0.51088 -0.09958,-0.89838 -0.29874,-1.16248c-0.19916,-0.2641 -0.48924,-0.39615 -0.87024,-0.39615c-0.381,0 -0.67324,0.13205 -0.87673,0.39615c-0.20349,0.2641 -0.30523,0.65159 -0.30523,1.16248c0,0.51088 0.10283,0.88431 0.30848,1.12027c0.20565,0.23596 0.49681,0.35394 0.87348,0.35394zM362.80594,355c-0.66675,0 -1.17871,-0.19483 -1.5359,-0.58449c-0.35719,-0.38966 -0.53578,-0.95033 -0.53578,-1.68202c0,-0.36368 0.04546,-0.69056 0.13638,-0.98064c0.09092,-0.29008 0.22514,-0.53578 0.40265,-0.7371c0.17751,-0.20132 0.39399,-0.35502 0.64943,-0.46109c0.25544,-0.10607 0.54985,-0.15911 0.88322,-0.15911c0.32904,0 0.62237,0.05304 0.87998,0.15911c0.25761,0.10607 0.473,0.26085 0.64618,0.46434c0.17318,0.20349 0.30523,0.45135 0.39615,0.7436c0.09092,0.29224 0.13638,0.62237 0.13638,0.99038c0,0.74468 -0.17643,1.30535 -0.52928,1.68202c-0.35286,0.37667 -0.86266,0.565 -1.52941,0.565z" data-paper-data="{&quot;glyphName&quot;:&quot;O&quot;,&quot;glyphIndex&quot;:35,&quot;word&quot;:5}"/><path d="M370.21213,354.85063v-2.9549l-0.80529,2.9549h-0.89621l-0.7988,-2.94191v2.94191h-0.83776v-4.31221h1.32484l0.77932,3.16272l0.77932,-3.16272h1.29886v4.31221z" data-paper-data="{&quot;glyphName&quot;:&quot;M&quot;,&quot;glyphIndex&quot;:36,&quot;word&quot;:5}"/><path d="M373.00662,354.85063v-4.31221h0.90271v4.31221z" data-paper-data="{&quot;glyphName&quot;:&quot;I&quot;,&quot;glyphIndex&quot;:37,&quot;word&quot;:5}"/><path d="M379.63627,353.36993c-0.04762,0.24678 -0.12339,0.46975 -0.2273,0.66891c-0.10391,0.19916 -0.23488,0.37017 -0.3929,0.51305c-0.15803,0.14287 -0.34095,0.25328 -0.54877,0.33121c-0.20782,0.07793 -0.43728,0.1169 -0.6884,0.1169c-0.28142,0 -0.54444,-0.04762 -0.78906,-0.14287c-0.24462,-0.09525 -0.45568,-0.23812 -0.63319,-0.42862c-0.17751,-0.1905 -0.31714,-0.42538 -0.41888,-0.70463c-0.10174,-0.27925 -0.15262,-0.60505 -0.15262,-0.97739c0,-0.36368 0.04654,-0.69164 0.13963,-0.98389c0.09308,-0.29224 0.22622,-0.53903 0.3994,-0.74035c0.17318,-0.20132 0.38425,-0.3561 0.63319,-0.46434c0.24895,-0.10824 0.52712,-0.16236 0.83452,-0.16236c0.26843,0 0.51197,0.04005 0.73061,0.12014c0.21864,0.0801 0.40698,0.1905 0.565,0.33121c0.15803,0.14071 0.28358,0.30631 0.37667,0.49681c0.09308,0.1905 0.15045,0.39399 0.1721,0.61046h-0.90271c-0.06061,-0.24678 -0.17751,-0.43836 -0.35069,-0.57474c-0.17318,-0.13638 -0.36801,-0.20457 -0.58449,-0.20457c-0.37667,0 -0.65376,0.1353 -0.83127,0.40589c-0.17751,0.2706 -0.26627,0.64185 -0.26627,1.11377c0,0.48058 0.08767,0.854 0.26302,1.12027c0.17535,0.26627 0.43836,0.3994 0.78906,0.3994c0.26843,0 0.48382,-0.07252 0.64618,-0.21756c0.16236,-0.14504 0.27384,-0.35394 0.33446,-0.6267z" data-paper-data="{&quot;glyphName&quot;:&quot;C&quot;,&quot;glyphIndex&quot;:38,&quot;word&quot;:5}"/><path d="M383.5456,354.22718c0.16019,0 0.31173,-0.02922 0.4546,-0.08767c0.14287,-0.05845 0.26735,-0.1472 0.37342,-0.26627c0.10607,-0.11906 0.18942,-0.27168 0.25003,-0.45785c0.06061,-0.18617 0.09092,-0.40698 0.09092,-0.66242c0,-0.51088 -0.09958,-0.89838 -0.29874,-1.16248c-0.19916,-0.2641 -0.48924,-0.39615 -0.87024,-0.39615c-0.381,0 -0.67324,0.13205 -0.87673,0.39615c-0.20349,0.2641 -0.30523,0.65159 -0.30523,1.16248c0,0.51088 0.10283,0.88431 0.30848,1.12027c0.20565,0.23596 0.49681,0.35394 0.87348,0.35394zM383.5456,355c-0.66675,0 -1.17871,-0.19483 -1.5359,-0.58449c-0.35719,-0.38966 -0.53578,-0.95033 -0.53578,-1.68202c0,-0.36368 0.04546,-0.69056 0.13638,-0.98064c0.09092,-0.29008 0.22514,-0.53578 0.40265,-0.7371c0.17751,-0.20132 0.39399,-0.35502 0.64943,-0.46109c0.25544,-0.10607 0.54985,-0.15911 0.88322,-0.15911c0.32904,0 0.62237,0.05304 0.87998,0.15911c0.25761,0.10607 0.473,0.26085 0.64618,0.46434c0.17318,0.20349 0.30523,0.45135 0.39615,0.7436c0.09092,0.29224 0.13638,0.62237 0.13638,0.99038c0,0.74468 -0.17643,1.30535 -0.52928,1.68202c-0.35286,0.37667 -0.86266,0.565 -1.52941,0.565z" data-paper-data="{&quot;glyphName&quot;:&quot;O&quot;,&quot;glyphIndex&quot;:39,&quot;lastGlyphOfWord&quot;:true,&quot;word&quot;:5}"/></g><g data-paper-data="{&quot;stacked&quot;:true,&quot;isPrimaryText&quot;:true}" fill-rule="nonzero"><path d="M118.43402,292.67357c1.9608,0 3.43851,-0.37653 4.43312,-1.12959c0.99461,-0.75306 1.52033,-1.85424 1.57717,-3.30353c0.02842,-0.08525 0.05683,-0.20603 0.08525,-0.36232c0.02842,-0.1563 0.04263,-0.33391 0.04263,-0.53283c0,-0.31259 -0.09236,-0.68912 -0.27707,-1.12959c-0.18471,-0.44047 -0.54704,-0.89515 -1.08697,-1.36404c-0.53993,-0.46889 -1.3001,-0.91646 -2.2805,-1.34272c-0.9804,-0.42626 -2.25208,-0.79569 -3.81504,-1.10828c-1.1367,-0.28417 -2.20235,-0.71754 -3.19696,-1.3001c-0.99461,-0.58256 -1.86845,-1.28589 -2.62151,-2.11c-0.75306,-0.82411 -1.34272,-1.75478 -1.76899,-2.79202c-0.42626,-1.03724 -0.63939,-2.15262 -0.63939,-3.34616c0,-1.53454 0.29128,-2.87727 0.87384,-4.02817c0.58256,-1.15091 1.37114,-2.1171 2.36575,-2.89858c0.99461,-0.78148 2.14552,-1.36404 3.45272,-1.74767c1.3072,-0.38364 2.67124,-0.57545 4.09211,-0.57545c1.16512,0 2.18104,0.04973 3.04777,0.14919c0.86673,0.09946 1.64111,0.23444 2.32313,0.40495c0.68202,0.1705 1.3072,0.37653 1.87555,0.61808c0.56835,0.24155 1.15091,0.51862 1.74767,0.83121c-0.28417,0.79569 -0.56835,1.55586 -0.85252,2.2805c-0.28417,0.72465 -0.55414,1.42798 -0.8099,2.11c-1.27879,-0.59677 -2.49363,-1.05145 -3.64454,-1.36404c-1.15091,-0.31259 -2.36575,-0.46889 -3.64454,-0.46889c-1.9608,0 -3.54508,0.41205 -4.75282,1.23616c-1.20774,0.82411 -1.81161,1.97501 -1.81161,3.45272c0.14209,1.05145 0.3268,1.87555 0.55414,2.47232c0.22734,0.59677 0.53993,1.06565 0.93778,1.40666c0.39784,0.34101 0.90936,0.61098 1.53454,0.8099c0.62518,0.19892 1.43508,0.44047 2.42969,0.72465c0.96619,0.25576 2.07447,0.59677 3.32484,1.02303c1.25037,0.42626 2.42969,1.00172 3.53797,1.72636c1.10828,0.72465 2.03895,1.64821 2.79202,2.7707c0.75306,1.12249 1.12959,2.53626 1.12959,4.24131c0,1.50613 -0.30549,2.83464 -0.91646,3.98555c-0.61098,1.15091 -1.42087,2.11 -2.42969,2.87727c-1.00882,0.76727 -2.16683,1.34983 -3.47403,1.74767c-1.3072,0.39784 -2.67124,0.59677 -4.09211,0.59677c-1.16512,0 -2.18104,-0.04263 -3.04777,-0.12788c-0.86673,-0.08525 -1.64111,-0.21313 -2.32313,-0.38364c-0.68202,-0.1705 -1.3072,-0.37653 -1.87555,-0.61808c-0.56835,-0.24155 -1.15091,-0.51862 -1.74767,-0.83121c0.25576,-0.79569 0.53283,-1.55586 0.83121,-2.2805c0.29838,-0.72465 0.57545,-1.44219 0.83121,-2.15262c1.22195,0.56835 2.42969,1.01592 3.62323,1.34272c1.19353,0.3268 2.41548,0.4902 3.66585,0.4902zM124.44432,288.02732v0.21313c-0.05683,0.11367 -0.08525,0.1705 -0.08525,0.1705z" data-paper-data="{&quot;glyphName&quot;:&quot;S&quot;,&quot;glyphIndex&quot;:0,&quot;firstGlyphOfWord&quot;:true,&quot;word&quot;:1,&quot;line&quot;:1,&quot;firstGlyphOfFirstLine&quot;:true}" fill="#e40046"/><path d="M153.57931,281.93177v10.01715h14.27977v4.561h-19.13916v-32.05489h18.79815v4.561h-13.93876v8.35473h13.46987v4.561z" data-paper-data="{&quot;glyphName&quot;:&quot;E&quot;,&quot;glyphIndex&quot;:1,&quot;word&quot;:1,&quot;line&quot;:1}" fill="#e40046"/><path d="M199.97792,264.45504c1.9608,0 3.64454,0.28417 5.0512,0.85252c1.40666,0.56835 2.55757,1.32141 3.45272,2.25919c0.89515,0.93778 1.55586,2.02474 1.98212,3.2609c0.42626,1.23616 0.63939,2.52205 0.63939,3.85767c0,2.10289 -0.51862,4.01397 -1.55586,5.73322c-1.03724,1.71926 -2.53626,3.07619 -4.49706,4.0708c1.36404,1.87555 2.82754,3.85767 4.3905,5.94635c1.56296,2.08868 3.06909,4.11343 4.51838,6.07423h-5.79716l-8.18423,-11.38119h-5.96767v11.38119h-4.85939v-32.05489zM194.01025,269.01604v11.5517h6.26605c1.1367,0 2.08868,-0.1563 2.85595,-0.46889c0.76727,-0.31259 1.37825,-0.73885 1.83293,-1.27879c0.45468,-0.53993 0.78148,-1.16512 0.9804,-1.87555c0.19892,-0.71044 0.29838,-1.4635 0.29838,-2.25919c0,-1.81872 -0.4831,-3.21828 -1.44929,-4.19868c-0.96619,-0.9804 -2.35865,-1.4706 -4.17737,-1.4706z" data-paper-data="{&quot;glyphName&quot;:&quot;R&quot;,&quot;glyphIndex&quot;:2,&quot;word&quot;:1,&quot;line&quot;:1}" fill="#e40046"/><path d="M229.36867,264.45504h5.11514l8.82362,24.89369l8.82362,-24.89369h5.11514l-11.50907,32.05489h-4.81676z" data-paper-data="{&quot;glyphName&quot;:&quot;V&quot;,&quot;glyphIndex&quot;:3,&quot;word&quot;:1,&quot;line&quot;:1}" fill="#e40046"/><path d="M277.25919,264.45504h4.85939v32.05489h-4.85939z" data-paper-data="{&quot;glyphName&quot;:&quot;I&quot;,&quot;glyphIndex&quot;:4,&quot;word&quot;:1,&quot;line&quot;:1}" fill="#e40046"/><path d="M308.82388,280.56773c-0.02842,0.08525 -0.03552,0.1705 -0.02131,0.25576c0.01421,0.08525 0.02131,0.18471 0.02131,0.29838c0,0.39784 0.02131,0.86673 0.06394,1.40666c0.04263,0.53993 0.10657,0.92357 0.19182,1.15091c-0.05683,-0.05683 -0.08525,-0.11367 -0.08525,-0.1705c0.19892,1.19353 0.53283,2.33023 1.00172,3.41009c0.46889,1.07986 1.07986,2.03185 1.83293,2.85595c0.75306,0.82411 1.64111,1.47771 2.66414,1.9608c1.02303,0.4831 2.21656,0.72465 3.5806,0.72465c1.44929,0 2.7707,-0.24155 3.96424,-0.72465c1.19353,-0.4831 2.33023,-1.05145 3.41009,-1.70505c0.45468,0.82411 0.82411,1.54875 1.10828,2.17394c0.28417,0.62518 0.62518,1.29299 1.02303,2.00343c-1.33562,0.82411 -2.79202,1.49902 -4.36918,2.02474c-1.57717,0.52572 -3.34616,0.78858 -5.30696,0.78858c-2.21656,0 -4.18447,-0.42626 -5.90373,-1.27879c-1.71926,-0.85252 -3.16855,-2.01054 -4.34787,-3.47403c-1.17932,-1.4635 -2.08158,-3.18276 -2.70676,-5.15777c-0.62518,-1.97501 -0.93778,-4.08501 -0.93778,-6.32999c0,-0.45468 0.0071,-0.84542 0.02131,-1.17222c0.01421,-0.3268 0.03552,-0.60387 0.06394,-0.83121c0.19892,-1.84713 0.61808,-3.65875 1.25747,-5.43484c0.63939,-1.77609 1.50613,-3.36036 2.6002,-4.75282c1.09407,-1.39246 2.4368,-2.51494 4.02817,-3.36747c1.59138,-0.85252 3.43851,-1.27879 5.5414,-1.27879c1.93239,0 3.62323,0.23444 5.07252,0.70333c1.44929,0.46889 2.84175,1.15801 4.17737,2.06737l-2.25919,4.09211c-1.02303,-0.68202 -2.04606,-1.23616 -3.06909,-1.66242c-1.02303,-0.42626 -2.28761,-0.63939 -3.79373,-0.63939c-1.42087,0 -2.67835,0.33391 -3.77242,1.00172c-1.09407,0.66781 -2.01764,1.54875 -2.7707,2.64282c-0.75306,1.09407 -1.32141,2.33734 -1.70505,3.72979c-0.38364,1.39246 -0.57545,2.81333 -0.57545,4.26262zM309.12226,283.72207c-0.02842,0 -0.04263,-0.01421 -0.04263,-0.04263c0.02842,0.02842 0.04263,0.04263 0.04263,0.04263z" data-paper-data="{&quot;glyphName&quot;:&quot;C&quot;,&quot;glyphIndex&quot;:5,&quot;word&quot;:1,&quot;line&quot;:1}" fill="#e40046"/><path d="M348.23179,264.45504h4.85939v32.05489h-4.85939z" data-paper-data="{&quot;glyphName&quot;:&quot;I&quot;,&quot;glyphIndex&quot;:6,&quot;word&quot;:1,&quot;line&quot;:1}" fill="#e40046"/><path d="M389.30211,263.94352c0.11367,0 0.21313,0.0071 0.29838,0.02131c0.08525,0.01421 0.18471,0.02131 0.29838,0.02131h0.1705c0.14209,0 0.33391,0.02131 0.57545,0.06394c0.24155,0.04263 0.4831,0.08525 0.72465,0.12788c0.24155,0.04263 0.47599,0.09236 0.70333,0.14919c0.22734,0.05683 0.38364,0.09946 0.46889,0.12788c1.64821,0.42626 3.11882,1.1438 4.41181,2.15262c1.29299,1.00882 2.37286,2.21656 3.23959,3.62323c0.86673,1.40666 1.52744,2.98383 1.98212,4.73151c0.45468,1.74767 0.68202,3.5735 0.68202,5.47746c0,2.2734 -0.31259,4.41181 -0.93778,6.41524c-0.62518,2.00343 -1.53454,3.75821 -2.72808,5.26433c-1.19353,1.50613 -2.65703,2.69966 -4.3905,3.5806c-1.73346,0.88094 -3.70848,1.32141 -5.92504,1.32141c-2.21656,0 -4.19157,-0.44047 -5.92504,-1.32141c-1.73346,-0.88094 -3.19696,-2.07447 -4.3905,-3.5806c-1.19353,-1.50613 -2.10289,-3.2609 -2.72808,-5.26433c-0.62518,-2.00343 -0.93778,-4.14184 -0.93778,-6.41524c0,-2.24498 0.31259,-4.36918 0.93778,-6.37261c0.62518,-2.00343 1.53454,-3.7511 2.72808,-5.24302c1.19353,-1.49192 2.65703,-2.67835 4.3905,-3.55929c1.73346,-0.88094 3.70848,-1.32141 5.92504,-1.32141zM388.87585,268.50452c-1.56296,0 -2.91989,0.36232 -4.0708,1.08697c-1.15091,0.72465 -2.09579,1.65532 -2.83464,2.79202c-0.73885,1.1367 -1.29299,2.41548 -1.66242,3.83636c-0.36943,1.42087 -0.55414,2.82754 -0.55414,4.21999c0,1.27879 0.1634,2.62861 0.4902,4.04949c0.3268,1.42087 0.85252,2.72097 1.57717,3.9003c0.72465,1.17932 1.66242,2.15262 2.81333,2.91989c1.15091,0.76727 2.56468,1.15091 4.24131,1.15091c1.67663,0 3.0975,-0.38364 4.26262,-1.15091c1.16512,-0.76727 2.11,-1.74057 2.83464,-2.91989c0.72465,-1.17932 1.24326,-2.47942 1.55586,-3.9003c0.31259,-1.42087 0.46889,-2.7707 0.46889,-4.04949c0,-1.27879 -0.1634,-2.62151 -0.4902,-4.02817c-0.3268,-1.40666 -0.85252,-2.69255 -1.57717,-3.85767c-0.72465,-1.16512 -1.66242,-2.13131 -2.81333,-2.89858c-1.15091,-0.76727 -2.56468,-1.15091 -4.24131,-1.15091z" data-paper-data="{&quot;glyphName&quot;:&quot;O&quot;,&quot;glyphIndex&quot;:7,&quot;word&quot;:1,&quot;line&quot;:1}" fill="#e40046"/><path d="M430.15931,292.67357c1.9608,0 3.43851,-0.37653 4.43312,-1.12959c0.99461,-0.75306 1.52033,-1.85424 1.57717,-3.30353c0.02842,-0.08525 0.05683,-0.20603 0.08525,-0.36232c0.02842,-0.1563 0.04263,-0.33391 0.04263,-0.53283c0,-0.31259 -0.09236,-0.68912 -0.27707,-1.12959c-0.18471,-0.44047 -0.54704,-0.89515 -1.08697,-1.36404c-0.53993,-0.46889 -1.3001,-0.91646 -2.2805,-1.34272c-0.9804,-0.42626 -2.25208,-0.79569 -3.81504,-1.10828c-1.1367,-0.28417 -2.20235,-0.71754 -3.19696,-1.3001c-0.99461,-0.58256 -1.86845,-1.28589 -2.62151,-2.11c-0.75306,-0.82411 -1.34272,-1.75478 -1.76899,-2.79202c-0.42626,-1.03724 -0.63939,-2.15262 -0.63939,-3.34616c0,-1.53454 0.29128,-2.87727 0.87384,-4.02817c0.58256,-1.15091 1.37114,-2.1171 2.36575,-2.89858c0.99461,-0.78148 2.14552,-1.36404 3.45272,-1.74767c1.3072,-0.38364 2.67124,-0.57545 4.09211,-0.57545c1.16512,0 2.18104,0.04973 3.04777,0.14919c0.86673,0.09946 1.64111,0.23444 2.32313,0.40495c0.68202,0.1705 1.3072,0.37653 1.87555,0.61808c0.56835,0.24155 1.15091,0.51862 1.74767,0.83121c-0.28417,0.79569 -0.56835,1.55586 -0.85252,2.2805c-0.28417,0.72465 -0.55414,1.42798 -0.8099,2.11c-1.27879,-0.59677 -2.49363,-1.05145 -3.64454,-1.36404c-1.15091,-0.31259 -2.36575,-0.46889 -3.64454,-0.46889c-1.9608,0 -3.54508,0.41205 -4.75282,1.23616c-1.20774,0.82411 -1.81161,1.97501 -1.81161,3.45272c0.14209,1.05145 0.3268,1.87555 0.55414,2.47232c0.22734,0.59677 0.53993,1.06565 0.93778,1.40666c0.39784,0.34101 0.90936,0.61098 1.53454,0.8099c0.62518,0.19892 1.43508,0.44047 2.42969,0.72465c0.96619,0.25576 2.07447,0.59677 3.32484,1.02303c1.25037,0.42626 2.42969,1.00172 3.53797,1.72636c1.10828,0.72465 2.03895,1.64821 2.79202,2.7707c0.75306,1.12249 1.12959,2.53626 1.12959,4.24131c0,1.50613 -0.30549,2.83464 -0.91646,3.98555c-0.61098,1.15091 -1.42087,2.11 -2.42969,2.87727c-1.00882,0.76727 -2.16683,1.34983 -3.47403,1.74767c-1.3072,0.39784 -2.67124,0.59677 -4.09211,0.59677c-1.16512,0 -2.18104,-0.04263 -3.04777,-0.12788c-0.86673,-0.08525 -1.64111,-0.21313 -2.32313,-0.38364c-0.68202,-0.1705 -1.3072,-0.37653 -1.87555,-0.61808c-0.56835,-0.24155 -1.15091,-0.51862 -1.74767,-0.83121c0.25576,-0.79569 0.53283,-1.55586 0.83121,-2.2805c0.29838,-0.72465 0.57545,-1.44219 0.83121,-2.15262c1.22195,0.56835 2.42969,1.01592 3.62323,1.34272c1.19353,0.3268 2.41548,0.4902 3.66585,0.4902zM436.1696,288.02732v0.21313c-0.05683,0.11367 -0.08525,0.1705 -0.08525,0.1705z" data-paper-data="{&quot;glyphName&quot;:&quot;S&quot;,&quot;glyphIndex&quot;:8,&quot;lastGlyphOfWord&quot;:true,&quot;word&quot;:1,&quot;line&quot;:1,&quot;lastGlyphOfFirstLine&quot;:true}" fill="#e40046"/><path d="M169.25509,322.74011v10.01715h14.27977v4.561h-19.13916v-32.05489h18.79815v4.561h-13.93876v8.35473h13.46987v4.561z" data-paper-data="{&quot;glyphName&quot;:&quot;E&quot;,&quot;glyphIndex&quot;:9,&quot;firstGlyphOfWord&quot;:true,&quot;word&quot;:2,&quot;line&quot;:2,&quot;firstGlyphOfSecondLine&quot;:true}" fill="#4298b5"/><path d="M204.95452,305.26338h4.81676v27.49389h12.10584v4.561h-16.9226z" data-paper-data="{&quot;glyphName&quot;:&quot;L&quot;,&quot;glyphIndex&quot;:10,&quot;word&quot;:2,&quot;line&quot;:2}" fill="#4298b5"/><path d="M242.44425,305.26338h4.85939v32.05489h-4.85939z" data-paper-data="{&quot;glyphName&quot;:&quot;I&quot;,&quot;glyphIndex&quot;:11,&quot;word&quot;:2,&quot;line&quot;:2}" fill="#4298b5"/><path d="M270.76935,305.306c1.10828,0 2.11,-0.0071 3.00515,-0.02131c0.89515,-0.01421 1.86845,-0.02131 2.91989,-0.02131l14.45028,24.38218v-24.38218h4.85939v32.05489h-5.96767l-14.3224,-24.29693c0,1.76188 0,3.68006 0,5.75453c0,2.07447 -0.0071,4.18447 -0.02131,6.32999c-0.01421,2.14552 -0.02131,4.26262 -0.02131,6.3513c0,2.08868 0,4.04238 0,5.8611h-4.85939z" data-paper-data="{&quot;glyphName&quot;:&quot;N&quot;,&quot;glyphIndex&quot;:12,&quot;word&quot;:2,&quot;line&quot;:2}" fill="#4298b5"/><path d="M321.30269,321.37607c-0.02842,0.08525 -0.03552,0.1705 -0.02131,0.25576c0.01421,0.08525 0.02131,0.18471 0.02131,0.29838c0,0.39784 0.02131,0.86673 0.06394,1.40666c0.04263,0.53993 0.10657,0.92357 0.19182,1.15091c-0.05683,-0.05683 -0.08525,-0.11367 -0.08525,-0.1705c0.19892,1.19353 0.53283,2.33023 1.00172,3.41009c0.46889,1.07986 1.07986,2.03185 1.83293,2.85595c0.75306,0.82411 1.64111,1.47771 2.66414,1.9608c1.02303,0.4831 2.21656,0.72465 3.5806,0.72465c1.44929,0 2.7707,-0.24155 3.96424,-0.72465c1.19353,-0.4831 2.33023,-1.05145 3.41009,-1.70505c0.45468,0.82411 0.82411,1.54875 1.10828,2.17394c0.28417,0.62518 0.62518,1.29299 1.02303,2.00343c-1.33562,0.82411 -2.79202,1.49902 -4.36918,2.02474c-1.57717,0.52572 -3.34616,0.78858 -5.30696,0.78858c-2.21656,0 -4.18447,-0.42626 -5.90373,-1.27879c-1.71926,-0.85252 -3.16855,-2.01054 -4.34787,-3.47403c-1.17932,-1.4635 -2.08158,-3.18276 -2.70676,-5.15777c-0.62518,-1.97501 -0.93778,-4.08501 -0.93778,-6.32999c0,-0.45468 0.0071,-0.84542 0.02131,-1.17222c0.01421,-0.3268 0.03552,-0.60387 0.06394,-0.83121c0.19892,-1.84713 0.61808,-3.65875 1.25747,-5.43484c0.63939,-1.77609 1.50613,-3.36036 2.6002,-4.75282c1.09407,-1.39246 2.4368,-2.51494 4.02817,-3.36747c1.59138,-0.85252 3.43851,-1.27879 5.5414,-1.27879c1.93239,0 3.62323,0.23444 5.07252,0.70333c1.44929,0.46889 2.84175,1.15801 4.17737,2.06737l-2.25919,4.09211c-1.02303,-0.68202 -2.04606,-1.23616 -3.06909,-1.66242c-1.02303,-0.42626 -2.28761,-0.63939 -3.79373,-0.63939c-1.42087,0 -2.67835,0.33391 -3.77242,1.00172c-1.09407,0.66781 -2.01764,1.54875 -2.7707,2.64282c-0.75306,1.09407 -1.32141,2.33734 -1.70505,3.72979c-0.38364,1.39246 -0.57545,2.81333 -0.57545,4.26262zM321.60108,324.53041c-0.02842,0 -0.04263,-0.01421 -0.04263,-0.04263c0.02842,0.02842 0.04263,0.04263 0.04263,0.04263z" data-paper-data="{&quot;glyphName&quot;:&quot;C&quot;,&quot;glyphIndex&quot;:13,&quot;word&quot;:2,&quot;line&quot;:2}" fill="#4298b5"/><path d="M385.60429,337.31827h-4.94464l-3.06909,-8.39736h-12.5321l-3.15434,8.39736h-4.94464l0.25576,-0.72465c0.53993,-1.50613 1.04434,-2.87727 1.51323,-4.11343c0.46889,-1.23616 0.93067,-2.48653 1.38535,-3.7511c0.45468,-1.26458 0.94488,-2.6002 1.4706,-4.00686c0.52572,-1.40666 1.11539,-3.01935 1.76899,-4.83807c0.6536,-1.81872 1.40666,-3.9145 2.25919,-6.28736c0.85252,-2.37286 1.86134,-5.15066 3.02646,-8.33342h5.32827zM366.67827,324.35991h9.24988l-4.64625,-12.91573z" data-paper-data="{&quot;glyphName&quot;:&quot;A&quot;,&quot;glyphIndex&quot;:14,&quot;lastGlyphOfWord&quot;:true,&quot;word&quot;:2,&quot;line&quot;:2,&quot;lastGlyphOfSecondLine&quot;:true}" fill="#4298b5"/></g><g data-paper-data="{&quot;fillRule&quot;:&quot;evenodd&quot;,&quot;fillRuleOriginal&quot;:&quot;evenodd&quot;,&quot;isIcon&quot;:true,&quot;iconStyle&quot;:&quot;standalone&quot;,&quot;selectedEffects&quot;:{&quot;container&quot;:&quot;&quot;,&quot;transformation&quot;:&quot;&quot;,&quot;pattern&quot;:&quot;&quot;},&quot;bounds&quot;:{&quot;x&quot;:168.98488049569823,&quot;y&quot;:115,&quot;width&quot;:212.03023900860353,&quot;height&quot;:115.13112978021758},&quot;iconType&quot;:&quot;initial&quot;,&quot;initialText&quot;:&quot;SEl&quot;,&quot;rawInitialId&quot;:&quot;796&quot;,&quot;suitableAsStandaloneIcon&quot;:true}" fill-rule="evenodd"><g data-paper-data="{&quot;isPathIcon&quot;:true}"><path d="M207.88792,115c-2.967,0 -5.59801,0.191 -7.89501,0.574c-7.84801,1.149 -14.42802,3.781 -19.73902,7.89601c-5.31134,4.11534 -8.78068,9.28334 -10.40801,15.50402c-0.574,2.00934 -0.861,4.44967 -0.861,7.32101c0,3.924 0.431,7.17801 1.292,9.76201c2.392,7.56001 7.56001,13.39802 15.50402,17.51302c5.35934,2.87134 13.44635,5.21634 24.26103,7.03501c8.32601,1.435 14.37902,2.918 18.15902,4.45001c3.78,1.531 6.67501,3.732 8.68501,6.60301c1.34,1.914 2.01,4.115 2.01,6.60401c0,4.97667 -2.05767,8.85268 -6.17301,11.62801c-2.01,1.339 -3.9,2.249 -5.67001,2.727c-1.771,0.479 -4.61801,0.814 -8.54201,1.005c-0.383,0 -0.909,0.024 -1.579,0.072c-0.67,0.048 -1.14833,0.072 -1.435,0.072c-5.55101,0 -10.86301,-1.292 -15.93502,-3.876c-2.297,-1.149 -4.80901,-2.991 -7.53701,-5.52701c-2.72734,-2.536 -4.56934,-4.76101 -5.52601,-6.67501c-1.05333,-1.81867 -1.72334,-2.728 -2.01,-2.728l-3.876,2.297c-2.584,1.531 -5.16801,3.182 -7.75201,4.95201c-2.584,1.771 -3.876,2.895 -3.876,3.374c0,0.47867 0.622,1.72267 1.866,3.732c1.244,2.01 2.48834,3.73267 3.733,5.16801c3.349,3.924 7.65601,7.17801 12.91901,9.76201c1.245,0.67 3.541,1.555 6.89101,2.656c3.34934,1.10067 5.83767,1.84234 7.46501,2.225c3.445,0.67 7.99101,1.005 13.63802,1.005c7.75201,0 13.73302,-0.574 17.94402,-1.723c4.115,-1.148 7.91901,-2.919 11.41301,-5.31101c3.49267,-2.39267 6.14834,-5.02467 7.96701,-7.89601c3.062,-4.68901 4.59401,-10.57501 4.59401,-17.65702c0,-9.85701 -3.302,-17.80102 -9.90601,-23.83003c-6.50734,-5.93401 -17.17802,-10.00134 -32.01204,-12.20201c-9.47468,-1.34 -16.36535,-3.326 -20.67202,-5.95801c-4.307,-2.632 -6.46001,-6.19701 -6.46001,-10.69501c0,-3.445 1.435,-6.31601 4.306,-8.61301c1.914,-1.62667 3.99567,-2.72734 6.24501,-3.302c2.249,-0.574 5.62301,-0.861 10.12101,-0.861c5.16801,0 9.47401,0.574 12.92001,1.723c6.02901,2.009 11.34001,5.02401 15.93402,9.04401l3.158,2.727l1.867,-1.579c0.287,-0.287 0.789,-0.742 1.507,-1.364c0.718,-0.622 1.579,-1.363 2.584,-2.225l2.512,-2.153l4.59401,-4.163l-2.297,-2.441c-4.88067,-4.97601 -11.36468,-8.99534 -19.45202,-12.05801c-8.08668,-3.06267 -16.24535,-4.59401 -24.47603,-4.59401z" fill="#e40046"/><path d="M309.95604,117.44c-26.4147,0 -39.66971,0.14367 -39.76504,0.431c-0.287,0.192 -0.431,2.68 -0.431,7.46501v7.03401h79.53009v-14.93002z" fill="#4298b5"/><path d="M364.0761,229.98713h16.93902v-112.54713h-16.93902z" fill="#4298b5"/><path d="M270.19099,167.25406c0.19133,-0.19133 7.75201,-0.287 22.68203,-0.287h15.64702l37.89804,0.143v6.74701c0,4.49801 -0.09567,6.84301 -0.287,7.03501c-0.09533,0.09533 -9.71334,0.23867 -28.85403,0.43l-28.71103,0.144v32.87404l31.43804,0.143l31.43904,0.287l0.143,7.60901l0.288,7.60801h-82.11409v-31.15104c0,-20.76736 0.14367,-31.2947 0.431,-31.58204z" fill="#4298b5"/></g></g></g></g><g class="watermark-group" style="opacity:0.040000010281801224"><path class="watermark-path" d="M129.52,370.3a11.88,11.88,0,0,1,2.58,5.58,12,12,0,0,1,.11,3,11.81,11.81,0,0,1-.64,2.93,12.34,12.34,0,0,1-1.41,2.72,11.65,11.65,0,0,1-2.13,2.32,12,12,0,0,1-2.64,1.69,13,13,0,0,1-2.91.9,12.47,12.47,0,0,1-3,.12,12.17,12.17,0,0,1-2.93-.64,11.8,11.8,0,0,1-2.72-1.38,12.19,12.19,0,0,1-4-4.79,11.85,11.85,0,0,1-.89-2.92,12.14,12.14,0,0,1-.13-3,11.54,11.54,0,0,1,.64-2.92,11.67,11.67,0,0,1,3.5-5,11.44,11.44,0,0,1,2.67-1.69,11.64,11.64,0,0,1,2.92-.91,10.71,10.71,0,0,1,3-.12,11.68,11.68,0,0,1,5.66,2,11.7,11.7,0,0,1,2.34,2.12m-1.4,8.76a13,13,0,0,1-1.22,2.32,9.68,9.68,0,0,1-1.81,2,7.44,7.44,0,0,1-2.38,1.37,6.17,6.17,0,0,1-5.11-.46,8.73,8.73,0,0,1-3.85-4.58,6.69,6.69,0,0,1-.34-2.66,6.09,6.09,0,0,1,.77-2.47,7.15,7.15,0,0,1,1.75-2.11,9.58,9.58,0,0,1,1.09-.81,8.23,8.23,0,0,1,1.12-.63,8.14,8.14,0,0,1,1.19-.46,12.71,12.71,0,0,1,1.32-.37l2,2.38a12.83,12.83,0,0,0-1.56.17,7.86,7.86,0,0,0-1.23.32,4.5,4.5,0,0,0-1,.49,6.41,6.41,0,0,0-.93.67,4.49,4.49,0,0,0-1.15,1.39,3.87,3.87,0,0,0-.45,1.58,4.12,4.12,0,0,0,.26,1.63,6.11,6.11,0,0,0,2.36,2.82,4.43,4.43,0,0,0,1.57.53,3.91,3.91,0,0,0,1.62-.17,4.71,4.71,0,0,0,1.57-.89,10.5,10.5,0,0,0,.83-.79,5.71,5.71,0,0,0,.65-.93,10.13,10.13,0,0,0,.54-1.14,12.24,12.24,0,0,0,.44-1.49l2,2.33m-14.46,4.55a8.86,8.86,0,0,0,2.78,2.22,9,9,0,0,0,3.29.94,9.15,9.15,0,0,0,3.39-.37,8.68,8.68,0,0,0,3.11-1.69,8.8,8.8,0,0,0,2.22-2.78,9.15,9.15,0,0,0,1-3.29,8.95,8.95,0,0,0-4.83-8.76,9,9,0,0,0-6.73-.57,9,9,0,0,0-5.33,4.47,8.94,8.94,0,0,0-.57,6.71,8.76,8.76,0,0,0,1.7,3.12"/><path class="watermark-path" d="M147,349c-.48.12-1.09.31-1.82.57a24.37,24.37,0,0,0-2.4,1A28.35,28.35,0,0,0,140,352a20.72,20.72,0,0,0-2.71,1.94c-.7.59-1.28,1.11-1.74,1.57a15.07,15.07,0,0,0-1.1,1.22,4.09,4.09,0,0,0-.59.92,2.32,2.32,0,0,0-.22.64,1.16,1.16,0,0,0,0,.47,1.83,1.83,0,0,0,.18.29,1.15,1.15,0,0,0,1,.37,5.54,5.54,0,0,0,1.51-.38q.87-.35,1.95-.9l2.26-1.18q1.2-.65,2.49-1.29c.87-.44,1.73-.83,2.59-1.17a18.94,18.94,0,0,1,2.6-.81,9.27,9.27,0,0,1,2.46-.29,6.25,6.25,0,0,1,2.24.49,5.12,5.12,0,0,1,1.89,1.47,6.35,6.35,0,0,1,1.41,2.61,6,6,0,0,1,.09,2.6,8.3,8.3,0,0,1-.9,2.52,17.79,17.79,0,0,1-1.62,2.37,23.92,23.92,0,0,1-2,2.15c-.72.67-1.41,1.29-2.09,1.87a33.79,33.79,0,0,1-5.33,3.7,32.29,32.29,0,0,1-4.91,2.28l-3.61-4.3a21.38,21.38,0,0,0,5.39-1.87,27.2,27.2,0,0,0,5.4-3.56,21.59,21.59,0,0,0,2.38-2.27,8.67,8.67,0,0,0,1.18-1.7,2.32,2.32,0,0,0,.27-1.19,1.34,1.34,0,0,0-.28-.74,1.21,1.21,0,0,0-1-.42,4.32,4.32,0,0,0-1.55.34,15.77,15.77,0,0,0-2,.88c-.72.37-1.48.77-2.27,1.21l-2.45,1.3c-.85.45-1.7.85-2.56,1.21a22.37,22.37,0,0,1-2.54.86,10,10,0,0,1-2.43.32,5.76,5.76,0,0,1-2.2-.45,5,5,0,0,1-1.89-1.45,6.12,6.12,0,0,1-1.31-2.41,6,6,0,0,1-.1-2.41,8.28,8.28,0,0,1,.81-2.38,14.06,14.06,0,0,1,1.49-2.24,22.37,22.37,0,0,1,1.85-2.05q1-1,2-1.77c.7-.59,1.44-1.15,2.23-1.7s1.62-1.06,2.44-1.53,1.63-.91,2.43-1.3,1.58-.75,2.3-1L147,349"/><path class="watermark-path" d="M186.76,337.57l-10.6-12.63,3.92,18.24-4.66,3.91-17.27-7,10.6,12.63-4.86,4.07-15.09-18,6.59-5.54,18.69,7.52-4.15-19.71,6.57-5.52,15.09,18-4.83,4.05"/><path class="watermark-path" d="M208.84,313.24l-10,8.42,1.16,4.82L194.56,331l-5.68-25.89,5.42-4.55,24.51,10.09-5.42,4.55-4.55-2m-11.23,3.45,6.57-5.52-8.83-3.87,2.26,9.39"/><path class="watermark-path" d="M227.49,281.38c-.48.12-1.09.31-1.82.57a24.37,24.37,0,0,0-2.4,1,26.11,26.11,0,0,0-2.7,1.47,20.72,20.72,0,0,0-2.71,1.94c-.7.59-1.28,1.11-1.74,1.57a13.39,13.39,0,0,0-1.1,1.22,4.29,4.29,0,0,0-.59.91,2.48,2.48,0,0,0-.22.65,1.16,1.16,0,0,0,0,.47,1.83,1.83,0,0,0,.18.29,1.15,1.15,0,0,0,1,.37,5.54,5.54,0,0,0,1.51-.38q.87-.34,2-.9l2.26-1.18q1.2-.64,2.49-1.29c.87-.44,1.73-.83,2.59-1.17a18.94,18.94,0,0,1,2.6-.81,9.27,9.27,0,0,1,2.46-.29,6.08,6.08,0,0,1,2.24.49,5.09,5.09,0,0,1,1.89,1.46,6.47,6.47,0,0,1,1.41,2.61,6.07,6.07,0,0,1,.09,2.61,8.3,8.3,0,0,1-.9,2.52,16.32,16.32,0,0,1-1.63,2.36,21.41,21.41,0,0,1-2,2.16c-.72.67-1.41,1.29-2.1,1.86a33.36,33.36,0,0,1-5.32,3.71,31.92,31.92,0,0,1-4.92,2.28l-3.6-4.3a21.38,21.38,0,0,0,5.39-1.87,27.2,27.2,0,0,0,5.4-3.56,21.59,21.59,0,0,0,2.38-2.27,8.67,8.67,0,0,0,1.18-1.7A2.32,2.32,0,0,0,231,293a1.34,1.34,0,0,0-.28-.74,1.21,1.21,0,0,0-1-.42,4.32,4.32,0,0,0-1.55.34,16.54,16.54,0,0,0-2,.88c-.71.37-1.47.77-2.26,1.21l-2.46,1.3c-.84.44-1.7.85-2.55,1.21a24.53,24.53,0,0,1-2.54.86A10,10,0,0,1,214,298a5.76,5.76,0,0,1-2.2-.45,5,5,0,0,1-1.89-1.45,6.12,6.12,0,0,1-1.31-2.41,5.78,5.78,0,0,1-.1-2.41,8,8,0,0,1,.81-2.38,14.61,14.61,0,0,1,1.49-2.25,22.26,22.26,0,0,1,1.85-2q1-1,2-1.77c.7-.59,1.44-1.15,2.23-1.7s1.62-1.06,2.44-1.53,1.63-.91,2.43-1.31,1.58-.74,2.3-1l3.5,4.16"/><path class="watermark-path" d="M261.64,274.74l-6.29-7.5L243,277.61l6.3,7.5-4.86,4.07-15.09-18,4.85-4.08,5.49,6.55L252,263.3l-5.49-6.55,4.86-4.07,15.09,18-4.86,4.08"/><path class="watermark-path" d="M272.18,265.9l-15.09-18,4.86-4.08,15.09,18-4.86,4.08"/><path class="watermark-path" d="M299.65,242.85l-22.51-2.18L287.51,253l-4.85,4.08-15.1-18,5.28-4.43,22.56,2.22L285,224.5l4.83-4.06,15.09,18-5.26,4.42"/><path class="watermark-path" d="M306.68,205.52a31.88,31.88,0,0,1,5.29-3.66,34.48,34.48,0,0,1,5.14-2.35l3.69,4.39a20.77,20.77,0,0,0-2.37.61,20.47,20.47,0,0,0-2.61,1,25.12,25.12,0,0,0-2.76,1.49,23.9,23.9,0,0,0-2.8,2,20.42,20.42,0,0,0-2.8,2.77,12.77,12.77,0,0,0-1.64,2.52,7,7,0,0,0-.68,2.24,6,6,0,0,0,.66,3.64,8.16,8.16,0,0,0,.94,1.38,9.12,9.12,0,0,0,1.08,1.07,6.39,6.39,0,0,0,1.47.91,6.73,6.73,0,0,0,1.88.48,6.54,6.54,0,0,0,2.28-.18,11.67,11.67,0,0,0,2.74-1.07,19.38,19.38,0,0,0,3.18-2.22c.57-.48,1.06-.92,1.46-1.31a14.57,14.57,0,0,0,1-1.13,11.46,11.46,0,0,0,.81-1.05l.74-1.09-1.82-2.17-5.45,4.57-3.31-3.94,10.31-8.65,7.71,9.19a29,29,0,0,1-1.67,2.43q-1,1.26-2.1,2.52c-.74.84-1.5,1.65-2.3,2.44s-1.58,1.5-2.33,2.14a31,31,0,0,1-3.59,2.61,22.55,22.55,0,0,1-3.64,1.83,15.64,15.64,0,0,1-3.63.89,10.72,10.72,0,0,1-3.49-.15,10.45,10.45,0,0,1-3.28-1.33,12.54,12.54,0,0,1-3-2.67,12,12,0,0,1-2.08-3.44,10.45,10.45,0,0,1-.71-3.5,11.14,11.14,0,0,1,.51-3.51,15.72,15.72,0,0,1,1.56-3.43,21.62,21.62,0,0,1,2.42-3.28,30.3,30.3,0,0,1,3.15-3"/><path class="watermark-path" d="M336.91,211.59l-15.1-18,4.86-4.08,11.79,14,13.13-11,3.31,3.94-18,15.1"/><path class="watermark-path" d="M374.54,164.71a12.28,12.28,0,0,1,2.59,4.81,10.44,10.44,0,0,1,0,5,14.62,14.62,0,0,1-2.33,5,25.55,25.55,0,0,1-4.56,4.85,26.07,26.07,0,0,1-5.6,3.67,14.79,14.79,0,0,1-5.38,1.43,10.43,10.43,0,0,1-4.94-.89,13.24,13.24,0,0,1-6.87-8.18,10.48,10.48,0,0,1,0-5,14.51,14.51,0,0,1,2.36-5,25.23,25.23,0,0,1,4.57-4.89,25,25,0,0,1,5.59-3.64,14.45,14.45,0,0,1,5.35-1.43,10.31,10.31,0,0,1,4.93.92,12.22,12.22,0,0,1,4.28,3.38m-4.91,4.11a8.36,8.36,0,0,0-2-1.72,5.5,5.5,0,0,0-2.65-.85,7.72,7.72,0,0,0-3.32.57,14.49,14.49,0,0,0-4,2.52,16.72,16.72,0,0,0-2.38,2.4,10.15,10.15,0,0,0-1.39,2.24,6.71,6.71,0,0,0-.56,2.1,5.69,5.69,0,0,0,.1,1.9,6.21,6.21,0,0,0,.61,1.69,9.85,9.85,0,0,0,1,1.44,10.48,10.48,0,0,0,1.26,1.23,6.67,6.67,0,0,0,1.57.92,6.1,6.1,0,0,0,1.85.41,6.8,6.8,0,0,0,2.15-.2,11.06,11.06,0,0,0,2.45-1,17.67,17.67,0,0,0,2.77-1.94,14.39,14.39,0,0,0,3.18-3.52,7.74,7.74,0,0,0,1.14-3.17,5.54,5.54,0,0,0-.37-2.74,8.52,8.52,0,0,0-1.36-2.3"/><path class="watermark-path" d="M382.66,141.76A32.3,32.3,0,0,1,388,138.1a34.12,34.12,0,0,1,5.15-2.35l3.69,4.4a19.62,19.62,0,0,0-2.37.6,22.08,22.08,0,0,0-2.61,1,26,26,0,0,0-2.77,1.49,23.9,23.9,0,0,0-2.8,2,21,21,0,0,0-2.8,2.78,13.19,13.19,0,0,0-1.64,2.51,7.29,7.29,0,0,0-.68,2.24,6.36,6.36,0,0,0,.06,2,5.8,5.8,0,0,0,.61,1.68,8.12,8.12,0,0,0,.93,1.38,9.16,9.16,0,0,0,1.08,1.08,6.56,6.56,0,0,0,1.48.9,6,6,0,0,0,1.87.48,6.76,6.76,0,0,0,2.28-.17,12,12,0,0,0,2.74-1.08,18.57,18.57,0,0,0,3.18-2.22c.58-.48,1.06-.92,1.46-1.31s.75-.77,1.05-1.12.57-.72.81-1.06l.73-1.09-1.82-2.17-5.45,4.57-3.3-3.94,10.3-8.65,7.71,9.19a29,29,0,0,1-1.67,2.43q-1,1.26-2.1,2.52c-.73.84-1.5,1.66-2.3,2.44s-1.57,1.5-2.33,2.14a31,31,0,0,1-3.59,2.61,22.15,22.15,0,0,1-3.64,1.83,15.56,15.56,0,0,1-3.62.89,11,11,0,0,1-3.49-.14,10.84,10.84,0,0,1-3.28-1.33,12.82,12.82,0,0,1-3-2.68,12.12,12.12,0,0,1-2.08-3.43A10.71,10.71,0,0,1,375,155a11.18,11.18,0,0,1,.51-3.51,15.51,15.51,0,0,1,1.57-3.43,21.44,21.44,0,0,1,2.42-3.28,30.19,30.19,0,0,1,3.14-3"/><path class="watermark-path" d="M428.63,119.31a12.26,12.26,0,0,1,2.59,4.82,10.44,10.44,0,0,1,0,5,14.53,14.53,0,0,1-2.34,5,25.29,25.29,0,0,1-4.56,4.86,26,26,0,0,1-5.59,3.67,14.84,14.84,0,0,1-5.38,1.43,10.61,10.61,0,0,1-4.95-.89,12.15,12.15,0,0,1-4.3-3.37,12,12,0,0,1-2.56-4.81,10.48,10.48,0,0,1,0-5,14.39,14.39,0,0,1,2.35-5,27.89,27.89,0,0,1,10.16-8.53,14.49,14.49,0,0,1,5.36-1.43,10.27,10.27,0,0,1,4.92.92,12.21,12.21,0,0,1,4.28,3.37m-4.91,4.12a8.17,8.17,0,0,0-2-1.72,5.58,5.58,0,0,0-2.65-.86,7.86,7.86,0,0,0-3.31.58,14.49,14.49,0,0,0-4,2.52,16.21,16.21,0,0,0-2.38,2.4,9.85,9.85,0,0,0-1.4,2.24,7,7,0,0,0-.56,2.1,6,6,0,0,0,.1,1.9,6.23,6.23,0,0,0,.62,1.69,8.49,8.49,0,0,0,1,1.44,9.18,9.18,0,0,0,1.26,1.23,6.67,6.67,0,0,0,1.57.92,6,6,0,0,0,1.84.41,6.86,6.86,0,0,0,2.16-.2,11.26,11.26,0,0,0,2.45-1,17.62,17.62,0,0,0,2.76-1.94,14.67,14.67,0,0,0,3.19-3.52,7.71,7.71,0,0,0,1.13-3.17,5.53,5.53,0,0,0-.36-2.74,8.55,8.55,0,0,0-1.37-2.3"/></g></svg>