<svg xmlns="http://www.w3.org/2000/svg" class="thumbnail-icon" viewBox="0 0 200 200"><g data-paper-data="{&quot;fillRule&quot;:&quot;evenodd&quot;,&quot;isIcon&quot;:&quot;true&quot;,&quot;selectedEffects&quot;:{&quot;container&quot;:&quot;&quot;,&quot;transformation&quot;:&quot;&quot;,&quot;pattern&quot;:&quot;&quot;},&quot;iconType&quot;:&quot;icon&quot;,&quot;rawIconId&quot;:&quot;combine_0acd0ed6-3672-4981-a8f9-5b55255f406c&quot;,&quot;combineTerms&quot;:&quot;wrench,spatula&quot;,&quot;iconStyle&quot;:&quot;standalone&quot;,&quot;bounds&quot;:{&quot;x&quot;:202.38038908576243,&quot;y&quot;:120.74294487403375,&quot;width&quot;:145.23922182847514,&quot;height&quot;:145.23922182847514}}" style="fill: rgb(0, 0, 0);"><path d="M105.878,0c34.57,3.05 56.942,18.304 73.58,39.288c-3.66,5.37 -8.93,9.596 -13.65,14.316c-14.072,14.072 -28.216,29.256 -43.284,42.618c-2.698,-1.256 -5.36,-2.348 -8.322,-2.664c-25.3,-2.694 -41.648,19.002 -34.294,43.282c6.686,-5.632 13.958,-13.566 20.644,-20.308c6.742,5.908 13.068,12.236 18.978,18.976c-6.91,6.63 -13.68,13.4 -20.31,20.31c26.69,7.63 49.118,-14.574 40.62,-41.286c17.008,-17.84 35.32,-36.152 52.606,-52.606c4.7912,10.8 7.4334,24.2548 7.554,37.6942v1.9218c-0.0384,4.262 -0.3324,8.5098 -0.894,12.658c-2.3,16.966 -9.516,32.43 -17.314,43.282c-16.6458,23.164 -41.057,39.8536 -77.1108,42.518h-9.314c-28.3976,-2.0328 -50.0114,-13.1482 -65.3972,-28.534c-15.686,-15.68 -27.766,-36.87 -29.97,-65.59v-11.654c1.734,-26.728 14.236,-50.512 29.298,-65.258c16.05,-15.708 37.422,-26.74 64.926,-28.964zM126.571,37.5176c1.7762,-1.7834 1.7138,-4.7324 -0.1352,-6.5744c-1.8516,-1.842 -4.8018,-1.8892 -6.5756,-0.1046c-1.0434,1.0492 -1.6032,2.6712 -1.468,4.2134c-1.5668,-0.9246 -2.5644,-0.701 -2.9748,-0.2906l-27.1362,27.2256l0.513,0.5092l-30.6814,30.838c-2.0256,0.094 -4.9406,-0.193 -7.7202,-1.9962c-0.7194,-0.4664 -1.3414,-0.89 -1.8928,-1.2652c-3.2486,-2.212 -4.0446,-2.7542 -7.9022,-0.5358c-4.5098,2.5902 -23.94824,15.4402 -24.27054,15.7624c-0.02996,0.0302 -0.12172,0.0848 -0.25974,0.167c-1.3412,0.7986 -7.05286,4.1998 -2.93392,12.9676c4.10882,8.7494 5.03222,9.9338 6.53082,12.5488c0.02588,0.0658 1.86098,4.5734 8.07998,7.6988c2.1574,1.254 3.9454,2.3738 11.7736,6.0028c8.7908,4.0758 12.1604,-1.6558 12.95,-2.999c0.081,-0.1378 0.1348,-0.2294 0.1646,-0.2594c0.3222,-0.3258 13.0746,-19.8278 15.6436,-24.353c2.1994,-3.8688 1.6526,-4.6622 -0.5782,-7.8984c-0.3786,-0.549 -0.8056,-1.1682 -1.2756,-1.8848c-1.8162,-2.7702 -2.1174,-5.684 -2.0338,-7.7118l30.6814,-30.8368l0.5128,0.5106l27.2524,-27.3902l0.046,-0.1928c0.0388,-0.1472 0.2164,-1.1458 -0.6128,-2.662c1.569,0.1576 3.2394,-0.4176 4.3028,-1.4892zM120.5954,36.8106c-1.2034,-1.1952 -0.9974,-3.6618 0.287,-4.9522c1.2364,-1.2398 3.2854,-1.208 4.5722,0.0728c1.2846,1.2788 1.3282,3.329 0.0942,4.5688c-1.2822,1.2892 -3.75,1.508 -4.9534,0.3106zM100.7936,61.9658c-0.9328,-3.102 -3.723,-4.5476 -5.3322,-5.1334l20.9134,-20.9852c0.3058,-0.0506 1.3952,0.2034 3.1702,1.9714c1.7326,1.7222 1.9302,2.942 1.9408,3.349zM94.3052,63.1714c-1.1164,-1.0762 -2.275,-1.8102 -3.1172,-2.0526l3.3524,-3.363c1.2634,0.36 4.6382,1.648 5.2862,5.1828l-3.3172,3.3336c-0.274,-0.8504 -1.0692,-2.008 -2.2042,-3.1008zM21.6486,111.041c-0.5986,0.367 -1.3844,0.1788 -1.75382,-0.4176c-0.36938,-0.6 -0.18352,-1.3834 0.41762,-1.7504l20.3182,-12.4958c0.5998,-0.367 1.3856,-0.1824 1.7538,0.4176c0.3694,0.5976 0.1824,1.3856 -0.4188,1.7526zM26.3598,120.1902c-0.5706,0.4812 -1.4246,0.4118 -1.908,-0.1612c-0.4836,-0.5692 -0.4118,-1.4244 0.1612,-1.9056l19.337,-16.3516c0.5706,-0.4824 1.4246,-0.4142 1.9068,0.161c0.4848,0.5694 0.4118,1.4234 -0.1576,1.9056zM30.5532,127.3104c-0.5446,-0.5434 -0.547,-1.4258 -0.0046,-1.9704l18.3796,-18.469c0.541,-0.5446 1.4234,-0.5494 1.968,-0.007c0.5458,0.5446 0.547,1.4244 0.0046,1.9702l-18.3796,18.4702c-0.5424,0.5424 -1.4234,0.547 -1.968,0.006zM39.7696,133.2036c-0.4788,0.5728 -1.334,0.6516 -1.9056,0.1718c-0.573,-0.4824 -0.6494,-1.3352 -0.1694,-1.9068l16.2552,-19.423c0.4788,-0.5718 1.3328,-0.6482 1.9056,-0.1672c0.5752,0.4764 0.6506,1.3304 0.1706,1.9046zM61.4346,117.0766l-12.3912,20.3806c-0.3658,0.6022 -1.1504,0.794 -1.7502,0.4246c-0.6024,-0.367 -0.7928,-1.1516 -0.427,-1.7492l12.391,-20.383c0.366,-0.6034 1.1504,-0.794 1.7516,-0.427c0.6022,0.366 0.7916,1.1494 0.4258,1.754z" fill-rule="evenodd"/></g></svg>